<svg enable-background="new 0 0 1600 1200" viewBox="0 0 1600 1200" xmlns="http://www.w3.org/2000/svg"><g fill="#e8e8e8"><path d="m229.1 624.6c1.4 4.8 6.7 5.4 10.9 4 4.5-1.5 8.4-6.5 13.5-3.9 2.7 1.4 4.4 4.4 7.4 5.3 6.3 2 9.1-4.8 14-7 6.9-3.1 13.5 5 20.6 3.8 2.8-.4 4.5-2.2 6.5-4 4.3-3.9 7.3-2.3 11.3.9 3.6 2.9 7.5 6.7 12.5 5.8 7.7-1.5 9-11.7 18.3-9 5.9 1.7 11.3 6.6 17.8 5.5 3.4-.6 5.8-2.8 8.2-5.1 4-3.8 7.5-5.8 13.2-4.3 6.8 1.7 13.2 6 20.3 2.8 1.7-.8.2-3.4-1.5-2.6-6.6 3.1-13.8-2.6-20.4-3.6-5.8-.9-9.6 1.8-13.7 5.6-3.2 3-6.3 5.1-10.8 4-3.6-.9-6.8-3-10.2-4.4-4.5-1.8-9-2.2-13.1 1-2.5 1.9-4.2 5.2-7 6.6-4 2.1-7.7-1.2-10.6-3.6-3.1-2.5-6.8-5.9-11.2-4.9-2.4.5-3.9 2.2-5.6 3.8-4.2 3.8-7.9 2.6-12.7.6s-9.6-3.8-14.3-.7c-3.2 2-5.6 6.5-9.7 6-3.5-.4-5.2-4.1-8.4-5.5-2.8-1.2-5.5-.8-8.2.4-2.9 1.3-12.1 8.2-14 1.8-.8-2-3.7-1.2-3.1.7z"/><path d="m319.3 604.2c3.6-5 12.1 4.4 17 3.8 6-.7 6.8-8.4 13.8-6.5 4.6 1.2 8.6 4.7 13.6 4.4 5.8-.3 9.4-7 15.4-5.5 4.1 1 7.7 4.8 12.1 4.3 2-.2 2.9-1.3 4.3-2.5 1.8-1.6.7-4.5 5.7-2.8 1.6.6 2.9 2.5 4 3.7 2.8 3.2 5.8 5.7 10.2 4.1 3.6-1.3 6.3-3.3 10.3-3.4 4.5-.1 8.6 1.3 12.1 4.1 1.5 1.2 3.6-.9 2.1-2.1-4.5-3.6-9.9-5.4-15.6-4.9-2.8.3-5 1.3-7.5 2.2-7.4 2.8-8-1.9-12.5-5.3-4.3-3.2-7.1-2.2-10.4 1.3-1.9 2.1-2.8 2.9-5.7 2-1.6-.5-3.1-1.5-4.5-2.2-2-1-4.1-1.9-6.4-1.9-6.5-.1-9.9 7.1-16.8 5.5-4.9-1.2-9.5-5.5-14.8-4.3-2.4.5-3.9 2.1-5.5 3.8-1.9 2.1-4.7 2.9-7.6 2.3-1.8-.4-3.5-2.3-5.2-3.1-3.7-1.8-8-2.1-10.6 1.5-1.2 1.5 1.4 3 2.5 1.5z"/><path d="m1231 103.6c1.8-4.7 8.1 1.8 9.8 2.9 1.9 1.3 3.8 2.1 6.2 1.8 3.2-.3 5.8-2.3 9-2.5 3.1-.1 6.1 1 9 1.8 4.5 1.3 9.5 2.7 13.9.2 3.3-1.9 4.9-4.4 8.9-2.3 2.1 1.1 3.4 2.5 5.8 2.8 4.9.6 8.9-2.8 13.4-3.9 5.4-1.2 7.3 5 12.8 3.5 3.6-1 5.8-3.2 9.8-3.2 3.2 0 6.3.9 9.4 1.7 5.5 1.4 10.7 2.8 16.4 1.7 1.9-.4 1.1-3.3-.8-2.9-7.5 1.4-14.5-2.3-21.9-3.2-2.3-.3-4.6-.4-6.9.1-3.4.7-6.5 4.1-10.2 2.2-2.2-1.2-2.7-2.8-5.5-3.1-1.9-.2-3.9.3-5.7.9-2.5.9-4.8 2.3-7.4 2.9-4.6 1.1-6.3-2-10.2-3.3-5.4-1.8-8.5 4.5-13.7 4.6-6.4.1-12.1-4.1-18.6-3.4-3.8.4-7.1 3.1-11.1 1.8-2.5-.9-4.2-3.8-6.7-4.9-3.4-1.5-7.4-.8-8.8 2.9-.5 2 2.4 2.7 3.1.9z"/><path d="m1281 96.2c4.3-3.5 11.1.6 15.8 1.1 1.9.2 3.7.1 5.5-.6 3.3-1.2 5.5-4.1 9.3-4.2 5.4-.2 9.7 4.5 15.2 4.5 2.5 0 4.9-.9 7.3-1.7 4.3-1.5 7.2-1.9 11.1.9 3.4 2.4 5.8 2.7 9.5 1 3.9-1.8 6.1-2.9 10.1-.6 2.2 1.2 4 2.9 6.3 3.8 5.1 2.1 10.1.4 14.9-1.7 5.2-2.3 14.9-6.4 18.2 1.1.8 1.8 3.4.2 2.6-1.5-5.3-12.1-20.2-1.7-28.1-.1-7.7 1.5-11.5-6.4-18.7-6.1-2.4.1-4.2 1.3-6.2 2.3-4.9 2.4-6.6-1.4-10.5-2.9-5.8-2.2-10.8 2.7-16.5 2.5-6.2-.1-11.1-6.1-17.6-4.4-2.7.7-4.5 2.8-7 3.9-3.7 1.7-7.4.4-11.1-.6-4.4-1.1-8.5-1.9-12.2 1.2-1.5 1.2.6 3.3 2.1 2.1z"/><path d="m1265.6 1042.8c4.1-7.1 14.4 2.2 19.9 2.5 7.1.4 12.7-7.3 19.8-3.8 5.3 2.6 8.8 5.8 15.1 4.9 7.5-1.1 14-6.4 21.7-6.6 2.1 0 4.3.3 6.1 1.4.8.5 2.5 2.3 3.6 2.7 2 .7 3.3.7 5.1-.4 2.8-1.8 4.7-4.6 7.8-6.1 3.2-1.6 6.8-2.3 10.3-2.1 6.4.3 11.6 5.2 18.1 4.2 3.5-.6 6.5-2.7 9.9-3.6 4.5-1.1 8.8.1 12.4 2.9 1.5 1.2 3-1.4 1.5-2.6-5.3-4.1-11.5-4.6-17.6-2.2-5.8 2.2-9.1 3.2-15.1.7-2.6-1.1-5.1-2-7.9-2.3-6.1-.7-12.4 1.1-17.1 4.9-1 .8-2 2.4-3.1 2.9-3.3 1.6-5.2-1.2-7.7-2.3-2.5-1.2-5.3-1.3-8.1-1-8.4.9-16.5 8.3-25.1 6.4-6.7-1.4-10.1-7.5-17.5-5.4-3.2.9-5.9 3.1-9.2 3.9-5.1 1.3-8.8-2.1-13.3-3.7-4.4-1.6-9.8-1.4-12.4 3-.8 1.8 1.8 3.3 2.8 1.7z"/><path d="m1320.8 1028.4c2.2-7.5 13.2-.7 17.7-.4 4.6.3 8.3-2.1 12.1-4.4 2.8-1.7 5.5-3.2 8.9-2.5 3.2.6 5.7 2.8 8.5 4.2 3.6 1.8 7.3 2.3 11.1 1 4.2-1.4 7.6-4.3 11.6-6.3 6.8-3.4 11.7-.3 18.6.3 4.1.4 7-1 10.2-3.6 6.1-5 12.9-7.1 20.3-3.5 1.7.8 3.3-1.7 1.5-2.6-4.8-2.4-10.2-3-15.3-1.4-6.9 2.2-10.2 9.3-18.2 7.8-5.6-1.1-10.3-3-15.9-.8-5.1 2-9.3 6.3-14.7 7.6-6.8 1.6-11.1-4.6-17.3-5.7-5-.9-9.1 2-13.2 4.4-4 2.3-7.3 3.1-11.9 1.7-2.8-.9-5.4-2.1-8.4-2.1-3.9 0-7.4 1.8-8.6 5.6-.4 1.8 2.5 2.6 3 .7z"/><path d="m317.4 312.8c5.8-6.6 14.9-9.7 23.5-7.4 7 1.9 12.4 6.8 20 5 6.9-1.7 11.9-7.3 18.6-9.5 7.5-2.5 14.8 1.3 21.7 3.8 5.8 2.1 11.7 3.5 17.6 1 4.6-1.9 7.9-4.7 13.2-3.7 3.5.7 6.8 2.4 10.2 3.6 8.7 3 16.4 0 25.1-1 9.9-1 19.7-.1 29.3 2.3 1.9.5 2.7-2.4.8-2.9-9.2-2.4-18.7-3.3-28.3-2.6-4.6.4-9 1.3-13.4 2.1-5.8 1-10.3.1-15.7-2-7.5-2.9-12.4-3.6-19.7.1-8.5 4.3-15.4 1.2-23.7-1.9-6.3-2.4-12.7-3.8-19.2-1.3-6.9 2.7-13 9.8-20.9 9.4-4.8-.3-9-3.4-13.4-4.9-3.3-1.1-6.9-1.5-10.4-1.2-6.8.6-12.9 3.9-17.4 8.9-1.2 1.5.9 3.6 2.1 2.2z"/><path d="m427.4 284.8c7.3-8.7 18.8 2.1 26.1 5 8.3 3.3 14.5-.6 22.3-3 5.8-1.8 9.6.3 14.8 2.7 3 1.3 6 2 9.1.6 4.1-1.9 7-5.8 11.2-7.8 5.3-2.4 11-2.9 16.7-1.7 1.9.4 2.7-2.5.8-2.9-8.5-1.8-17.4-.1-24.3 5.2-3.2 2.4-5.7 5.8-10.3 4.7-2.4-.6-4.6-2.3-6.9-3.3-4-1.7-7.8-1.7-11.9-.4-4.9 1.5-9.6 4.5-14.9 4.4-5.8-.1-10.6-4.2-15.4-6.8-6.1-3.2-14.5-4.9-19.5 1.1-1.2 1.6 1 3.7 2.2 2.2z"/></g><circle cx="478.5" cy="404.4" fill="#03DAC5" r="9.9"/><circle cx="1005.2" cy="75.1" fill="#03DAC5" r="9.5"/><circle cx="1493.3" cy="765.4" fill="#03DAC5" r="8"/><circle cx="946.8" cy="1011.3" fill="#03DAC5" r="7.6"/><circle cx="1054.5" cy="95.4" fill="#461eb8" r="4.6"/><circle cx="457" cy="479.6" fill="#461eb8" r="8.3"/><circle cx="1457.4" cy="836.8" fill="#461eb8" r="7.2"/><path d="m163.7 833.7c7.7 3.2 18.5 7.1 31.9 9.8 25.7 5 46 2.6 56.3 1.2 12.8-1.7 49.7-7.8 105.1-39.4 54.7-31.1 90.5-65.9 117.4-92.4 29.2-28.7 50.2-54.2 56.4-61.9 37.3-45.7 48.3-70.3 88.2-108.7 24-23.1 37.2-30.8 44.9-34.8 7.5-3.9 29.4-14.5 77.9-18.8 32.6-2.9 55.9-1 95.8 2.4 44.9 3.8 79.5 9.5 106.9 14 30.4 5 55.9 10 74.3 13.9 5.8-10.8 14.4-28.4 21.7-51.2 10.1-31.4 9.4-46.8 21-113.9 5.4-31.3 8.1-47.2 12.2-60.7 10.8-35.7 26.5-62.7 38.4-80.3 4.4 11.8 8.8 23.5 13.3 35.3 4.7-5.8 11.7-13.3 21.5-20.3 10.2-7.3 19.9-11.6 27.1-14.2-1.1 4.8-2.4 13.4-.3 23.7 1.8 8.7 5.3 15.2 7.8 19.1 4.5-3.7 9.1-7.5 13.6-11.2 11.2-9.2 22.4-18.4 33.6-27.6 2.6 5.3 5.1 10.6 7.7 15.9 5 10.4 10 20.7 15.1 31.1 8.4-7.7 17-16.1 25.7-25.2 5.1-5.4 10-10.7 14.6-16 3.1 5 6.3 10.6 9.3 16.9 5.4 11.3 9 22 11.4 31.2 3-4.9 6.9-10.3 11.7-15.5 16.8-18.3 36.6-26.3 48.7-29.9-1.2 4.8-2.2 9.7-3.1 14.9-3.5 19.8-4 38-3.1 53.7 2.6-2.4 6.3-5.5 11-8.8 12.4-8.8 24.3-13.4 32.4-15.8 5.9-1.8 13.8-3.7 23.4-4.5-5.7 6.4-13.3 15.9-20.8 28.5-8.4 14.2-14.8 29.3-20.5 50.3-11.1 40.5-12.1 74.7-13.2 120.3-.4 16.6-.3 28.6-.1 52.6.2 18.7.5 52.2 2.3 87.7 2.9 55.9 6.6 61 10.9 130.7 2.9 46.8 2.2 60.8 1.3 71.9-3.4 38.8-12.7 67.5-18 81.8-5.5 15-12.2 33-26.6 53.5-12 17.2-23.8 33.6-45.6 42.5-15 6.1-28.8 6.2-37.4 5.5-20.9 1-46.4 1.3-75.4-.4-9.6-.6-33.4-2.1-64.4-6.6-55.8-8.1-95.5-20.1-108.4-24.1-10.2-3.2-23.9-8.6-51.2-19.4-9.4-3.7-15.8-6.3-23.5-11.8-5.1-3.6-16.7-12-24.9-27.7-1-1.9-5.5-10.8-7.6-23.5-2.4-14.8-.2-26.2 2.1-37.3 2.1-10.2 6.1-24.6 14.5-40.8-10.7 11.7-24.1 27.2-38.7 46.2-24.3 31.5-39.6 56.8-42.7 61.9-12.7 21.1-14.3 27-36.5 71.9-27.1 54.8-40.9 82.6-55.3 101.8-24.8 33.2-49.5 53.1-57.5 59.4-26 20.3-50.9 32.8-69.4 40.5 4-5.6 10.2-15.7 13.3-29.7 3-13.6 1.9-25.1.7-31.8-5.2 4.7-11.3 9.6-18.3 14.3-20.8 13.9-41.3 20.4-56.6 23.7 2.8-8.9 5.5-19.3 7.2-31.1 2.8-18.5 2.5-34.8 1.4-47.7-6.3 7.5-14.6 16.1-25.3 24.4-18.3 14.1-36.2 21.8-49.2 26.1 4.2-7.1 9-16.8 12.3-29 4.9-17.9 4.5-33.5 3.5-43.6-4.8 4.6-11.1 9.7-19 14-24.6 13.6-49.2 12.1-60.4 10.6 3.4-4.9 7.1-11 10.3-18.4 6.5-15.4 7.7-29.5 7.6-38.7-4.9 5-10.8 10.3-18 15.2-24.6 16.9-50.1 20.6-64.8 21.3 3.8-4.7 7.8-10.4 11.5-17.2 8.2-15.1 11.2-29.4 12.4-39.4-11.5 6.3-21.6 11-29.4 14.3-23.9 10.2-33.1 10.9-41.1 8.3-3.2-1.1-5.7-2.4-7.3-3.5 5.7-6.5 11.7-14.3 17.6-23.3 10.4-16.2 17.1-31.6 21.4-44.2-3.7 1.7-10.3 4.6-18.8 7-16 4.6-28.5 4.9-71 5.1-12.4.1-22.3.1-27.8.1 8.1-3.7 17.1-8.6 26.4-15 15.7-10.6 27.5-22.1 36-31.8-3.9.8-9 1.6-15.1 2.2-4.1.4-17.7 1.7-34 .3-23.2-2-42.5-8.6-54.2-13.4 7.1-2.3 12.8-4.7 16.9-6.4 10.7-4.6 17.6-7.6 24.9-13.8 4.6-3.9 7.8-7.8 9.7-10.4-9.6-1.9-20.9-4.9-33-10-24.8-10.7-42.2-25.2-53-35.9z" fill="#fff"/><path d="m933.9 790.1c-2.9 5-7.3 13-11.6 23.1-8.2 19.2-15.4 36-13.3 57.4 1.5 15.4 7.2 26.7 9.1 30.2 1.3 2.4 5.7 10.3 13.7 18.4 16.1 16.4 35.9 22.9 48.9 27 47.9 15.1 71.9 22.7 78.1 24.2 24.5 5.7 61 14.1 110.7 18.4 28.8 2.5 63.4 3.8 102.5 1.6-5.6-.8-14.8-2.8-23.7-9.4-2.5-1.8-13-9.9-19.9-30.8-6.1-18.4-6.1-36.4-3.1-56.6 5.8-38.6 19.8-67.5 35.5-99 9.6-19.3 13.4-24.3 27.6-53.5 9.4-19.3 16.5-34.9 21.3-55.9 4.2-18 4.3-29.1 2.8-39-1-6.5-2.6-16.6-9.4-27.5-7.7-12.3-17.9-19-23.5-22.1-13.6.3-31.5 1.5-52.2 4.8-17.2 2.8-53.6 9.8-96 28.4-49.6 21.7-81.7 48.1-111.1 72.6-23.7 19.6-54.7 48.4-86.4 87.7z" fill="#9b9797" opacity=".18"/><path d="m166.7 834.9c70.9 34.5 155.1-3.6 215.4-43.3 63.9-42.2 116.7-98.9 165-157.8 12.4-15.1 24.5-30.4 36.5-45.7 12.3-15.7 24.3-31.9 38-46.5 13.8-14.6 29.6-26.9 48-35.3 18.3-8.3 38.2-12.7 58.1-15 42-4.7 85.1-1.4 127 2.7 44.9 4.4 89.5 11.7 133.7 20.9 88.4 18.4 175 44.6 260.9 72.2l32.4 10.5c1.8.6 2.6-2.3.8-2.9-85.8-27.9-172-55.1-260-75.4-84.9-19.6-173.1-34.2-260.5-33.1-37.5.5-76.6 5.6-109.2 25.4-33.3 20.2-55.6 54.2-79.3 84.2-47.5 60.2-97.4 119.6-157.8 167.4-30.2 23.9-63.1 44.6-98.4 60.1-37 16.3-79.5 27-119.9 18.8-10.2-2.1-20-5.4-29.4-10-1.5-.6-3.1 2-1.3 2.8z"/><path d="m162.6 834.7c24.5 22.9 54.4 39.4 86.9 47.9 1.9.5 2.7-2.4.8-2.9-32-8.3-61.4-24.5-85.6-47.1-1.4-1.3-3.5.8-2.1 2.1z"/><path d="m247.4 882.1c-12.5 15-31.5 21-49.6 26.4-1.5.5-1.3 2.3 0 2.9 33.1 13.9 69.7 17.6 104.9 10.7-.6-.7-1.1-1.5-1.7-2.2-14.2 22.9-39.1 35.1-62.6 46.4-1.4.7-.7 2.8.8 2.8 22.1-.1 44.3.5 66.3-.6 19.3-.9 38.7-4.1 55.6-14.2 1.7-1 .1-3.6-1.5-2.6-17.4 10.4-37.5 13.2-57.5 13.9-20.9.8-41.9.4-62.9.4.3.9.5 1.9.8 2.8 24-11.5 49.2-24.1 63.7-47.5.7-1.2-.5-2.4-1.7-2.2-34.7 6.7-70.7 2.9-103.3-10.7v2.9c18.5-5.5 38.1-11.7 50.9-27.2 1.1-1.4-1-3.5-2.2-2z"/><path d="m355.6 956c-4.9 15.4-12.1 29.9-21.4 43-4.5 6.3-9.7 11.9-14.8 17.7-2.6 3-4.8 7.2-.6 9.9 4.5 2.9 12.4 1 17.3.4 7.2-.9 14.2-2.3 21.2-4.3 14.8-4.3 28.8-11.2 41.3-20.3 1.6-1.1.1-3.7-1.5-2.6-11.2 8.1-23.5 14.4-36.6 18.7-6.2 2-12.5 3.6-19 4.7-3.8.6-7.6 1.1-11.4 1.4-2.3.2-8 1.4-9.9-.6-2.8-2.9 3.9-8.1 5.8-10.1 2-2.3 4-4.7 5.9-7.1 3.7-4.7 7.2-9.6 10.3-14.7 6.9-11.1 12.2-23 16.2-35.4.6-1.8-2.2-2.6-2.8-.7z"/><path d="m395.1 1003.4c-2.8 20.7-11.3 40-24.7 56-.8.9-.3 2.6 1.1 2.6 32.1-1.4 62.8-15.1 85.3-38 1.4-1.4-.8-3.5-2.1-2.1-21.9 22.4-51.8 35.8-83.2 37.2.4.9.7 1.7 1.1 2.6 13.8-16.4 22.6-36.1 25.5-57.3.2-2.1-2.7-3-3-1z"/><path d="m452 1025.6c.2 19.6-5.7 38.5-16.9 54.6-.6.8 0 2 .9 2.2 29.7 8.6 59.3-6.9 82.1-24.8 1.5-1.2-.6-3.3-2.1-2.1-22 17.3-50.6 32.3-79.2 24 .3.7.6 1.5.9 2.2 11.5-16.5 17.5-36 17.3-56.1-.1-1.9-3.1-1.9-3 0z"/><path d="m515.7 1060.5c.6 23.7-5.2 47-16.9 67.7-.6 1.1.4 2.6 1.7 2.2 29.1-9.5 55-27 74.7-50.5 1.2-1.5-.9-3.6-2.1-2.1-19.4 23.1-44.8 40.3-73.4 49.7.6.7 1.1 1.5 1.7 2.2 12-21.1 18-44.9 17.3-69.2-.1-1.9-3.1-1.9-3 0z"/><path d="m573.7 1080.5c1.6 25.8-1.5 51.6-9.2 76.3-.4 1.2.8 2 1.8 1.8 27.3-4.8 52.6-17.7 72.6-36.9 1.4-1.3-.7-3.5-2.1-2.1-19.7 18.9-44.5 31.4-71.3 36.1l1.8 1.8c7.8-24.9 11-51 9.3-77.1-.1-1.8-3.1-1.8-2.9.1z"/><path d="m640.6 1120.8c1 20.8-4.1 41.3-14.9 59.2-.8 1.3.8 2.7 2.1 2.1 27.5-14.1 55.1-28.6 79.3-48.1 20.8-16.8 38.2-37.3 53-59.5 30.3-45.5 49.9-96.8 75.1-145 28.8-55.1 68.7-103.4 109.8-149.7 41.2-46.6 86.7-90.3 139.7-123.2 52.5-32.6 112.9-54.9 175.2-56.3 7.5-.2 15 0 22.5.4 1.9.1 1.9-2.9 0-3-61.1-3.4-121.5 13.7-175 42.3-54.3 29-101.2 69.8-143.2 114.3-21.5 22.8-41.8 46.7-61.6 71-20 24.6-39.5 49.7-55.7 77-28.2 47.5-47.6 99.5-75 147.4-13.5 23.6-29.2 46.2-48.4 65.6-22.2 22.3-49.1 38.9-76.7 53.6-6.8 3.6-13.7 7.2-20.6 10.7.7.7 1.4 1.4 2.1 2.1 11-18.3 16.3-39.3 15.3-60.7-.1-2.1-3.1-2.1-3-.2z"/><path d="m1278.9 597.8c16.8 8.2 27.4 24.9 31.2 42.9 4.7 22.4-1.1 45.6-8.8 66.7-15.1 40.7-39 77.3-56.6 116.9-16.3 36.7-27.8 77.8-19.7 118.1 3.2 15.9 9.9 32.8 24.2 41.8 14.8 9.3 33.8 7.7 49.6 1.9 32.1-11.8 53.8-41.3 67.9-71.2 17.5-37.1 26.9-78.4 29.2-119.3 2.5-45-7.6-88.7-10.6-133.4-3-46.2-4-92.7-4.7-139-.6-42.5-1-85.5 3.8-127.8 4.1-36.8 12.9-74.1 32.9-105.8 5-8 10.8-15.5 17.1-22.4 1.3-1.4-.8-3.6-2.1-2.1-50.8 55.7-54 137-54.8 208.4-.5 45.7 1 91.5 2.6 137.2.8 22.8 1.5 45.6 3.6 68.4 2.1 22.3 6.1 44.4 8.2 66.8 4.1 43-.2 86.7-12.8 128.1-10.6 34.8-26.7 71.2-55.6 94.6-14 11.4-31.9 19.5-50.1 19.3-21.4-.3-35.7-14.4-42.2-33.9-13.5-40.4-2.1-85.2 14-123 16.4-38.4 39.2-73.7 55.1-112.4 13.9-34 24.4-77-1.3-108.4-5.1-6.2-11.3-11.2-18.5-14.7-1.8-1.2-3.3 1.4-1.6 2.3z"/><path d="m926.9 799.8c-13.1 27.3-26.1 59.7-15.7 90.1 8.5 24.9 31 40.7 53.9 51.4 28.4 13.2 59.3 22 89.6 29.7 33.1 8.4 66.7 14.4 100.7 18 38.8 4.2 77.8 5.1 116.7 3 1.9-.1 1.9-3.1 0-3-65.6 3.6-131.5-1.7-195.7-15.9-31.4-6.9-62.5-15.8-92.5-27.1-23.7-8.9-49.2-21.2-63.2-43.3-20.3-31.8-5.9-70.3 8.9-101.2.7-2-1.9-3.5-2.7-1.7z"/><path d="m1020.1 519.7c42.9-74.1 33.6-163.7 60.2-243.1 7.5-22.5 18.1-44 32.9-62.7 1.2-1.5-.9-3.6-2.1-2.1-53.4 67.4-47.9 158.2-67.1 237.7-5.8 24-14 47.3-26.4 68.7-1.1 1.7 1.5 3.2 2.5 1.5z"/><path d="m1112 213c2.5 12.5 6.6 24.5 12.1 35.9.4.8 1.8 1 2.4.3 12.7-15.5 29.2-27.2 48-34-.6-.6-1.2-1.2-1.8-1.8-3.3 15.2-.6 30.8 7.7 43.9.6.9 1.6.9 2.4.3 15.7-12.9 31.5-25.9 47.2-38.8-.8-.1-1.6-.2-2.4-.3 7.6 15.7 15.2 31.3 22.8 47 .4.9 1.7.9 2.4.3 14.1-13 27.6-26.8 40.2-41.2-.8-.1-1.6-.2-2.4-.3 9.2 14.8 16.1 30.8 20.6 47.7.3 1.3 2.1 1.4 2.7.4 13.5-21.8 34.8-37.8 59.5-44.7-.6-.6-1.2-1.2-1.8-1.8-5.4 22.6-7.5 45.8-6.3 69.1.1 1.3 1.6 1.9 2.6 1.1 18.2-16.5 41.3-26.6 65.8-28.7 1.9-.2 1.9-3.2 0-3-25.3 2.3-49.1 12.6-67.9 29.6.9.4 1.7.7 2.6 1.1-1.3-23 .8-45.9 6.2-68.3.3-1.1-.7-2.2-1.8-1.8-25.4 7.2-47.3 23.7-61.3 46.1.9.1 1.8.2 2.7.4-4.6-17.1-11.6-33.3-20.9-48.4-.5-.8-1.7-1.1-2.4-.3-12.7 14.5-26.1 28.2-40.2 41.2.8.1 1.6.2 2.4.3-7.6-15.7-15.2-31.3-22.8-47-.5-.9-1.7-.9-2.4-.3-15.7 12.9-31.5 25.9-47.2 38.8l2.4.3c-7.9-12.4-10.6-27.2-7.4-41.6.2-1-.7-2.3-1.8-1.8-19.3 7-36.3 18.9-49.3 34.8l2.4.3c-5.4-11.2-9.3-23-11.8-35.2-.7-2.3-3.6-1.5-3.2.4z"/><path d="m1088.6 367.1c46.1 7.4 92.3 14.7 138.4 22.1 1.9.3 2.7-2.6.8-2.9-46.1-7.4-92.3-14.7-138.4-22.1-1.9-.3-2.7 2.6-.8 2.9z"/><path d="m1316.6 385.5c-1.6 8.4-2.7 16.8-3 25.4-.1 1.9 2.9 1.9 3 0 .4-8.3 1.3-16.5 2.9-24.6.3-1.9-2.6-2.7-2.9-.8z"/><path d="m1330.6 390.7c1.6-2 3.3-3 5.8-3.4-.6-.5-1.3-1-1.9-1.4 1 8.3-2.2 16.3-9.1 21.3-.5.4-.9 1-.7 1.7 1.1 4.1 4 8.2 8.7 8.3 4.2.1 7.6-3.4 7.2-7.6-.2-1.9-3.2-1.9-3 0-.6 1.3-1.3 2.7-1.9 4-2.5 1-4.4.6-5.7-1.2-1.4-1.2-2-2.6-2.4-4.4-.2.6-.5 1.1-.7 1.7 7.6-5.6 11.7-14.4 10.6-23.9-.1-1.1-.9-1.6-1.9-1.4-3 .4-5.3 1.7-7.2 4.1-1.1 1.6 1 3.8 2.2 2.2z"/><path d="m1364.7 392.9c-1.3-4.1-5.6-5.9-9.6-4.3-3.4 1.3-9.7 7.1-7.8 11.2.8 1.6 2.3 2 3.9 2.4 3.9 1 6.8 1.1 8.4 5.4 3.8 10.6-12.2 12.9-14.1 3-.4-1.9-3.2-1.1-2.9.8 1.7 9.1 16.1 12.5 19.8 3 1.6-4 .4-9-2.6-12-1.6-1.6-3.3-2.1-5.4-2.8-2.4-.8-4.4-1.1-3.1-3.9 1.4-3.1 8.5-7.9 10.4-2 .7 1.9 3.6 1.1 3-.8z"/><path d="m1352.8 377.2c.5 4.1 1.1 8.3 1.6 12.4.2 1.9 3.2 1.9 3 0-.5-4.1-1.1-8.3-1.6-12.4-.2-1.9-3.3-1.9-3 0z"/><path d="m1351.6 423.3c.5 3.7.1 7.3-1.1 10.8-.6 1.8 2.3 2.6 2.9.8 1.3-3.8 1.7-7.7 1.2-11.6-.2-1.9-3.2-1.9-3 0z"/><path d="m1075.3 435.1c16.9 1.2 33.4 4.5 49.4 9.9 1.8.6 2.6-2.3.8-2.9-16.3-5.5-33.1-8.8-50.2-10-2-.2-2 2.8 0 3z"/><path d="m1150.9 448.4c33.3 8.9 67.1 16 101.1 21.3 1.9.3 2.7-2.6.8-2.9-34.1-5.4-67.8-12.5-101.1-21.3-1.9-.5-2.7 2.4-.8 2.9z"/><path d="m1306.2 476.4c-.9-4.5-.2-9 2.3-12.9 1.7-2.6 6.3-5.2 8.4-1.8 1.1 1.9 1.6 4.4 1.7 6.5.2 3.9-.8 9-4.8 10.6-3.4 1.4-8.4-.4-8.4-4.5 0-1.9-3-1.9-3 0-.1 5.5 5.6 8.7 10.6 7.8 6.9-1.2 9.1-9.1 8.4-15.2-.6-5.1-3.9-12.9-10.5-9.9-7.1 3.3-9.1 13.2-7.7 20.1.5 2 3.4 1.2 3-.7z"/><path d="m1327 482.1c1.9 0 1.9-3 0-3s-1.9 3 0 3z"/><path d="m1327.4 479.4c0-.2.1 0 0 0-.3.4-.2.4-.5.6-.1.1 0 .1-.1 0-.2-.1 0 0 .1 0s.1 0-.1 0h.1s.2.1 0 0c0 0 .2.1.2.1s-.3-.3-.2-.1c.1.1-.1 0 0-.1 0-.1 0 .2 0 .2-.1.2-.2.4-.3.5-.3.5-.8.9-1.3 1.2h2.1c-.4-.4-.6-1.1-.4-1.6.3-.7.2-1.6-.5-2.1-.6-.4-1.7-.2-2.1.5-.8 1.8-.5 3.8.9 5.3.6.6 1.5.5 2.1 0 .9-.8 1.9-1.7 2.3-2.9s.1-2.5-.9-3.3c-1.6-1.3-4.6-.8-4.5 1.7.2 1.9 3.2 1.9 3.1 0z"/><path d="m1341.1 461c4-.6 7.9-.3 11.7.8 1.9.5 2.7-2.4.8-2.9-4.4-1.3-8.8-1.5-13.3-.8-1.9.3-1.1 3.2.8 2.9z"/><path d="m1339.3 461.9c0 3.2-.4 6.3-1.2 9.4-.3 1 .5 1.9 1.4 1.9 4.3.1 10.5 3.7 9 9-1.1 3.9-6.6 5.5-9.3 2.5-1.3-1.4-3.4.7-2.1 2.1 4 4.5 11.7 2.5 14-2.9 3.2-7.4-4.9-13.6-11.5-13.7.5.6 1 1.3 1.4 1.9 1-3.4 1.4-6.6 1.4-10.2-.2-1.9-3.2-1.9-3.1 0z"/><path d="m1060 490.4c56 10.5 111.4 24.2 165.8 41.1 1.8.6 2.6-2.3.8-2.9-54.4-16.9-109.8-30.7-165.8-41.1-1.9-.3-2.7 2.6-.8 2.9z"/><path d="m1306 540.8c1-3.5 1.4-6.9 1.3-10.5-.1-1.9-3-1.9-3 0v20.1c0 1.9 3 1.9 3 0 0-6.7 0-13.4 0-20.1-1 0-2 0-3 0 .1 3.4-.2 6.5-1.2 9.8-.5 1.8 2.4 2.6 2.9.7z"/><path d="m1326.6 551.3c-2.2-2.8-3.3-6-3.1-9.6.3-4.3 3.2-11.1 8.6-9.2 5.2 1.8 4.8 8.6 3.5 12.9-1.2 4-6.8 11.9-11.2 5.9-1.1-1.5-3.7 0-2.6 1.5 3.7 5 10.4 3.9 14-.8 3.8-5.1 5.6-14.4 1.2-19.6-4.1-4.9-10.3-4-13.8 1-4 5.9-3.5 13.9.8 19.4 1.2 1.5 3.8 0 2.6-1.5z"/><path d="m1350.6 527.1c.8 2.5 1.5 5 2.3 7.5.6 1.8 3.5 1.1 2.9-.8-.8-2.5-1.5-5-2.3-7.5-.6-1.8-3.5-1-2.9.8z"/><path d="m1362.1 538c0-8.4-12-4.6-14 .9-1.1 3.1 1.8 4.5 4.3 5.1 2.7.6 5.5 2.4 4.5 5.7-1 3.4-5.5 3.2-7.4.9-1.3-1.5-3.4.7-2.1 2.1 3.8 4.5 12 2.9 12.7-3.4.3-2.7-1-5.6-3.3-7-1.3-.9-3-.7-4.3-1.4-1.4-.1-1.6-.7-.5-2 .5-.5 1-.9 1.5-1.3 1.3-1 5.8-3.3 5.8.4-.2 1.9 2.8 1.9 2.8 0z"/><path d="m1351.7 556.6v6.2c0 1.9 3 1.9 3 0 0-2.1 0-4.2 0-6.2 0-1.9-3-1.9-3 0z"/><path d="m759.5 517.4c48.1 7.8 95.5 19 142.1 33.4 1.8.6 2.6-2.3.8-2.9-46.5-14.4-94-25.5-142.1-33.4-1.9-.3-2.7 2.6-.8 2.9z"/><path d="m980 572.5c17.9 4.8 35.4 10.8 52.6 17.8 1.8.7 2.6-2.2.8-2.9-17.2-7-34.7-13-52.6-17.8-1.9-.5-2.7 2.4-.8 2.9z"/><path d="m1089.9 592.4c.9-1.5 1.9-1.5 3 0 2.9 1.1 2.4 2.7-1.5 4.7-1.4.7-3.1.5-4.6.4-1.7-.1-2.1 2.6-.4 2.9 4.4.9 5.5 6 3.1 9.4-1.6 2.4-4.5 3.8-7.3 4.5-6.3 1.6-17.1-2.5-13-10.7.9-1.7-1.7-3.2-2.6-1.5-5.6 11.3 8.5 17.8 17.7 14.7 4.4-1.5 8.8-4.8 9.4-9.7.6-4.5-2.2-8.8-6.7-9.7-.1 1-.3 2-.4 2.9 4.8.2 11.7-2 10.6-8.1-.3-1.8-1.5-3.8-3.2-4.5-2.8-1.3-4.3.6-6.4 2.3-1.3 1.6.8 3.7 2.3 2.4z"/><path d="m1124.9 591.1c-.3 1.9-1.4 3.3-3.1 4.1-.7.3-.9 1.4-.5 2.1.4.8 1.3.9 2.1.5 2.3-1.1 4.1-3.3 4.5-5.8.1-.8-.2-1.6-1-1.8-.8-.3-1.8.1-2 .9z"/><path d="m1131.4 601.5c-5.8-6.9-17-6.8-22.7.2-.7.9-.5 2.2.7 2.5 3.9 1.1 7 2.9 10 5.7-.1-.6-.2-1.2-.2-1.8-3.4 4.8-9.3 6.6-14.9 4.7-1.8-.6-2.6 2.3-.8 2.9 6.9 2.3 14-.2 18.2-6.1.4-.5.2-1.4-.2-1.8-3.3-3.1-7-5.2-11.3-6.5.2.8.4 1.7.7 2.5 4.8-5.8 13.6-5.9 18.5-.2 1.1 1.5 3.2-.6 2-2.1z"/><path d="m1106.6 612.9c-3 2.8-6.1 5.6-9.1 8.3-1.4 1.3.7 3.4 2.1 2.1 3-2.8 6.1-5.6 9.1-8.3 1.5-1.3-.6-3.4-2.1-2.1z"/><path d="m614.9 627.1c64.9 24.5 130.2 47.6 196.1 69.2 18.6 6.1 37.3 12.1 56 18 1.8.6 2.6-2.3.8-2.9-66.1-20.8-131.8-43.1-197-66.8-18.4-6.7-36.8-13.5-55.2-20.5-1.7-.6-2.5 2.3-.7 3z"/><path d="m559.3 714.2c77 24.1 153.3 50.3 228.8 78.6 1.8.7 2.6-2.2.8-2.9-75.6-28.3-151.9-54.5-228.9-78.6-1.8-.6-2.6 2.3-.7 2.9z"/><path d="m858.6 787.1c-10.1.3-21.4 5.8-28.7 12.8-4.5 4.4-6.9 13.9.7 16.7 5.6 2.1 15.9-1 15.8-8.1-.1-3.2-2.4-5.9-5.3-7.1-4.8-2.1-10 .1-14.4 2.1-1.8.8-.2 3.4 1.5 2.6 3.2-1.4 7.1-3.4 10.8-2.3 3.6 1 4.7 3.5 3.3 7.6-1.1 1-2.3 1.8-3.7 2.2-2.5.8-6.5 1.3-8.6-.8-2.7-2.8-1.1-7.1 1-9.6 3-3.6 7.9-6.1 11.9-8.3 5-2.7 10-4.5 15.7-4.7 1.9-.1 1.9-3.1 0-3.1z"/><path d="m879.8 793.5c-2.5 2.5-5 5-7.4 7.5-1.4 1.4.8 3.5 2.1 2.1 2.5-2.5 5-5 7.4-7.5 1.3-1.3-.8-3.4-2.1-2.1z"/><path d="m881.9 806.7c-4.9-2.9-10.4-4.3-16.2-3.6-3.2.4-9.6 1.5-11.1 5-1.7 3.8 3.3 5.7 5.6 7.4 3.6 2.5 8.2 7.7 2.6 11.2-4.9 3.1-10.1-1-13.2-4.5-1.3-1.4-3.4.7-2.1 2.1 3.5 3.8 8.5 7.5 14.1 6.1 4.1-1 7.5-4.6 7-9-.7-5.5-5.7-6.6-9-10-2-2.1-1.2-3.2 1.4-4.1 2.3-.9 4.7-1.3 7.1-1.4 4.4-.1 8.6 1.1 12.3 3.4 1.6 1 3.1-1.6 1.5-2.6z"/><path d="m852.4 829.8c-2.5 2.9-5 5.8-7.5 8.7-1.3 1.5.9 3.6 2.1 2.1 2.5-2.9 5-5.8 7.5-8.7 1.3-1.5-.8-3.6-2.1-2.1z"/><path d="m411.2 808.9c78.4 59.9 164.8 109.1 256.2 146 25.9 10.5 52.2 19.9 78.8 28.4 1.8.6 2.6-2.3.8-2.9-94-29.9-183.9-72.4-266.6-126.3-23.2-15.1-45.7-31-67.7-47.8-1.5-1.1-3 1.5-1.5 2.6z"/><path d="m379.3 856.4c24.5 25 52.6 46.2 83.5 62.8 1.7.9 3.2-1.7 1.5-2.6-30.6-16.4-58.6-37.4-82.9-62.3-1.3-1.4-3.5.7-2.1 2.1z"/><path d="m655 986.6c6.6 1.8 13.2 3.6 19.8 5.3 1.9.5 2.7-2.4.8-2.9-6.6-1.8-13.2-3.6-19.8-5.3-1.9-.5-2.7 2.4-.8 2.9z"/><path d="m653.8 985.7c-2.9 4.4-5.3 8.9-7.3 13.8-.5 1.3 1.2 2.2 2.2 1.7 5.4-2.9 6.3 4.1 5.6 7-.6 2.5-2.2 4.5-4.3 5.9-4.7 3.1-10.7 1.7-14-2.8-1.1-1.5-3.8 0-2.6 1.5 5.5 7.3 16.3 8.2 21.9.3 2.4-3.4 3.4-8.4 1.1-12.1-2-3.4-5.8-4.2-9.2-2.4.7.6 1.5 1.1 2.2 1.7 1.9-4.6 4.2-8.9 7-13 1.1-1.7-1.5-3.2-2.6-1.6z"/><path d="m687.1 999.8c-3.7 2.9-8.3 5.7-11.6 9.2-1.3 1.4-2 2.9-.6 4.5 1.9 2.1 6.3 3.1 8.9 3.7 4.1 1 8.4 1.2 12.6.7 1.9-.2 1.9-3.2 0-3-5.3.6-13 .6-17.6-2.6-1.4-1-1.4-.3-.6-1.7.6-1 2.3-1.8 3.2-2.5 2.6-2 5.1-4.1 7.7-6.1 1.7-1.3-.5-3.4-2-2.2z"/><path d="m701.6 1005.4c-8.3 10-16.6 19.9-24.9 29.9-1.2 1.5.9 3.6 2.1 2.1 8.3-10 16.6-19.9 24.9-29.9 1.2-1.4-.9-3.6-2.1-2.1z"/><path d="m730.3 1005.5c-2.5 2.9-4.9 5.9-7.4 8.8-1.2 1.5.9 3.6 2.1 2.1 2.5-2.9 4.9-5.9 7.4-8.8 1.3-1.5-.8-3.6-2.1-2.1z"/><path d="m733.6 1021.6c-3.9-3.9-9.3-5.7-14.8-4.9-3.5.5-11.2 3.4-10.9 8 .1 1.6 1 2.4 2.4 3 4.5 2.1 10.5.9 9.9 8.3-.9 11.3-16.5 11.1-22 3.8-1.1-1.5-3.7 0-2.6 1.5 6.9 9.2 24.1 9.4 27.4-3.3 1.4-5.6-1.9-11.1-7.5-12.4-1.6-.3-4.7.1-3.4-2.6 1-1.9 4.9-2.9 6.9-3.3 4.6-.8 9.2.6 12.5 4 1.4 1.4 3.5-.7 2.1-2.1z"/><path d="m699.9 1046c-.9 2.5-1.8 5-2.6 7.4-.6 1.8 2.3 2.6 2.9.8.9-2.5 1.8-5 2.6-7.4.6-1.9-2.3-2.7-2.9-.8z"/><path d="m465.5 895.2c38.7 28.1 78.9 54.2 120.4 78 1.7 1 3.2-1.6 1.5-2.6-41.5-23.8-81.7-49.9-120.4-78-1.6-1.1-3.1 1.5-1.5 2.6z"/><ellipse cx="653" cy="147.5" fill="#fff" rx="40.8" ry="45.4" stroke="#000" stroke-miterlimit="10" stroke-width="2"/><ellipse cx="662.2" cy="147.5" fill="#fff" rx="40.8" ry="45.4" stroke="#000" stroke-miterlimit="10" stroke-width="2"/><path d="m661.4 115.5c0 4.2 0 8.4.1 12.7 0 1.9 3 1.9 3 0 0-4.2 0-8.4-.1-12.7 0-1.9-3-1.9-3 0z"/><path d="m674.9 127.5c-6.9-1.7-14.5-1.7-20.3 3-4.3 3.5-7.9 10.4-3.9 15.4 4.9 6 13.3 2.4 19.7 4 9.3 2.3 5.5 11.6-1 14.8-4.9 2.4-10.4 2.2-14.8-1.1-1.5-1.2-3 1.4-1.5 2.6 5.4 4.1 12.6 3.9 18.4.8 5-2.7 10-8.8 7-14.7-3.3-6.4-11.1-5.5-17.1-5.6-2.7 0-7.6-.3-8.9-3.3-1.7-4 1.1-8.2 4.1-10.6 5-4 11.6-3.9 17.5-2.4 1.9.5 2.7-2.4.8-2.9z"/><path d="m663.8 169v9.1c0 1.9 3 1.9 3 0 0-3 0-6.1 0-9.1 0-1.9-3-1.9-3 0z"/><path d="m642.5 69c4.8 7.8 9.6 15.6 14.4 23.3.7 1.1 2.4.9 2.7-.4 5.2-17.7 11.8-34.9 19.8-51.6.8-1.7-1.8-3.3-2.6-1.5-8.1 16.9-14.8 34.3-20.1 52.3.9-.1 1.8-.2 2.7-.4-4.8-7.8-9.6-15.6-14.4-23.3-.9-1.6-3.5-.1-2.5 1.6z" fill="#606060"/><path d="m616 233.7c-2.2 1.1.3 10.8 2 16 2.2 6.5 6.5 15.8 15.9 25.6 1.1 4 3.2 9.9 7.5 15.9 4.6 6.5 9.7 10.1 14.4 13.5 3.8 2.8 9.2 6.2 16.3 9.2.4 3.8 1.4 12.5 1.9 16.4 13.1 114.8 5.8 44.6 11.7 94.8 2.1 18 2.8 25.2 6.4 36.3 4.6 14.2 10.7 25 15.3 31.9 2.9 1.1 6.9 2.5 11.9 3.7 3.2.7 16.3 3.6 33.9 1 19.9-3 33.9-11.2 54.4-23.3 16.6-9.8 27.5-18.6 35-24.7 16.9-13.8 22.3-21.1 24-23.5 6.3-8.9 8.8-16 12.9-27.5 3.9-10.8 4.2-15.6 2.4-20-1.9-4.6-5.4-7.4-8-8.9-4.6 1.2-10.3 2.9-16.9 5.3-6.7 2.5-15.4 6.2-24.6 11.4-4.3 2.4-10.8 6.4-26.4 18.6-25.1 19.7-27.9 24.8-41.4 32.4-10.4 5.9-19.8 9.1-25.8 10.8-1.1-3.6-2.9-9.2-5.5-15.9-5.5-13.9-8.6-16.8-12.5-26.8-3.4-8.5-4.7-16.1-7.2-31.2-2.1-12.3-3.3-19.6-3.4-30-.2-15.2-.2-22.8 1.9-32.3 1.2-5.4 2.8-10.5.9-16.9-.7-2.4-2.9-5.4-7.2-11.2-4.7-6.4-9.9-12.4-14.1-19-4.7-7.4-6.2-11.5-10.5-12.3-2-.4-4.7 0-6 1.6-2.2 2.6-.9 8.4 4.2 13.8-3.3-.7-8.2-2.1-13.2-5.4-5.6-3.6-8.7-7.8-14.4-15.6-3.6-4.9-9.3-13.3-12.2-17.6-4.1-6-6.3-9.5-8.3-9-1.9.4-2.7 4.5-3 7.4-.5-.3-4.1-2.4-6.2-1.1-2.2 1.4-2.6 6.5.8 11.9-2.7-3-5.5-6-6.9-5.3z" fill="#fff"/><path d="m672.4 317.6c.5 5.2 1.3 12.2 2.5 20.5 3 20 6.7 36.2 11.4 53.9 11.4 43.7 17.4 65.7 26.6 74 1.8 1.7 18.2 16 40.8 15.7 18.5-.3 31.2-10.4 51.7-27 35.3-28.7 58.6-47.8 72.6-59.3-.5 5.5-1.9 13.7-6.2 22.4-4.3 8.8-10 15-18.3 22.4-11.4 10.2-23.2 17.6-46.2 32-20.6 12.9-31 19.4-38 21.7-21.5 7.3-37.3 5.2-40.7 4.7-9.8-1.4-17.5-4.5-22.5-7-2.7-4.4-6.5-11-10.1-19.6-8.1-19.2-9.7-35.4-10.6-43.6-2.7-24.4-7.4-62.4-13-110.8z" fill="#9b9797" opacity=".18"/><path d="m740 449.5c12.8-2.7 23.9-9.7 34.5-17.1 12.1-8.5 24.1-17.2 35.9-26.2 22.1-16.8 46.6-39 76.6-34.6 1.9.3 2.7-2.6.8-2.9-27.8-4.1-50.9 13.3-71.6 29.3-12.7 9.8-25.5 19.3-38.6 28.6-11.8 8.4-23.9 16.9-38.3 20-2 .5-1.2 3.3.7 2.9z"/><path d="m741.1 451c-2.4-12.1-8.9-22.7-13.8-33.9-5.3-12.2-9.3-25-12-38-5.4-26.1-5.3-53.2.1-79.3.4-1.9-2.5-2.7-2.9-.8-5.3 25.5-5.6 51.9-.8 77.5 2.5 13.2 6.3 26.2 11.5 38.6 5.1 12.2 12.4 23.7 15 36.8.4 1.8 3.3 1 2.9-.9z"/><path d="m713.9 300.6c2.4-7.5-5.1-14.5-9.2-20-6.2-8.3-12.2-16.9-18.6-25.1-2.9-3.7-7.2-6.3-11-1.9-4.6 5.4-.1 11.6 3.8 15.9 1.3 1.4 3.4-.7 2.1-2.1-1.6-1.8-4.3-4.4-4.6-6.9.2-1.4.4-2.8.5-4.2 1.7-.3 3.4-.6 5.2-.9.9.4 2 2.5 2.6 3.3 3.3 4.4 6.6 8.9 9.9 13.3 3.1 4.2 6.2 8.4 9.3 12.5 3 4.1 8.9 9.8 7.2 15.4-.7 1.8 2.2 2.6 2.8.7z"/><path d="m672.8 312.5c-10.2-5.1-21-10.7-28.3-19.7-9.3-11.4-8.8-28.1-9.9-42.1-.3-3.3-.6-6.7-.7-10 0-1.7 0-3.4.1-5.1.1-.7.9-6.9 1.9-7.3 3.2-1.3 5.3 17.9 5.5 19.7 1.5 10.7 3.9 22 12.9 29 1.5 1.2 3.6-.9 2.1-2.1-13.8-10.7-10.5-29.9-15.3-44.8-1-3.1-3.1-8.3-6.9-4.7-4.4 4.2-3.5 14.2-3.1 19.4.6 9.4 1.5 18.7 2.7 28 .8 6.5 2.3 12.7 5.9 18.3 7.4 11.3 20 18 31.7 23.9 1.6 1 3.1-1.6 1.4-2.5z"/><path d="m636.7 276.4c-7.4-9.1-15.1-18.5-18.2-30.1-.7-2.7-1.7-6.3-1.3-9.2.2-1.3-.3-2.1 1.5-1.7.8.2 2.2 3.4 2.7 4.1 3.4 5.2 6.8 10.3 10.1 15.5 1.1 1.6 3.7.1 2.6-1.5-2.7-4.1-5.3-8.1-8-12.2-1.9-2.8-4-8.4-7-10.2-4.4-2.8-4.9 3.3-4.9 6.2 0 16.2 10.6 29.5 20.3 41.3 1.3 1.4 3.4-.7 2.2-2.2z"/><path d="m625.9 240.3c-.8-1.9-1.5-3.9-2-5.9-.2-.9-1.7-5.6-.9-6.2s7.3 8.1 8 9c1.2 1.5 3.3-.6 2.1-2.1-2.2-2.7-4.3-5.6-6.7-8.2-1.3-1.5-3.4-2.8-5.3-1.3-1.5 1.2-1.3 3.3-1.1 5 .5 3.6 1.5 7.1 2.9 10.4.9 1.8 3.8 1 3-.7z"/><path d="m631.5 232.8c.1-2.1-.7-3.9-1.3-5.9-.3-.9-.6-1.8-.5-2.8.1-.6.1-1.1.6-1.5.1-.1 1.8-.8 1.5.2-.5 1.9 2.4 2.7 2.9.8.9-3.5-3.6-5.7-6.3-3.6-4.2 3.3.2 8.8 0 12.7 0 2 3 2 3.1.1z"/><path d="m635.7 224.5c7.9 20.2 22.6 36.9 41.6 47.3 1.7.9 3.2-1.7 1.5-2.6-18.3-10-32.6-26-40.3-45.5-.6-1.8-3.5-1-2.8.8z"/><path d="m670.1 314.8c5 33.8 9.3 67.7 13 101.6 2.9 26.9 6.1 55.3 22.9 77.6 1.1 1.5 3.8 0 2.6-1.5-17.7-23.4-20-53.6-23.1-81.7-3.6-32.3-7.7-64.6-12.4-96.7-.3-2-3.2-1.2-3 .7z"/><path d="m707.5 494.4c30.4 13.3 63.7 3.3 91-12.6 14.7-8.6 28.8-18.6 42.3-28.9 12.1-9.2 23.6-19.5 31.4-32.7 8.9-15.1 12.5-32.9 10.5-50.3-.2-1.9-3.2-1.9-3 0 1.7 15.2-.8 30.7-7.7 44.4-6.7 13.4-17.4 24-29 33.1-12 9.5-24.6 18.3-37.5 26.5-13.4 8.6-27.7 16.2-43.1 20.3-17.5 4.7-36.4 4.9-53.3-2.5-1.9-.6-3.4 1.9-1.6 2.7z"/><path d="m617.7 829.6c5.3 16.7 10.6 33.4 15.9 50.2-15 12.6-28.3 21-38.1 26.6-12 6.9-25.6 13.2-31.5 27-.8 2-3.5 8-1 10.7 2.5 2.8 9.2.7 14-1 18.2-6.5 32.5-15.1 37-17.8 22.2-13.2 25-10.8 51.3-26.7 7.4-4.5 13.4-8.5 17.4-11.2-1.3-6.3-3.3-15.1-5.8-25.5-2.8-11.7-5.7-23.7-10.4-38.9-2.2-7-5.2-16.4-9.3-27.5-13.2 11.3-26.3 22.7-39.5 34.1z"/><path d="m580.5 829.6c3 1.5 7.4 3.4 12.8 5 17 4.8 31.2 2.1 40.8.1 27.5-5.6 48.5-20.2 58.9-28.4-3.2-14.8-6.1-30.3-8.5-46.6-4.3-27.8-6.8-54-8.1-78.3 6.3 4.1 15.1 9.7 25.9 15.6 15.2 8.4 26.5 14.6 42 19.5 12.5 4 26.3 8.3 44.6 7 4.2-.3 22.4-1.8 42.6-13.2 9.2-5.1 37.1-20.7 46.4-52.7 2.3-8.1 6.3-21.7.9-35.5-8.3-21.4-35.6-34.9-68.4-33.7-8.4-3.5-22-9.2-38.8-16.5-27.5-11.9-39.5-17.7-60.7-25.6-29.8-11.2-40.5-12.6-47.6-13.2-10.8-.8-23.5-1.7-38.2 4.2-17.3 7-27 19.1-30.7 23.9-5.6 7.2-10.5 16-16.5 38.3-6.5 24.1-9.3 45-10.9 63.2-1.3 15.3-3.4 39.8-1.6 72.1 1.3 25.1 5.2 57.6 15.1 94.8z" fill="#fff"/><path d="m693.1 805.1c-7.5 5-15 10-22.5 15-.6-15-1-30.4-1.2-46.1-.4-37.9.7-74 2.8-108.3 7.5 4.1 18.3 9.5 31.7 14.8 17.1 6.7 41.1 16.2 69.6 17.6 14.8.7 45-.1 80.9-18.3-3.8 9.6-11.4 23.3-25.8 32-7.2 4.4-14 6.3-20.6 8.1 0 0-17.3 4.7-35.9 4.2-22.6-.6-60-14.3-97.1-45 6.1 42 12.1 84 18.1 126z" fill="#9b9797" opacity=".19"/><path d="m582 829.2c-17.7-66.1-20.7-135.8-8.4-203.1 5-27.1 11.5-58.7 34-77.1 25.6-21.1 61.4-16.2 90.4-5.9 18.9 6.7 37.2 15.1 55.7 23 18.6 7.9 37.3 15.8 55.9 23.7 1.8.7 3.3-1.8 1.5-2.6-34.2-14.5-68.2-29.8-102.8-43.4-28.5-11.2-61.8-19.2-90.8-4.8-26 12.9-37 41.5-43.2 68.1-7.9 34.2-11.5 69.5-11.3 104.6.2 39.9 5.6 79.8 15.9 118.3.7 1.8 3.6 1 3.1-.8z"/><path d="m580.3 831.3c39.1 18.7 80.7-1.8 113.5-23.8 1.6-1.1.1-3.7-1.5-2.6-31.8 21.2-72.5 41.9-110.5 23.8-1.7-.9-3.2 1.7-1.5 2.6z"/><path d="m694.6 804.7c-9.6-44.5-15.8-89.6-18.5-135.1-.1-1.9-3.1-1.9-3 0 2.8 45.7 9 91.1 18.6 135.9.4 1.9 3.3 1.1 2.9-.8z"/><path d="m675.6 682.5c23.2 15.3 48.7 29.3 75.3 37.7 24.9 7.9 51.5 6.1 74.9-5.8 1.7-.9.2-3.5-1.5-2.6-24 12.2-50.8 13-76.1 4.4-25.1-8.6-49-21.7-71.1-36.2-1.6-1.1-3.1 1.5-1.5 2.5z"/><path d="m619 838.5c5.6 13.5 10 27.4 13.2 41.6.2-.6.5-1.1.7-1.7-15.4 9.6-30.2 20.2-44.3 31.6-7.1 5.8-14.1 11.7-20.9 17.9-3.7 3.4-10.7 8.1-8.2 14s9.6 5.9 14.7 4c8.4-3.1 16.5-7.5 24.5-11.4 17.6-8.5 35-17.5 52.3-26.7 9.6-5.1 19.4-10 28.9-15.4 1.8-1 4.2-2.4 3-4.8-.7-1.5-2.2-1.7-3.6-.9-1.7 1-.2 3.6 1.5 2.6-1.2-.2-2.4.2-3.3 1-1.1.6-2.3 1.2-3.4 1.8-2.3 1.2-4.5 2.4-6.8 3.6-4 2.1-7.9 4.2-11.9 6.3-7.9 4.2-15.9 8.4-23.9 12.5-16.5 8.6-33.2 16.9-50 24.7-4.3 2-10.6 6.1-15.6 4.5-8.9-2.8-.1-10.3 3.1-13.3 6.8-6.2 13.7-12.2 20.8-17.9 14.1-11.5 29-22 44.4-31.7.6-.4.8-1 .7-1.7-3.2-14.3-7.6-28.2-13.2-41.6-.6-1.6-3.5-.8-2.7 1z"/><path d="m665 823.4c5.4 21.5 10.8 42.9 16.2 64.4.5 1.9 3.4 1.1 2.9-.8-5.4-21.5-10.8-42.9-16.2-64.4-.5-1.9-3.4-1.1-2.9.8z"/><path d="m903.8 348.7c-16.1 10-26 21.4-34 30.8-25.3 29.4-35.7 60.4-40.2 77.7-5.2 20.2-2.3 22.7-6.6 42.9-7 32.8-21.2 57.3-31.9 72.7 14.6 14.2 40.5 35.7 78.2 50.7 31.3 12.4 59.3 15.8 78.2 16.5 6.6-21 14.8-48.6 23.1-81.5 15.6-61.4 11.2-60.4 26.4-126.6 15.7-68 23-80.8 13.2-92.5-18.2-21.9-72.6-11.6-106.4 9.3z" fill="#03DAC5"/><path d="m696.4 849.9c6.6 14 13.3 28 19.9 42-8.5 8.1-15.1 15.6-20.1 21.6-14.5 17.7-22.5 32.6-24.1 35.8-3.5 6.6-6 12.4-7.7 16.6 5.1-1 12.5-2.9 20.8-6.5 13.7-6 22.6-13.5 28.7-18.7 15.5-13.3 33.7-29.1 54.1-47.5-3.9-7.8-7.7-15.9-11.5-24.3-7.4-16.4-13.9-32.3-19.7-47.7-13.5 9.6-27 19.2-40.4 28.7z"/><path d="m643.3 844c-4.4-8.5-9.8-19.6-15.2-32.6-6.3-15.1-14.1-35.7-20.7-60.9-7.5-28.5-11.2-54.1-13.1-75-2.7-30.3-4.3-47.6 1-71 3.8-16.5 8.1-34.4 23.6-49.4 14.6-14.2 31.5-18.4 39.9-20.4 22.7-5.3 41.1-.9 62.7 4.3 24 5.8 41.6 14.1 49 17.9 7.1 3.6 16.4 8.8 63.7 43.2 11.2 8.2 20.6 15.1 27.1 19.9 11.8 5.1 26 10.2 42.5 14 9.8 2.3 19 3.8 27.4 4.7-2 6.5-5.1 14.9-9.6 24.4-1.8 3.7-9 18.6-22.9 36.5-9 11.6-17.4 22.2-31.6 32.2-11.1 7.8-19.1 10.5-23 11.7-9.7 2.9-17.7 2.9-20.8 2.8-9.4-.2-18.4-2.5-33.1-9.5-14.4-6.8-26.4-14.4-40.7-24.6-10.9-7.8-25.3-18.8-41.6-33.1 3.2 9.8 6.7 19.7 10.5 29.8 12.2 32.9 25.7 63 39.7 90.5 0 4.1-.7 11.1-4.6 18.3-3.1 5.7-7.3 9.8-13.7 14.2-20.7 14.4-43.5 17.9-43.5 17.9-23.8 3.8-43.1-2-53-5.8z" fill="#fff"/><path d="m690.5 632.1c.5 13.6 1.4 27.7 3.1 42.4 7 62.9 24 116.7 42.6 159.9 2.8-1.3 12-5.8 17.4-16.5 4.2-8.2 3.9-15.9 3.7-19.2-14.6-36.5-29.2-73-43.9-109.5-7.7-19.1-15.3-38.1-22.9-57.1z" fill="#9b9797" opacity=".22"/><path d="m690.5 632.1c4.9 5.6 12.3 13.6 21.8 22.7 24.9 23.4 57.2 53.9 93.9 60.1 57.5 9.6 108-43.7 115.4-51.6-5.2 10.9-12.9 24.3-24.3 38.2-11.8 14.4-21.6 27.1-39.3 36.2-6.4 3.3-14.9 7.5-26.6 8.4-4.4.3-15.1.7-42.1-11.5-5.7-2.6-27-12.4-57.8-34.3-9.9-7-17.7-13.1-23-17.3-5.9-17.1-12-34-18-50.9z" fill="#9b9797" opacity=".22"/><path d="m644.6 843.3c-33-64.2-52.1-137.8-50.6-210.2.7-32.9 9.7-70 39.8-88.3 15.3-9.3 33.8-10.3 51.3-9.5 16.7.8 33.1 3.8 49.1 8.7 36.8 11.2 70.2 31.8 99 57.2 1.4 1.3 3.6-.8 2.1-2.1-26.1-23-55.8-42-88.5-54-16.2-5.9-33-10-50.1-11.9-17.4-1.9-36.5-2.4-53.1 3.6-31.2 11.3-46.9 44-51 75-2.5 18.7-1.8 37.7-.4 56.4s3.9 37.3 7.6 55.7c8.4 42 22.7 82.7 42.3 120.8.8 1.8 3.4.3 2.5-1.4z"/><path d="m689.1 632.5c19 57.3 41.6 113.4 67.8 167.9.8 1.7 3.4.2 2.6-1.5-26.1-54.2-48.6-110-67.5-167.1-.7-2-3.5-1.2-2.9.7z"/><path d="m642.9 846.6c23.4 11.3 50.1 6.5 73.6-2 20.1-7.3 46.3-20.7 42.1-46.4-.3-1.9-3.2-1.1-2.9.8 4.2 25.7-25.4 38-44.9 44.4-21.4 7.1-45.5 10.8-66.5.6-1.6-.8-3.2 1.8-1.4 2.6z"/><path d="m708 681.8c28.9 25.9 60.1 52.3 98.4 62.4 19.6 5.1 38.3 4.3 55.6-6.9 15.9-10.3 29.2-25.1 40.5-40.1 13.1-17.6 23.3-37.2 30.2-58 .6-1.8-2.3-2.6-2.9-.8-11.7 34.7-32.8 67.6-61.5 90.6-7.8 6.2-16.5 11.6-26.2 14-10.4 2.6-21.3 1.4-31.6-1-18.2-4.3-35.2-12.6-50.8-22.8-17.7-11.6-33.8-25.5-49.6-39.6-1.4-1.2-3.6.9-2.1 2.2z"/><path d="m695.1 850.7c6.6 14 13.3 28 19.9 42 .8 1.7 3.4.2 2.6-1.5-6.6-14-13.3-28-19.9-42-.9-1.8-3.5-.2-2.6 1.5z"/><path d="m715 892.2c-22.7 20.1-40.5 45.2-52.1 73.2-.7 1.8 2.2 2.6 2.9.8 11.4-27.6 29-52.1 51.4-71.9 1.4-1.2-.8-3.3-2.2-2.1z"/><path d="m663.8 966.7c9.3 3.4 18.7-3.9 26.3-8.5 9.8-6 19.3-12.4 28.6-19.2 18.1-13.4 34.9-28.4 50.4-44.7 1.3-1.4-.8-3.5-2.1-2.1-14.5 15.3-30.2 29.4-47 42.2-8 6-16.2 11.7-24.6 17.1-4.5 2.8-9 5.6-13.6 8.3-5.2 3-11 6.3-17.1 4.1-1.9-.8-2.7 2.1-.9 2.8z"/><path d="m741 832.1c6.8 21 15.2 41.3 25.2 60.9.9 1.7 3.5.2 2.6-1.5-9.9-19.4-18.2-39.5-24.9-60.2-.6-1.9-3.5-1.1-2.9.8z"/><path d="m901 197.6c-4.4 3.6-8.2 9.1-15.7 20.2-9.1 13.4-18.5 26.6-23.2 45.6-2 8.1-5.2 21.8-2.8 39.1 3.4 24.6 16 41.7 23 49.8 5-.4 10.7-1.1 16.8-2.5 8.5-1.8 15.9-4.3 21.9-6.8 2.2 4.8 4.8 9.9 7.8 15.1 4.7 8.3 9.6 15.5 14.2 21.8 2.7-2.4 6.7-6.1 11.3-10.9 10.2-10.8 14.3-18 19.7-25.1 16-21 24.4-16.4 35.1-32.9 9.6-14.8 10.4-30 10.7-37.1 1.5-27.9-11.4-47.7-15-53.2-4.5-6.8-13.4-19.6-30.1-27.9-22.9-11.5-54.1-11.3-73.7 4.8z" fill="#fff"/><path d="m969 239.2c-1.2 7-3.4 16.9-8.1 28.2-9.1 21.9-22.1 35.6-35.6 49.5-9.6 9.9-23.6 22.8-42.6 35.4 5.2-.4 10.9-1.2 16.9-2.5 21.5-4.9 37.6-14.9 48-23 2.5 5.2 5.2 10.4 7.9 15.7 3 5.8 6 11.5 9 17 2.3-4 6-10.2 11-17.5 9.6-13.8 14.7-17.9 24.8-31.2 11.3-14.7 16.9-22.1 18.9-30.2.9-3.7 6.9-27.3-8.5-40.2-10.5-9-27.4-9.6-41.7-1.2z" fill="#9b9797" opacity=".19"/><path d="m870 242.3c2.3-6.9 8-21.3 22.3-32.9 25.4-20.6 56.3-14.8 60.9-13.9.4 7.6 2.4 22.9 12.4 38.7 7.2 11.3 15.7 18.4 21.4 22.5 1.8 0 8.2 0 13.2 4.7 7.2 6.9 4.8 17.6 4.4 19.1-.5 2-1.7 7.2-6.4 11.1-9 7.6-21.7 2.9-22.2 2.7-2.2 2.8-5.5 7.6-7 14.1-2.1 8.9-.1 16.8 3 24.7 9.3 23.8 17.2 44.1 37 51.6 26.3 10 60.3-7.3 73.6-32.2 15.4-28.9-3.9-63.3-17.2-87.6-8.9-16.4-18.9-28.2-25.9-35.7-2-8.8-7.7-29-25.6-46.7-3.7-3.7-28.6-27.4-66.2-26.7-31.9.6-72.3 18.8-80.6 52.1-3.3 13.8 0 26.5 2.9 34.4z" fill="#461eb8"/><path d="m865.7 326.6c-1.2 6.5-2.3 16-1.1 27.4s3.1 29.2 13.4 36.5c12.6 9 37.8 2.4 59.5-18-4.7-10.2-9.4-20.4-14-30.6-5.6 2.4-12.2 4.8-19.7 6.8s-14.4 3.1-20.4 3.8c-5.9-8.7-11.8-17.3-17.7-25.9z" fill="#461eb8"/><path d="m891.2 208.3c-18.1 20.3-31.3 45.4-33.8 72.8-2.4 26.1 5.6 53.1 23.8 72.3 1.3 1.4 3.4-.7 2.1-2.1-17.7-18.6-25.3-44.8-22.9-70.1 2.4-26.5 15.4-51 32.9-70.6 1.3-1.6-.8-3.7-2.1-2.3z"/><path d="m882.8 353.7c39.3-2 74.1-25.8 94.6-58.7 1-1.6-1.6-3.1-2.6-1.5-20 31.9-53.8 55.3-92.1 57.2-1.8.1-1.9 3.1.1 3z"/><path d="m968.1 305.1c-1.6 11.7 0 23.2 4.9 34 .8 1.8 3.4.2 2.6-1.5-4.5-10-6.1-20.8-4.6-31.7.2-1.9-2.7-2.7-2.9-.8z"/><path d="m921.6 344c4.1 13.6 11.1 25.9 20.5 36.5 1.3 1.4 3.4-.7 2.1-2.1-9.1-10.2-15.8-22.1-19.8-35.2-.4-1.9-3.3-1.1-2.8.8z"/><path d="m943.4 381.3c7.6-2.8 13.1-8.3 17.9-14.6 6.2-8.2 11.5-17 16.2-26.1.9-1.7-1.7-3.2-2.6-1.5-4 7.6-8.3 15-13.2 22-5 7.1-10.6 14.2-19 17.3-1.9.7-1.2 3.6.7 2.9z"/><path d="m911.6 221.9c-13.9 20.1-24.4 42.2-31 65.7-.4 1.5 1.4 2.4 2.5 1.5 5.8-5.3 11.6-10.6 17.4-16 1.4-1.3-.7-3.4-2.1-2.1-5.8 5.3-11.6 10.6-17.4 16 .8.5 1.7 1 2.5 1.5 6.6-23.2 17-45.1 30.7-65 1.1-1.6-1.5-3.1-2.6-1.6z"/><path d="m879.9 302.2c6.5 4.6 14.2 2.9 20.9-.4 7.4-3.7 14.5-8.5 18.2-16.1.9-1.7-1.7-3.2-2.6-1.5-5.1 10.3-23.9 23.4-35 15.4-1.5-1.1-3 1.5-1.5 2.6z"/><ellipse cx="891.5" cy="234.2" rx="7.5" ry="2.4" transform="matrix(.3736 -.9276 .9276 .3736 341.1801 973.6035)"/><ellipse cx="935.8" cy="245.9" rx="7.5" ry="2.4" transform="matrix(.3736 -.9276 .9276 .3736 358.11 1022.0043)"/><path d="m893.8 214.8c3.9-3.6 10.3-4.3 13 1.1.9 1.7 3.4.2 2.6-1.5-3.5-7.2-12.5-6.6-17.7-1.7-1.4 1.3.7 3.4 2.1 2.1z"/><path d="m933.9 224.3c8-5.1 17.3-3.7 19.9 6.4.5 1.9 3.4 1.1 2.9-.8-3.1-11.9-14.6-14.3-24.3-8.2-1.6 1.1-.1 3.7 1.5 2.6z"/><path d="m931.1 263.4c1.9 0 1.9-3 0-3s-1.9 3 0 3z"/><path d="m943 260.6c1.9 0 1.9-3 0-3-2 0-2 3 0 3z"/><path d="m937.7 272c1.9 0 1.9-3 0-3-2 0-2 3 0 3z"/><path d="m875.3 252.3c1.9 0 1.9-3 0-3s-1.9 3 0 3z"/><path d="m883.6 252.8c1.9 0 1.9-3 0-3s-1.9 3 0 3z"/><path d="m878.3 261.6c1.9 0 1.9-3 0-3s-1.9 3 0 3z"/><path d="m987 258.2c12.9-.6 19.4 12 15.8 23.4-3.3 10.3-14.7 17.2-24.5 10.4-1.6-1.1-3.1 1.5-1.5 2.6 11.4 7.9 25.1-.1 28.9-12.2 4.1-13.3-3.8-27.9-18.6-27.2-2 .1-2 3.1-.1 3z"/><path d="m995 329.8c-6.2 3.5-9.9 8.6-13.9 15.8-10 18.2-13.2 35-14.2 39.9-10.1 52.7-7.2 30.3-11.1 55.5-2.9 18.8-6.4 43.9-9.6 73.9-3.3 6.4-7 14.7-9.7 24.9-3.1 11.6-3.7 20.8-4.1 27.5-2.6 45-1 46.9-3 71.2-1.1 13.7.4 27.5-1.4 41.1-.5 3.9-1.6 11.9 2.5 19.8.8 1.5 3.6 6.7 9.5 10.2 5.3 3.2 10.9 3.2 21.9 3.1 8.1-.1 14.6-.8 18.7-1.3 10.6-1.4 16.9-1.6 24-4.9 2.7-1.3 7.1-3.3 6.9-5.6-.1-.6-.6-2.3-8.4-4.6-4.4-1.3-10.7-2.7-18.6-2.9 1.2-1.6 3.2-3.7 6.1-5.5 1-.6 3.7-2.1 13.3-3.4 5.6-.8 8.7-1.2 13.1-1 7.5.2 9 1.7 13.7.5 2.8-.7 4.6-1.7 8.4-3.9 4.2-2.4 6.7-3.9 8.6-6.9 1.7-2.6 2.1-5.3 2.3-7-2.3-3.2-6.6-8.2-13.4-12-3.3-1.8-11.1-6.1-21-4.8-7 .9-11.8 4.1-16.2 7.2-6.5 4.4-10.8 9.4-13.4 12.9-6.5 1.4-13.1 2.9-19.6 4.3 6.5-32.3 12.2-59.7 16.6-80.7 6.1-28.8 13.5-63.9 23.8-109.6 1-4.5 4.4-18.9 11.1-47.8 4.1-17.6 5.8-35.7 11-53 1-3.4 4.4-14.2 3.9-28-.3-7.4-1.6-13.5-5.3-19.1-1.5-2.2-3.7-5.6-7.9-7.9-10.6-5.7-23 1.1-24.6 2.1z" fill="#fff"/><path d="m1029.8 339.9c-1.9 10.9-5.1 28.6-9.8 50.2-15 69.7-23.6 81.5-37.1 144.2-8.2 38.1-13.6 73.5-17.4 98.1-3.1 20.6-5.5 38.2-7.2 51.5 10.1-6 20.3-12.1 30.4-18.1-6.9 1.7-13.9 3.3-20.8 5 4.3-23.6 8.4-42.8 11.4-56.2 4.2-18.8 7.2-30.2 10.8-49.7 2.9-15.8 4.8-28.9 6-37.7 5.9-24.1 12.4-51.2 19.4-80.9 4.3-18.2 5.6-37.1 11.6-54.7 2.3-6.8 7.1-19.7 5.6-36.6-.6-6.4-1.9-11.6-2.9-15.1z" fill="#9b9797" opacity=".25"/><path d="m990.6 687.8c2.6-.9 6.3-2.1 10.9-3 7.7-1.5 14-1.4 15.4-1.4 8.5.2 9.3 1.8 13.7.5 2-.6 1-.7 9.8-5.3 4.8-2.5 6.8-3.5 7.3-5.5.4-1.9-.8-3.8-1.9-5-6.1-1.9-12.6-3.7-19.4-5.3-4-1-7.9-1.8-11.7-2.6-3.4 3.9-6.7 7.9-10.2 11.8-4.7 5.3-9.3 10.6-13.9 15.8z" fill="#9b9797" opacity=".35"/><path d="m943.7 513.8c-11.8 25.6-13.4 53.9-14.4 81.6-1.1 31.9-2.1 63.8-3.2 95.6-.1 1.9 2.9 1.9 3 0 1-30.7 2-61.3 3.1-92 .9-28.4 2-57.5 14.1-83.7.8-1.7-1.8-3.3-2.6-1.5z"/><path d="m947.7 514.9c2.7-28.8 6.6-57.4 11.8-85.8 2.5-13.7 5.3-27.3 8.4-40.9 3.1-13.3 6.6-26.6 12.9-38.7 5.1-9.9 13.5-20.8 25.2-22.9 14.2-2.5 23.6 11.1 25.1 23.7 1.5 13.7-2.8 28.1-5.4 41.4-2.7 13.7-5.6 27.4-8.6 41.1-6.8 31.1-14.3 62.1-22.4 93-.5 1.9 2.4 2.7 2.9.8 8.1-30.8 15.6-61.8 22.4-93 3.3-15.3 6.5-30.5 9.6-45.9 2.6-13.3 6.7-27.8 4-41.4-1.9-9.4-8.1-18.9-17.6-22-10.2-3.3-20.4 2.1-27.4 9.2-8.8 9-13.9 21.2-17.7 33-4.6 14.2-7.5 28.9-10.5 43.5-7 34.6-12.1 69.6-15.4 104.8-.5 2 2.5 2 2.7.1z"/><path d="m995.2 524.1c-10.1 50.6-20.3 101.1-30.4 151.7-.4 1.9 2.5 2.7 2.9.8 10.1-50.6 20.3-101.1 30.4-151.7.4-1.9-2.5-2.7-2.9-.8z"/><path d="m926.5 691.1c1.3 10 8 18.9 17.8 22 6.8 2.2 14.3 1.2 21.3.7 7.3-.5 14.7-.9 22-1.6 5.9-.5 11.6-1.7 17-4.3 2.7-1.3 8.9-3.7 8.3-7.6-.6-3.8-7.1-6.4-10.2-7.3-2.8-.9-5.8-1.3-8.7-1.1-4.3.3-8.4 1.8-12.7.4-1.8-.6-2.6 2.3-.8 2.9 4.6 1.5 8.8 0 13.5-.3s10.6 1 14.2 4.3c2.9 2.8-.9 4.1-3.5 5.4-2.4 1.2-4.9 2.3-7.5 3-5.1 1.5-10.4 1.7-15.7 2.1-10 .7-20.6 2.5-30.6 1.6-11-1-19.8-9.2-21.3-20.2-.3-1.9-3.3-1.9-3.1 0z"/><path d="m985.6 694c9.3-7.8 16.8-17.1 24.2-26.6 2.6-3.4 3.7-5.9 8.8-5.2 3 .4 6.2 1.7 9.1 2.5 6.4 1.7 12.8 3.5 19.1 5.2 1.9.5 2.7-2.4.8-2.9-7.3-2-14.6-4-21.9-6-4.9-1.3-10.3-4.3-14.5-.4-4.9 4.6-8.6 11.1-13 16.3-4.6 5.4-9.4 10.4-14.8 14.9-1.4 1.3.7 3.4 2.2 2.2z"/><path d="m982.4 672.5c5.1-3.6 9.9-7.4 14.5-11.5 6-5.4 10.9-12.7 19.9-10.9 12 2.4 24.1 7.5 32.1 17.2 1.2 1.5 3.3-.6 2.1-2.1-8.5-10.4-22.2-16.2-35.3-18.3-6.6-1.1-10.8 2.4-15.3 6.7-6.1 6-12.6 11.4-19.6 16.4-1.5 1 0 3.6 1.6 2.5z"/><path d="m969.2 673.1c6.1-1.1 12.1-2.5 18.1-4.1 1.9-.5 1.1-3.4-.8-2.9-6 1.6-12 3-18.1 4.1-1.9.4-1.1 3.2.8 2.9z"/><path d="m1008.6 670.8c8.5-4.4 17.5-.9 26.1 1.3 5 1.3 11.2 3 15.3-1.3 1.3-1.4-.8-3.5-2.1-2.1-5.1 5.4-18.6-1.7-24.7-2.7-5.6-.9-11-.6-16 2.1-1.9 1-.4 3.6 1.4 2.7z"/><path d="m1001.2 679.5c7-9.2 19.8-2.7 28.7-.9 6.7 1.4 14 .9 18.9-4.5 1.3-1.4-.8-3.5-2.1-2.1-12.9 14-35.3-10.8-48 5.9-1.3 1.6 1.3 3.1 2.5 1.6z"/><path d="m991 689.3c5.3-1.3 10.6-2.8 15.9-4 5.2-1.2 9.5-.1 14.6.4 7.3.8 14.8-.4 20-6 1.3-1.4-.8-3.5-2.1-2.1-6.7 7.3-15.8 5-24.4 4.1-8.2-.9-17 2.8-24.8 4.8-1.9.3-1.1 3.2.8 2.8z"/></svg>