<svg width="390" height="372" viewBox="0 0 390 372" fill="none" xmlns="http://www.w3.org/2000/svg">
<path d="M16.3439 124.062C21.9064 119.531 29.4376 118.875 36.3126 120.125C43.6564 121.437 50.3439 124.969 57.1251 127.937C64.1251 131.031 71.2501 133.25 78.9376 133.625C86.5939 134.031 94.2501 132.937 101.688 131.062C117.219 127.156 131.469 119.656 146.375 114C153.844 111.156 161.563 108.687 169.5 107.562C173.813 106.937 178.156 106.781 182.5 107.25C186.625 107.687 190.656 108.656 194.688 109.656C203.594 111.875 212.469 113.812 221.594 114.906C231 116.031 240.5 116.406 249.969 116.094C250.563 116.062 250.563 115.125 249.969 115.156C232.781 115.781 215.594 113.937 198.906 109.781C190.938 107.781 183.031 105.719 174.75 106.125C166.719 106.531 158.781 108.656 151.219 111.25C136.063 116.469 121.813 124.125 106.438 128.781C98.6251 131.125 90.5314 132.75 82.3439 132.781C74.0314 132.812 66.2189 130.875 58.6251 127.562C51.1251 124.312 43.7814 120.281 35.6251 119.031C28.6876 117.969 21.2814 118.812 15.6876 123.375C15.2189 123.781 15.8751 124.469 16.3439 124.062Z" fill="#E8E8E8"/>
<path d="M184.657 95.5002C206.313 104.844 230.907 103.281 253.063 96.5002C265.063 92.8127 277 87.8752 289.782 87.9064C302.657 87.9377 314.875 92.4377 327.469 94.4377C338.907 96.2502 351.5 96.0314 361.313 89.1564C361.813 88.8127 361.344 88.0002 360.844 88.3439C351.782 94.6877 340.282 95.2502 329.657 93.8127C317.625 92.1877 306.063 88.0002 293.907 87.1252C281.75 86.2502 270.282 89.9064 258.875 93.6564C247.5 97.3752 236 100.281 224.032 100.969C210.782 101.75 197.375 99.9689 185.157 94.6877C184.594 94.4377 184.125 95.2502 184.657 95.5002Z" fill="#E8E8E8"/>
<path d="M4.40614 173.406C11.2499 168.531 19.3436 165.531 27.7186 164.719C31.9061 164.313 36.1249 164.469 40.2499 165.188C44.5311 165.938 48.6561 167.375 52.7499 168.813C60.3436 171.438 67.8749 173.438 75.8749 171.594C82.7812 170 89.0311 166.406 95.1561 163C102.375 158.969 109.875 154.844 118.25 154.094C118.844 154.031 118.844 153.094 118.25 153.156C103.312 154.5 92.0936 165.719 78.1561 170C74.6249 171.094 70.9374 171.656 67.2499 171.438C62.7186 171.156 58.3124 169.75 54.0624 168.281C49.7811 166.813 45.4999 165.219 40.9999 164.375C37.1249 163.656 33.1561 163.438 29.2499 163.688C20.1874 164.25 11.3436 167.344 3.93739 172.625C3.43739 172.938 3.90614 173.75 4.40614 173.406Z" fill="#E8E8E8"/>
<path d="M87.2499 185.406C99.4062 172.562 117.281 167.312 134.562 167.156C144.594 167.062 154.594 168.5 164.375 170.593C173.687 172.562 182.719 175.125 192.344 173.843C202.406 172.5 211.812 168.187 220.812 163.656C221.344 163.375 220.875 162.562 220.344 162.843C211.781 167.156 202.875 171.25 193.344 172.75C188.469 173.5 183.562 173.437 178.687 172.656C173.75 171.875 168.937 170.562 164.031 169.531C146.156 165.781 127.125 164.187 109.562 170.281C100.906 173.281 92.9062 178.062 86.5937 184.718C86.1874 185.187 86.8437 185.843 87.2499 185.406Z" fill="#E8E8E8"/>
<path d="M232.093 194.75C237.187 196.531 242.406 194.875 247.062 192.656C252.281 190.156 257.187 187.063 262.531 184.844C267.875 182.625 273.625 181.125 279.437 181.844C284.75 182.5 289.656 184.875 294.312 187.406C298.718 189.813 303.062 192.438 307.75 194.281C312.968 196.313 318.593 197.281 324.187 197.156C335.656 196.906 345.406 191.188 355.875 187.313C365.656 183.688 378.687 182.063 386.531 190.563C386.937 191 387.593 190.344 387.187 189.906C381.031 183.25 371.218 182.5 362.781 184.281C351.781 186.594 342.281 193.313 331.218 195.469C325.312 196.625 319.125 196.469 313.281 195.063C307.843 193.75 302.968 191.188 298.093 188.469C293.687 186 289.218 183.438 284.375 181.969C279.343 180.438 274.093 180.406 269 181.656C262.781 183.188 257.062 186.219 251.468 189.281C245.687 192.406 239 196.219 232.281 193.875C231.781 193.656 231.531 194.563 232.093 194.75Z" fill="#E8E8E8"/>
<path d="M314.375 209.813C327.313 210.594 337.969 201.813 350.188 199.157C353.438 198.438 356.875 198.125 360.188 198.688C363.156 199.188 365.844 200.407 368.406 201.969C372.813 204.657 377.094 208.125 382.469 208.5C389 208.938 394.781 204.875 399.656 201.063C400.125 200.688 399.469 200.032 399 200.407C394.25 204.094 388.563 208.125 382.188 207.532C376.656 207.032 372.281 203.032 367.625 200.438C356.906 194.438 345.438 199.157 335.156 203.688C328.563 206.563 321.719 209.344 314.406 208.907C313.781 208.844 313.781 209.782 314.375 209.813Z" fill="#E8E8E8"/>
<path d="M19.406 269.563C23.9372 265.25 30.656 263.563 36.6873 265.219C42.9998 266.938 47.0622 272.375 52.1247 276.125C62.2185 283.594 75.9685 282.407 87.0622 278C100.156 272.813 111.062 263.438 124.125 258.157C130.5 255.563 137.406 253.907 144.343 254.375C151.094 254.844 156.843 257.75 162.187 261.688C167.5 265.594 172.5 270.219 178.719 272.688C185.375 275.313 192.875 274.75 199.125 271.282C199.656 271 199.187 270.188 198.656 270.469C192.281 274 184.656 274.313 178 271.375C172.437 268.907 167.875 264.782 163.031 261.157C158.062 257.438 152.781 254.532 146.531 253.657C140.093 252.782 133.531 253.875 127.437 255.907C114.093 260.375 103.094 269.594 90.4373 275.5C78.7498 280.969 63.7185 283.532 52.6248 275.313C47.0935 271.219 42.7497 265.375 35.6247 264C29.5935 262.844 23.1872 264.657 18.7497 268.907C18.3122 269.313 18.9685 270 19.406 269.563Z" fill="#E8E8E8"/>
<path d="M139.469 287C144.625 283.656 150.75 282.062 156.906 282.562C162.531 283.031 167.844 285.125 173 287.219C178 289.25 183.063 291.375 188.438 292.25C194.063 293.156 199.75 292.469 205.156 290.812C211.625 288.812 217.625 285.625 223.531 282.406C224.063 282.125 223.594 281.312 223.063 281.594C212.25 287.437 200.375 293.594 187.688 291.156C177.094 289.125 167.781 282.562 156.875 281.625C150.563 281.094 144.25 282.75 138.969 286.187C138.5 286.531 138.969 287.344 139.469 287Z" fill="#E8E8E8"/>
<path d="M257.437 308.187C264.25 301.812 272.625 297.219 281.656 294.875C286.25 293.687 290.968 293.094 295.718 293.125C301 293.187 306.25 294.031 311.5 294.531C321.687 295.5 331.468 293.781 341 290.062C350.093 286.531 358.656 280.406 368.437 278.906C379.875 277.156 388.719 284.75 396 292.531C396.406 292.969 397.062 292.312 396.656 291.875C390.656 285.469 383.593 278.844 374.468 277.812C364.468 276.687 355.375 282.562 346.687 286.594C336.687 291.25 325.906 294.437 314.812 293.812C309.281 293.5 303.812 292.5 298.25 292.219C293.531 291.969 288.781 292.312 284.156 293.281C273.937 295.375 264.406 300.312 256.781 307.469C256.343 307.937 257 308.594 257.437 308.187Z" fill="#E8E8E8"/>
<path d="M74.4689 110.719C83.2189 117.5 94.6251 114.5 104.156 111.375C115.969 107.469 127.938 105 140.438 104.75C141.031 104.75 141.031 103.812 140.438 103.812C128.938 104.031 117.594 106 106.656 109.563C96.7501 112.781 84.4376 117.312 75.1251 110.062C74.6564 109.688 74.0001 110.344 74.4689 110.719Z" fill="#161616"/>
<path d="M158.719 53.9065C169.281 53.1252 179.469 50.1877 189.687 47.719C200.312 45.1252 210.969 43.4065 221.937 44.594C233 45.7815 243.719 49.1252 254.562 51.5002C265 53.8127 275.594 54.8752 286.281 54.344C298.312 53.7502 310.188 51.219 321.406 46.9065C321.969 46.6877 321.719 45.7815 321.156 46.0002C300.75 53.844 278.469 55.5002 257.094 51.0627C246.437 48.844 236 45.594 225.219 44.0315C214.812 42.5315 204.656 43.3752 194.406 45.6252C182.531 48.219 170.875 52.0315 158.719 52.9377C158.125 53.0315 158.125 53.969 158.719 53.9065Z" fill="#161616"/>
<path d="M327.843 132.219C336.968 128.844 346.437 133.656 355.562 134.531C360.468 135 365.343 134.531 370.125 133.406C374.812 132.281 379.375 130.625 384.156 129.906C389.281 129.125 394.75 129.437 399.187 132.344C399.687 132.687 400.156 131.875 399.656 131.531C391.781 126.406 382.156 129.156 373.843 131.468C368.625 132.937 363.406 134 357.968 133.781C352.781 133.594 347.812 132.156 342.75 131.094C337.718 130.062 332.531 129.5 327.625 131.312C327.031 131.5 327.281 132.406 327.843 132.219Z" fill="#161616"/>
<path d="M9.31284 227.032C17.2503 219.969 28.4378 226.219 37.2503 227.563C47.4378 229.125 57.6253 226.313 67.3441 223.594C67.9378 223.438 67.6878 222.532 67.0941 222.688C56.3441 225.688 45.2191 228.657 34.0628 226C25.9066 224.063 15.9378 219.938 8.62533 226.375C8.18783 226.75 8.84409 227.407 9.31284 227.032Z" fill="#161616"/>
<path d="M109.25 314.782C111.781 311.782 115.688 310.157 119.625 310.657C121.875 310.938 123.938 311.969 126 312.875C127.719 313.625 129.469 314.25 131.25 314.75C138.906 316.875 147.125 316.563 154.594 313.938C155.156 313.75 154.906 312.844 154.344 313.032C145.969 315.938 136.719 315.938 128.375 312.813C124.75 311.469 121.375 309.313 117.344 309.625C113.938 309.875 110.781 311.5 108.563 314.094C108.188 314.594 108.875 315.25 109.25 314.782Z" fill="#161616"/>
<path d="M162.437 312.219C168.125 310.562 173.969 309.75 179.906 309.781C180.5 309.781 180.5 308.844 179.906 308.844C173.906 308.812 167.969 309.656 162.187 311.312C161.625 311.5 161.844 312.406 162.437 312.219Z" fill="#161616"/>
<path d="M169.875 69.3131C175.406 73.5631 180.687 78.1256 185.75 82.9693C186.187 83.3756 186.844 82.7193 186.406 82.3131C181.312 77.4381 175.937 72.8443 170.344 68.5318C169.875 68.1256 169.406 68.9381 169.875 69.3131Z" fill="#161616"/>
<path d="M115.687 85.7819C116.219 82.8444 116.781 79.9069 117.312 76.9381C117.437 76.3444 116.531 76.0944 116.406 76.6881C115.875 79.6256 115.312 82.5631 114.781 85.5319C114.687 86.1256 115.594 86.3756 115.687 85.7819Z" fill="#161616"/>
<path d="M295.875 104.406C296.876 104.406 297.687 103.595 297.687 102.594C297.687 101.593 296.876 100.781 295.875 100.781C294.874 100.781 294.062 101.593 294.062 102.594C294.062 103.595 294.874 104.406 295.875 104.406Z" fill="#03DAC5"/>
<path d="M59.0625 254.094C60.2534 254.094 61.2188 253.128 61.2188 251.937C61.2188 250.747 60.2534 249.781 59.0625 249.781C57.8716 249.781 56.9062 250.747 56.9062 251.937C56.9062 253.128 57.8716 254.094 59.0625 254.094Z" fill="#03DAC5"/>
<path d="M48.625 58.75C51.3519 58.75 53.5625 56.5394 53.5625 53.8125C53.5625 51.0856 51.3519 48.875 48.625 48.875C45.8981 48.875 43.6875 51.0856 43.6875 53.8125C43.6875 56.5394 45.8981 58.75 48.625 58.75Z" fill="#03DAC5"/>
<path d="M58.5313 63.5312C59.446 63.5312 60.1875 62.7897 60.1875 61.875C60.1875 60.9603 59.446 60.2188 58.5313 60.2188C57.6165 60.2188 56.875 60.9603 56.875 61.875C56.875 62.7897 57.6165 63.5312 58.5313 63.5312Z" fill="#03DAC5"/>
<path d="M153.156 341.5C155.193 341.5 156.844 339.849 156.844 337.812C156.844 335.776 155.193 334.125 153.156 334.125C151.12 334.125 149.469 335.776 149.469 337.812C149.469 339.849 151.12 341.5 153.156 341.5Z" fill="#03DAC5"/>
<path d="M324.531 65.1875C326.326 65.1875 327.781 63.7324 327.781 61.9375C327.781 60.1426 326.326 58.6875 324.531 58.6875C322.736 58.6875 321.281 60.1426 321.281 61.9375C321.281 63.7324 322.736 65.1875 324.531 65.1875Z" fill="#03DAC5"/>
<path d="M328.688 58.0313C329.792 58.0313 330.688 57.1358 330.688 56.0312C330.688 54.9267 329.792 54.0312 328.688 54.0312C327.583 54.0312 326.688 54.9267 326.688 56.0312C326.688 57.1358 327.583 58.0313 328.688 58.0313Z" fill="#03DAC5"/>
<path d="M53.5937 53.5625C56.3207 53.5625 58.5313 51.3519 58.5313 48.625C58.5313 45.8981 56.3207 43.6875 53.5937 43.6875C50.8668 43.6875 48.6562 45.8981 48.6562 48.625C48.6562 51.3519 50.8668 53.5625 53.5937 53.5625Z" fill="#5222D0"/>
<path d="M51.125 257C52.4885 257 53.5937 255.895 53.5937 254.531C53.5937 253.168 52.4885 252.062 51.125 252.062C49.7615 252.062 48.6562 253.168 48.6562 254.531C48.6562 255.895 49.7615 257 51.125 257Z" fill="#5222D0"/>
<path d="M137.906 334.344C139.114 334.344 140.094 333.364 140.094 332.156C140.094 330.948 139.114 329.969 137.906 329.969C136.698 329.969 135.719 330.948 135.719 332.156C135.719 333.364 136.698 334.344 137.906 334.344Z" fill="#5222D0"/>
<path d="M312.531 54.0312C315.396 54.0312 317.719 51.7087 317.719 48.8437C317.719 45.9788 315.396 43.6562 312.531 43.6562C309.666 43.6562 307.344 45.9788 307.344 48.8437C307.344 51.7087 309.666 54.0312 312.531 54.0312Z" fill="#5222D0"/>
<path d="M227.125 132.594C227.746 132.594 228.25 132.09 228.25 131.469C228.25 130.847 227.746 130.344 227.125 130.344C226.504 130.344 226 130.847 226 131.469C226 132.09 226.504 132.594 227.125 132.594Z" fill="#5222D0"/>
<path d="M215.594 65.6247C214.938 67.1559 214.313 68.7184 213.657 70.2497C213.438 70.8122 214.344 71.0622 214.563 70.4997C215.219 68.9684 215.844 67.4059 216.501 65.8747C216.719 65.3122 215.813 65.0622 215.594 65.6247Z" fill="#5222D0"/>
<path d="M215.438 66.3748C216.595 67.5935 217.501 68.9685 218.095 70.531C218.313 71.0935 219.22 70.8435 219.001 70.281C218.313 68.5623 217.345 67.0622 216.095 65.7185C215.688 65.281 215.001 65.9373 215.438 66.3748Z" fill="#5222D0"/>
<path d="M213.907 71.0618C214.813 72.7493 215.844 74.3431 217 75.8431C217.375 76.3118 218.188 75.8431 217.813 75.3743C216.657 73.8431 215.625 72.2493 214.719 70.5931C214.407 70.0618 213.625 70.5306 213.907 71.0618Z" fill="#5222D0"/>
<path d="M218.156 70.5934C217.781 72.3434 217.438 74.0934 217.063 75.8434C216.938 76.4372 217.844 76.6872 217.969 76.0934C218.344 74.3434 218.688 72.5934 219.063 70.8434C219.188 70.2809 218.281 70.0309 218.156 70.5934Z" fill="#5222D0"/>
<path d="M303.626 199.406C302.876 200.781 302.376 202.249 302.157 203.812C302.063 204.406 302.97 204.656 303.063 204.062C303.282 202.593 303.72 201.218 304.438 199.906C304.72 199.343 303.907 198.874 303.626 199.406Z" fill="#5222D0"/>
<path d="M303.563 199.687C304.188 201.343 304.907 202.937 305.719 204.468C306.001 205 306.813 204.531 306.532 204C305.751 202.531 305.063 201 304.469 199.437C304.251 198.875 303.344 199.125 303.563 199.687Z" fill="#5222D0"/>
<path d="M301.969 204.469C302.781 205.625 303.563 206.781 304.375 207.937C304.719 208.437 305.531 207.969 305.188 207.469C304.375 206.312 303.594 205.156 302.781 204C302.438 203.5 301.625 203.969 301.969 204.469Z" fill="#5222D0"/>
<path d="M305.375 204.312C304.719 205.219 304.406 206.25 304.406 207.344C304.406 207.937 305.344 207.937 305.344 207.344C305.344 206.406 305.625 205.531 306.187 204.781C306.531 204.281 305.719 203.812 305.375 204.312Z" fill="#5222D0"/>
<path d="M42.2191 287.874C41.3753 289.718 40.5316 291.531 39.6878 293.374C39.4378 293.906 40.2503 294.406 40.5003 293.843C41.3441 291.999 42.1878 290.187 43.0316 288.343C43.2816 287.812 42.5003 287.343 42.2191 287.874Z" fill="#5222D0"/>
<path d="M42.3756 288.125C43.1881 290.062 44.0006 292 44.8131 293.937C45.0319 294.5 45.9381 294.25 45.7194 293.687C44.9069 291.75 44.0943 289.812 43.2818 287.875C43.0631 287.312 42.1568 287.562 42.3756 288.125Z" fill="#5222D0"/>
<path d="M39.4695 294.218C40.3133 295.874 41.1258 297.562 41.9695 299.218C42.1258 299.499 42.5008 299.499 42.7195 299.312C43.3758 298.781 43.6883 297.874 44.032 297.156C44.532 296.156 45.032 295.156 45.532 294.156C45.8133 293.624 45.0008 293.156 44.7195 293.687C44.282 294.562 43.8133 295.437 43.3758 296.312C43.0008 297.062 42.657 298.093 42.0008 298.624C42.2508 298.656 42.5008 298.687 42.7508 298.718C41.907 297.062 41.0945 295.374 40.2508 293.718C40.0008 293.218 39.1883 293.687 39.4695 294.218Z" fill="#5222D0"/>
<path d="M356.751 142.624C355.782 144.468 355.188 146.406 354.907 148.468C354.813 149.062 355.751 149.062 355.844 148.468C356.094 146.562 356.657 144.781 357.532 143.093C357.844 142.562 357.032 142.093 356.751 142.624Z" fill="#5222D0"/>
<path d="M356.626 143.718C357.594 145.593 358.532 147.468 359.501 149.343C359.782 149.874 360.594 149.406 360.313 148.874C359.344 146.999 358.407 145.124 357.438 143.249C357.157 142.718 356.344 143.187 356.626 143.718Z" fill="#5222D0"/>
<path d="M354.969 148.594C355.751 150.469 356.688 152.219 357.813 153.875C358.157 154.375 358.969 153.906 358.626 153.406C357.532 151.812 356.594 150.125 355.876 148.344C355.657 147.812 354.751 148.062 354.969 148.594Z" fill="#5222D0"/>
<path d="M359.22 149C358.657 150.75 358.188 152.531 357.876 154.375C357.782 154.968 358.688 155.218 358.782 154.625C359.095 152.812 359.532 151.031 360.126 149.25C360.313 148.687 359.407 148.437 359.22 149Z" fill="#5222D0"/>
<path d="M353.125 294.343C352.75 295.593 352.406 296.812 352.031 298.062C351.875 298.656 352.75 298.875 352.937 298.312C353.312 297.062 353.656 295.843 354.031 294.593C354.219 294 353.313 293.75 353.125 294.343Z" fill="#5222D0"/>
<path d="M353.063 295.031C353.625 296.281 354.219 297.531 354.782 298.75C355.032 299.313 355.844 298.813 355.594 298.281C355.032 297.031 354.438 295.781 353.875 294.563C353.625 294 352.813 294.469 353.063 295.031Z" fill="#5222D0"/>
<path d="M352.281 298.656C352.563 300.125 353.25 301.437 354.219 302.562C354.625 303.031 355.281 302.344 354.875 301.906C354 300.906 353.438 299.719 353.188 298.437C353.063 297.812 352.156 298.062 352.281 298.656Z" fill="#5222D0"/>
<path d="M354.75 298.531C354.344 299.843 354.157 301.187 354.188 302.531C354.219 303.125 355.157 303.125 355.125 302.531C355.094 301.25 355.25 300 355.657 298.781C355.844 298.218 354.938 297.968 354.75 298.531Z" fill="#5222D0"/>
<path d="M30.4378 129.468C29.7503 130.968 29.0941 132.468 28.4066 133.968C28.1566 134.499 28.9691 134.999 29.2191 134.437C29.9066 132.937 30.5628 131.437 31.2503 129.937C31.5003 129.406 30.6878 128.906 30.4378 129.468Z" fill="#5222D0"/>
<path d="M28.5318 134.75C29.2506 136.593 29.9381 138.406 30.6568 140.25C30.8756 140.812 31.7818 140.562 31.5631 140C30.8443 138.156 30.1568 136.343 29.4381 134.5C29.2193 133.937 28.3131 134.187 28.5318 134.75Z" fill="#5222D0"/>
<path d="M30.4385 129.531C31.4072 131.218 32.3759 132.937 33.3447 134.624C33.6572 135.156 34.4384 134.687 34.1572 134.156C33.1884 132.468 32.2197 130.749 31.2509 129.062C30.9384 128.531 30.126 128.999 30.4385 129.531Z" fill="#5222D0"/>
<path d="M33.5631 134.218C32.5631 136.093 31.6881 138.031 30.9381 139.999C30.7193 140.562 31.6256 140.812 31.8444 140.249C32.5631 138.343 33.4068 136.468 34.3756 134.687C34.6568 134.156 33.8444 133.687 33.5631 134.218Z" fill="#5222D0"/>
<path d="M266 158.281C266.625 157.093 267.813 156.281 269.188 156.343C270.313 156.375 271.156 157.156 272.156 157.531C273.906 158.156 274.438 157.031 275.75 156.187C277.531 155 279.25 157.656 281.156 157.625C282.25 157.593 283.156 157.062 283.188 155.906C282.938 156.031 282.719 156.187 282.469 156.312C283.438 156.812 284.406 157.312 285.344 157.843C285.875 158.125 286.344 157.312 285.813 157.031C284.844 156.531 283.875 156.031 282.938 155.5C282.625 155.343 282.25 155.531 282.219 155.906C282.125 158.125 277.813 154.968 277 154.875C275.156 154.625 274.438 156.906 272.844 156.656C271.156 156.375 270.094 155.156 268.281 155.468C266.906 155.718 265.781 156.562 265.156 157.812C264.938 158.343 265.719 158.812 266 158.281Z" fill="#5222D0"/>
<path d="M277.97 151.937C279.376 150.375 281.595 152.343 283.188 152.531C285.032 152.75 286.47 150.781 288.251 151.781C289.72 152.625 292.407 154.625 293.47 152.062C293.688 151.5 292.782 151.25 292.563 151.812C291.813 153.625 289.126 151.093 288.22 150.718C287.001 150.187 286.188 150.625 285.095 151.156C283.782 151.781 282.845 151.562 281.595 151C281.032 150.75 280.47 150.531 279.845 150.437C278.876 150.312 278.001 150.5 277.313 151.25C276.907 151.718 277.563 152.375 277.97 151.937Z" fill="#5222D0"/>
<path d="M252.594 78.218C253.031 77.4055 253.531 77.1868 254.094 77.5618C254.344 77.6555 254.594 77.7805 254.844 77.9368C255.125 78.0618 255.406 78.2493 255.688 78.343C256.188 78.4993 256.688 78.5618 257.188 78.4368C258.531 78.0618 259.219 76.3743 260.656 76.4055C262 76.4368 262.969 77.718 264.375 77.0618C264.969 76.7805 265.375 76.2805 265.938 75.968C267.188 75.2805 268.719 75.5305 269.781 76.4055C270.25 76.7805 270.906 76.1243 270.438 75.7493C269.031 74.593 267.094 74.2493 265.469 75.1555C264.75 75.5618 264.156 76.4368 263.219 76.3118C262.688 76.2493 262.219 75.8743 261.719 75.6868C260.969 75.4055 260.281 75.3118 259.531 75.6555C258.594 76.093 257.969 77.3118 256.938 77.5305C255.625 77.8118 254.75 76.468 253.531 76.4368C252.375 76.4055 251.031 77.5305 251.813 78.6868C252.125 79.1868 252.938 78.718 252.594 78.218Z" fill="#03DAC5"/>
<path d="M262.969 72.6877C263.344 70.6564 266.875 72.6252 268.125 72.4064C268.938 72.2814 269.532 71.7189 270.282 71.4377C271.469 70.9689 272.625 71.1564 273.719 71.8127C274.25 72.1252 274.719 71.3127 274.188 71.0002C273.25 70.4377 272.25 70.1564 271.188 70.2502C270.719 70.2814 270.282 70.4064 269.875 70.5627C268.625 71.0939 268.125 71.6877 266.563 71.3127C265.063 70.9377 262.5 70.1877 262.094 72.4377C261.938 73.0314 262.844 73.2814 262.969 72.6877Z" fill="#03DAC5"/>
<path d="M26.3755 185.625C26.7817 183.656 29.5005 186.344 30.0317 186.688C30.6255 187.094 31.2817 187.375 32.0005 187.219C32.938 187.063 33.6567 186.281 34.6255 186.063C36.188 185.719 37.7505 186.219 38.8755 187.344C39.313 187.781 39.9692 187.094 39.5317 186.688C38.563 185.719 37.3755 185.125 36.0005 185.031C35.313 184.969 34.6255 185.063 33.9692 185.281C32.938 185.625 32.1255 186.625 30.8755 186.125C29.563 185.594 29.063 184.25 27.563 184.094C26.5942 184 25.688 184.375 25.5005 185.375C25.3442 185.969 26.2505 186.219 26.3755 185.625Z" fill="#03DAC5"/>
<path d="M36.7813 183.374C37.4688 182.437 40.6251 184.312 41.5313 184.531C43.0001 184.874 44.5 184.874 46 184.687C46.5938 184.593 46.3438 183.687 45.7501 183.781C43.1563 184.124 41.1563 183.437 38.8125 182.499C37.75 182.093 36.6875 181.937 35.9688 182.906C35.625 183.374 36.4375 183.843 36.7813 183.374Z" fill="#03DAC5"/>
<path d="M112.97 248.874C113.47 248.093 114.251 247.593 115.22 247.593C116.032 247.593 116.532 248.093 117.251 248.312C117.97 248.562 118.563 248.406 119.188 247.999C120.407 247.187 121.001 246.187 122.657 246.249C124.157 246.281 125.595 246.999 126.907 247.656C127.438 247.937 127.907 247.124 127.376 246.843C124.907 245.593 121.907 244.406 119.532 246.437C119.001 246.874 118.938 246.999 118.126 247.156C117.22 247.343 117.313 247.218 116.626 246.937C116.032 246.687 115.47 246.593 114.813 246.656C113.657 246.781 112.751 247.437 112.157 248.374C111.845 248.906 112.657 249.374 112.97 248.874Z" fill="#03DAC5"/>
<path d="M123.376 250.688C124.844 249.406 127.626 252.094 129.438 251.844C130.532 251.688 131.032 250.875 131.751 250.125C133.126 248.656 135.188 248.438 136.876 249.531C137.376 249.844 137.844 249.063 137.344 248.719C136.126 247.938 134.688 247.688 133.282 248.094C132.657 248.281 132.094 248.563 131.594 248.969C130.844 249.594 130.376 250.719 129.313 250.906C127.032 251.313 124.876 248.125 122.719 250.031C122.282 250.438 122.938 251.094 123.376 250.688Z" fill="#03DAC5"/>
<path d="M80.7505 50.2497C81.0005 49.2185 81.5942 48.406 82.5942 47.9685C83.4692 47.5935 84.188 47.8435 85.0942 47.8122C86.0942 47.7497 86.8442 47.2497 87.438 46.4997C88.3442 45.3747 88.938 44.2185 90.2192 43.4685C91.688 42.6247 93.3755 42.4685 95.0005 42.9685C95.5942 43.156 95.813 42.2497 95.2505 42.0622C92.2505 41.156 89.2817 42.3122 87.4692 44.8435C86.7505 45.8435 86.2192 46.8435 84.8442 46.8747C84.0005 46.906 83.2817 46.7185 82.4692 46.9997C81.0942 47.4685 80.1567 48.6247 79.8442 49.9997C79.688 50.5935 80.5942 50.8435 80.7505 50.2497Z" fill="#03DAC5"/>
<path d="M85.1564 53.8438C83.8127 50.2813 90.2502 50.4688 92.1877 49.7813C94.5939 48.9375 96.6564 47.4375 98.6877 45.9375C99.1564 45.5938 98.6877 44.7813 98.2189 45.125C96.8439 46.1563 95.4377 47.1563 93.9377 47.9688C92.0627 48.9688 90.2814 49.2813 88.2502 49.5938C86.0939 49.9375 83.2814 51.4375 84.2814 54.0625C84.4689 54.625 85.3752 54.4063 85.1564 53.8438Z" fill="#03DAC5"/>
<path d="M209.781 233C212.156 226.781 216.188 222.719 220.344 218.5C225.813 212.969 235.969 202.688 246.313 204.313C255.125 205.688 254.156 214.156 266.25 220.313C277.656 226.156 282.031 220.375 293.406 226.656C295.094 227.594 307 234.375 309.719 247.188C310.844 252.5 310.562 259.781 308.219 260.469C305.562 261.25 304.656 245.938 294.031 239.938C285.906 235.344 274.719 237.563 273.813 240.844C272.844 244.313 284.063 246.594 290.406 258.656C293.188 263.906 293.781 268.688 294.625 275.25C295.406 281.438 296.281 294.125 293.406 294.875C291.031 295.5 289.75 287.031 281.031 280.094C276.438 276.438 271.531 274.938 261.719 271.938C252.875 269.25 248.406 267.938 246 270.125C242.438 273.375 245.188 281.625 245.688 283.094C249.188 293.594 258.125 297.969 257.469 299.094C256.594 300.5 240.281 296.438 226.969 283.406C215.594 272.25 202.875 251.031 209.781 233Z" fill="#03DAC5"/>
<path d="M311.812 269.219C311.687 270.094 311.031 274.969 313.906 278.094C317.094 281.531 320.969 278.906 324.875 282.312C328.469 285.437 328 290.125 329.094 290.031C330.344 289.937 332.25 283.594 329.562 279.75C328.719 278.531 326.656 277.437 322.562 275.312C318.375 273.125 317.812 273.219 316.719 272.031C314 269.094 314.406 265.25 313.437 265.25C312.687 265.25 312.031 267.562 311.812 269.219Z" fill="#03DAC5"/>
<path d="M284.938 305.906C283.188 308.531 283.375 311.344 283.531 314.313C283.719 317.344 283.844 319.813 285.625 322.031C287.656 324.563 291.031 325.625 291.469 325.063C291.813 324.625 290.281 323.438 288.906 320.844C288.75 320.531 286.719 316.688 286.813 312.188C286.906 306.563 290.219 303.219 289.375 302.625C288.75 302.156 286.344 303.781 284.938 305.906Z" fill="#03DAC5"/>
<path d="M297.469 254.094C302.719 257.563 299.844 265.594 303.281 270.281C303.625 270.75 304.437 270.281 304.094 269.813C300.531 264.938 303.562 257 297.937 253.281C297.437 252.938 296.969 253.75 297.469 254.094Z" fill="#03DAC5"/>
<path d="M295.594 231.469C301.219 235.782 305.125 241.938 306.688 248.844C306.813 249.438 307.719 249.188 307.594 248.594C305.969 241.438 301.906 235.126 296.094 230.688C295.563 230.282 295.094 231.094 295.594 231.469Z" fill="#5222D0"/>
<path d="M277.469 248.782C281.969 252.469 285.5 257.188 287.687 262.594C287.906 263.157 288.812 262.907 288.594 262.344C286.312 256.782 282.781 251.938 278.125 248.126C277.687 247.751 277 248.407 277.469 248.782Z" fill="#5222D0"/>
<path d="M289.875 267.75C290.719 270 291.281 272.281 291.5 274.656C291.563 275.25 292.5 275.25 292.438 274.656C292.188 272.187 291.625 269.812 290.75 267.5C290.594 266.937 289.688 267.187 289.875 267.75Z" fill="#5222D0"/>
<path d="M241.781 272.937C241 277.656 241.906 282.375 244.469 286.437C244.781 286.937 245.594 286.468 245.281 285.968C242.875 282.156 241.938 277.656 242.688 273.187C242.781 272.593 241.875 272.343 241.781 272.937Z" fill="#5222D0"/>
<path d="M245.718 289C246.843 291.063 248.281 292.907 250 294.5C250.437 294.907 251.093 294.25 250.656 293.844C249 292.282 247.625 290.5 246.531 288.532C246.25 288 245.437 288.469 245.718 289Z" fill="#5222D0"/>
<path d="M209.844 241.375C209.594 244.344 209.875 247.281 210.719 250.156C210.875 250.75 211.781 250.5 211.625 249.906C210.812 247.094 210.531 244.281 210.781 241.375C210.844 240.781 209.906 240.781 209.844 241.375Z" fill="#5222D0"/>
<path d="M211.656 253.343C212.156 255.781 213.063 258.031 214.375 260.156C214.688 260.656 215.5 260.187 215.188 259.687C213.938 257.625 213.063 255.468 212.563 253.093C212.438 252.531 211.531 252.781 211.656 253.343Z" fill="#5222D0"/>
<path d="M130.062 58C129.187 60.375 128.125 63.625 127.094 67.5625C126.031 71.6563 123.531 82.4375 123.781 96.625C124.031 110.312 126.719 120.375 129.187 129.344C133.031 143.344 137.719 153.406 140.5 159.25C140.5 159.25 149.344 177.969 164 198.031C166.594 201.562 169.906 206.031 169.906 206.031C172.312 209.25 174.375 211.938 175.812 213.875C176.969 215.188 178.437 216.656 180.344 218.062C183.906 220.719 187.437 222.062 189.906 222.75C193.969 219.281 198.031 215.781 202.094 212.312C203.937 214.062 205.812 215.781 207.656 217.531C210.219 214.906 212.5 212.812 214.281 211.281C222.031 204.562 228.437 201.125 229.937 200.312C231.219 199.625 232.312 199.094 233.062 198.75C231.906 196.437 230.75 194.125 229.594 191.781C231.469 190.156 233.625 188.438 236.031 186.75C239.281 184.469 242.406 182.625 245.25 181.188C245.219 178.563 244.875 174.594 243.156 170.219C241.875 166.937 240.344 164.719 239.687 163.781C232.469 153.375 253.75 182.062 225.937 142.375C215.156 127 209.781 119.281 207.312 116.094C199.594 106 193.531 99.0938 189.219 94.1875C180.969 84.7812 177.25 81.2812 174.25 78.7188C170.156 75.1563 165.625 71.3125 158.781 67.75C154.469 65.5312 150.906 64.3125 145.719 62.5312C139.312 60.3438 133.906 58.9062 130.062 58Z" fill="white"/>
<path d="M129.094 58.5623C122.313 79.4686 122.313 102.031 127.188 123.344C128.406 128.687 129.938 133.969 131.75 139.125C132.656 141.75 133.75 144.312 134.719 146.906C135.063 147.812 135.125 148.719 135.531 149.625C136.125 151.031 136.75 152.437 137.375 153.844C138.531 156.469 139.75 159.062 141.031 161.656C142.313 164.219 143.875 166.656 145.031 169.25C145.469 170.219 145.844 171.25 146.344 172.187C147 173.375 147.969 174.281 148.656 175.437C150.094 177.844 151.469 180.312 152.969 182.687C159.813 193.719 167.594 204.125 175.563 214.344C175.938 214.812 176.594 214.156 176.219 213.687C169.188 204.656 162.313 195.5 156.125 185.906C154.594 183.531 153.125 181.156 151.688 178.719C151 177.562 150.313 176.375 149.656 175.187C149 174.031 148.125 173.219 147.438 172.094C146.875 171.156 146.469 170.156 146.063 169.156C145.5 167.812 144.75 166.594 144.063 165.312C142.75 162.906 141.531 160.469 140.375 158C139.156 155.406 138 152.781 136.844 150.156C136.344 149 136.156 147.781 135.688 146.594C135.188 145.312 134.656 144.031 134.156 142.719C132.25 137.687 130.594 132.562 129.219 127.344C126.469 116.781 124.875 105.937 124.719 94.9998C124.563 82.7186 126.25 70.4373 130.063 58.7186C130.156 58.2498 129.25 57.9998 129.094 58.5623Z" fill="black"/>
<path d="M129.531 58.5625C134.75 58.9688 140.063 60.7813 144.969 62.5C149.813 64.2188 154.594 66.0938 159.031 68.6563C167.875 73.7813 175.688 80.5 182.813 87.8125C190.156 95.3438 196.844 103.625 203.313 111.906C209.75 120.156 215.906 128.688 221.844 137.312C228.406 146.906 234.719 156.687 240.906 166.562C241.219 167.062 242.031 166.594 241.719 166.094C230.375 148.062 218.656 130.25 205.625 113.375C193.031 97.0312 179.531 80.3438 161.844 69.25C157.031 66.2188 151.875 64.0313 146.563 62.0625C141.188 60.0938 135.313 58.0625 129.563 57.5938C128.938 57.5938 128.938 58.5313 129.531 58.5625Z" fill="black"/>
<path d="M176.906 214.062C191.469 199.218 207.843 186.187 225.562 175.312C230.562 172.25 235.625 169.375 240.812 166.687C241.344 166.406 240.875 165.593 240.344 165.875C221.937 175.5 204.687 187.343 189.156 201.125C184.718 205.062 180.406 209.156 176.25 213.406C175.812 213.843 176.469 214.5 176.906 214.062Z" fill="black"/>
<path d="M176 214.782C179.719 218.938 184.562 221.875 189.969 223.188C190.562 223.344 190.812 222.438 190.219 222.282C184.937 220.969 180.281 218.157 176.656 214.094C176.25 213.657 175.594 214.344 176 214.782Z" fill="black"/>
<path d="M240.656 166.938C243.093 171.219 244.5 175.938 244.812 180.844C244.843 181.438 245.781 181.438 245.75 180.844C245.437 175.75 243.968 170.907 241.468 166.469C241.187 165.938 240.375 166.407 240.656 166.938Z" fill="black"/>
<path d="M190.531 222.937C207.437 207.5 225.75 193.687 245.281 181.719C245.781 181.406 245.312 180.594 244.812 180.906C225.25 192.906 206.844 206.781 189.875 222.281C189.437 222.687 190.093 223.344 190.531 222.937Z" fill="black"/>
<path d="M202.312 212.875C204.031 214.563 205.75 216.25 207.468 217.969C207.656 218.156 207.968 218.156 208.125 217.969C213.187 212.594 218.875 207.844 225.093 203.875C226.593 202.906 228.125 202 229.687 201.125C230.687 200.563 232.593 200.031 233.187 198.969C233.812 197.906 232.875 196.469 232.375 195.563C231.5 193.969 230.469 192.5 229.344 191.125C228.969 190.656 228.312 191.313 228.687 191.781C229.781 193.125 230.75 194.531 231.562 196.031C231.75 196.344 232.156 196.875 232.187 197.25C232.062 197.813 231.937 198.344 231.812 198.906C231.656 199 231.5 199.063 231.343 199.156C230.718 199.625 229.906 199.906 229.218 200.313C226.5 201.844 223.844 203.5 221.281 205.281C216.281 208.813 211.656 212.844 207.468 217.281C207.687 217.281 207.906 217.281 208.125 217.281C206.406 215.594 204.687 213.906 202.968 212.188C202.531 211.781 201.875 212.438 202.312 212.875Z" fill="black"/>
<path d="M131.312 135.844C139 126.782 148 118.938 157.219 111.469C166.469 104 176.156 97.0003 187 92.0316C187.562 91.7816 187.062 90.9691 186.531 91.2191C175.781 96.1253 166.187 103.063 157 110.438C147.625 118 138.469 125.969 130.656 135.157C130.25 135.657 130.906 136.313 131.312 135.844Z" fill="black"/>
<path d="M187.188 96.4067C186.156 96.4692 185.719 94.7504 186.875 94.6567C187.281 94.6254 187.75 94.8129 187.906 95.2192C188.125 95.8129 187.563 96.4379 186.969 96.4379C186.531 96.4379 186.5 97.1567 186.969 97.1567C187.938 97.1567 188.781 96.2504 188.625 95.2817C188.5 94.4692 187.656 93.9692 186.875 94.0004C186.031 94.0629 185.375 94.7504 185.469 95.5942C185.563 96.4379 186.313 97.2192 187.188 97.1567C187.656 97.0942 187.656 96.3754 187.188 96.4067Z" fill="black"/>
<path d="M234.906 165.531C234.937 165.531 234.937 165.531 234.969 165.5C234.875 165.5 234.781 165.469 234.687 165.469C235.031 165.625 234.844 164.969 234.812 164.875C234.812 164.781 234.844 164.656 234.875 164.562C234.969 164.375 235.125 164.187 235.312 164.094C235.719 163.906 236.156 164.219 236.281 164.625C236.531 165.437 235.344 165.844 235.031 165.125C234.844 164.719 234.25 165.062 234.437 165.469C234.812 166.344 236.094 166.406 236.719 165.75C237.437 164.969 236.906 163.656 235.937 163.375C234.906 163.094 233.906 164.187 234.156 165.187C234.25 165.594 234.781 166.094 235.187 165.687C235.5 165.375 235.187 164.687 234.719 164.875C234.312 165.031 234.5 165.687 234.906 165.531Z" fill="black"/>
<path opacity="0.15" d="M130.062 58.1875C135 61.375 141.687 66.0625 149 72.3438C153.531 76.25 165.281 86.7187 179.969 107.031C195.906 129.062 203.875 140.062 205.469 152.344C206.281 158.75 207.406 177 191.312 199.437C197.969 194.375 204.656 189.281 211.312 184.219C214.219 189 217.094 193.781 220 198.562C216.875 200.875 213.75 203.156 210.625 205.469C212.156 207.312 213.688 209.125 215.219 210.969C217.094 209.156 219.344 207.219 221.938 205.312C225.938 202.375 229.781 200.281 233.094 198.75C231.844 196.344 230.625 193.906 229.375 191.5C234.75 187.969 240.125 184.406 245.5 180.875C245.219 178.219 244.563 174.375 242.844 170.062C240.844 165 238.312 161.625 237.344 160.312C230.344 150.844 233.75 153.125 219.094 132.531C208.563 117.719 202.75 109.437 193.437 98.7187C187.469 91.8437 183.5 87.3125 177.156 81.7187C170.406 75.75 162.219 68.6562 149.719 63.4687C141.75 60.2187 134.75 58.8437 130.062 58.1875Z" fill="#494949"/>
<path opacity="0.11" d="M230.406 148.969C230.125 150.969 229.563 154.031 228.156 157.5C224.906 165.531 219.906 169.031 209.469 179.594C204.531 184.594 197.188 192 197.875 192.812C198.531 193.594 206.563 187.406 220.594 178.156C228.813 172.719 235.719 168.5 240.25 165.75C236.969 160.156 233.688 154.562 230.406 148.969Z" fill="#494949"/>
<path opacity="0.08" d="M240.906 166.688C240.469 166.781 241.531 170.188 240.25 174.438C239.312 177.563 237.719 179.063 233.813 183.781C232.125 185.813 229.656 188.875 226.719 192.813C232.844 188.625 238.969 184.438 245.094 180.25C242.312 169.188 241.281 166.625 240.906 166.688Z" fill="#494949"/>
<path d="M188.125 268.969C188.219 269.875 188.562 270.594 189.094 271.469C191.344 275.094 195.062 277.312 197.75 278.594C196.687 281.938 195.406 286.75 194.469 292.625C193.594 298.281 192.562 304.875 193.906 305.312C194.375 305.469 195.75 305.031 208.531 279.719C210.312 276.188 211.781 273.25 212.75 271.25C205.937 268.188 199.156 265.094 192.344 262.031C191.687 262.531 187.781 265.375 188.125 268.969Z" fill="#161616" stroke="#161616" stroke-width="2" stroke-miterlimit="10"/>
<path d="M173.875 199.843C168.125 203.843 164.406 207.718 161.094 211.218C159.75 212.625 153.313 219.468 146.531 230.218C143.531 234.968 141.312 239.156 139.781 242.312C139.969 243.593 140.406 245.437 141.563 247.281C142.844 249.343 144.281 250.25 146.531 252.25C149.281 254.687 150.281 256.125 151.875 257.75C154.969 260.937 159.313 263.343 167.875 268.062C178.625 273.968 184.406 276.125 186.188 276.781C188.375 277.562 190.219 278.156 191.531 278.562C192.156 275.656 192.906 272.562 193.844 269.312C194.688 266.406 195.594 263.687 196.5 261.156C189.844 256.281 183 250.812 176.063 244.625C173.656 242.5 171.344 240.343 169.125 238.218C171.375 235.5 174.531 231.937 178.531 228.093C179.688 226.968 182.125 224.656 185.094 222.218C188.844 219.187 194.5 215.125 202.313 211.375C203.656 202.406 202.063 194.031 197.156 191.312C191.031 187.937 181.719 194.406 173.875 199.843Z" fill="white"/>
<path d="M167.563 204.499C156.5 213.874 147.344 225.468 140.844 238.437C140.188 239.781 139.25 241.281 139.125 242.781C139 244.374 139.969 245.593 140.844 246.812C142.938 249.656 145.313 252.312 147.844 254.781C153.219 259.937 159.406 264.187 165.906 267.781C173.906 272.218 182.375 275.749 190.813 279.249C191.375 279.468 191.625 278.562 191.063 278.343C177.25 272.593 163.156 266.718 151.625 256.937C149.031 254.718 146.563 252.343 144.344 249.749C143.188 248.374 142.031 246.968 141.031 245.499C140.406 244.593 139.938 243.749 140.094 242.593C140.25 241.468 140.906 240.406 141.406 239.374C144.406 233.281 148 227.499 152.125 222.093C156.844 215.874 162.25 210.218 168.219 205.187C168.688 204.781 168.031 204.124 167.563 204.499Z" fill="black"/>
<path d="M194.063 215.281C183.344 222.219 173.969 231 166.375 241.25C166.031 241.75 166.844 242.219 167.188 241.719C174.688 231.594 183.969 222.906 194.531 216.063C195.031 215.781 194.563 214.969 194.063 215.281Z" fill="black"/>
<path d="M168.593 238.687C177.375 246.625 186.406 254.25 195.718 261.531C196.187 261.906 196.844 261.25 196.375 260.875C187.062 253.594 178 245.969 169.25 238.031C168.812 237.625 168.156 238.281 168.593 238.687Z" fill="black"/>
<path d="M195.75 261.406C193.781 266.968 192.25 272.656 191.125 278.437C191 279.031 191.906 279.281 192.031 278.687C193.156 272.906 194.719 267.218 196.656 261.656C196.844 261.093 195.938 260.843 195.75 261.406Z" fill="black"/>
<path opacity="0.11" d="M185.969 211.781C181.656 212.156 178.406 215.312 168.375 229.25C164.531 234.594 161.312 239.25 158.844 242.937C162.406 245.437 165.219 247.5 167 248.844C176.969 256.312 181.156 260.5 189.625 265.062C191.469 266.062 193 266.781 193.906 267.187C194.625 265.219 195.344 263.25 196.031 261.281C193.656 259.219 191.281 257.187 188.875 255.125C182.25 249.5 175.688 244.062 169.156 238.781C171.875 234.969 174.438 232.094 176.313 230.125C181.844 224.344 187.344 220.437 191.625 217.437C193.094 216.406 194.344 215.594 195.156 215.062C191.125 211.969 187.969 211.594 185.969 211.781Z" fill="#494949"/>
<path opacity="0.08" d="M187.219 219.938C184.531 220.562 180.938 221.781 177.281 224.219C168.344 230.187 165.344 239.312 164.469 242.438C169.281 246.188 174.25 249.969 179.406 253.75C184.406 257.437 189.375 260.938 194.219 264.312C194.938 263.281 195.656 262.219 196.344 261.188C189.688 256.344 182.781 250.75 175.875 244.344C173.688 242.344 171.594 240.312 169.594 238.312C170.688 236.875 171.875 235.406 173.125 233.906C177.813 228.344 182.625 223.75 187.219 219.938Z" fill="#494949"/>
<path d="M246.375 258.75C249.688 261.875 253.031 265.031 256.344 268.156C255.469 288.094 257.125 292.781 258.875 293.125C261.594 293.656 266.25 284.25 268.281 276.844C269.813 271.219 269.969 266.281 269.812 262.938C264.625 258.312 259.438 253.688 254.25 249.031C251.625 252.281 249 255.531 246.375 258.75Z" fill="#161616" stroke="#161616" stroke-width="2" stroke-miterlimit="10"/>
<path d="M181.343 202.531C181.625 207.719 185.25 210.875 185.25 210.875C187.5 212.844 190.031 213.375 191.281 213.531C192.281 213.938 193.281 214.375 194.312 214.781C195.875 217.031 198.187 220.219 201.25 223.844C205.312 228.719 210.781 234.531 224.156 245.531C230.75 250.938 239.25 257.594 249.531 264.906C251 264.188 252.75 263.125 254.5 261.562C258.343 258.156 260.125 254.188 260.937 251.938C259.125 250.188 256.437 247.563 253.312 244.313C239.437 229.969 230.187 217.688 223.125 208.25C218.468 202.031 212.5 193.75 205.906 183.75C190.812 187.875 180.968 195.875 181.343 202.531Z" fill="white"/>
<path d="M186.187 212.063C188.687 212.938 191.156 213.781 193.656 214.656C194.218 214.844 194.468 213.937 193.906 213.75C191.406 212.875 188.937 212.031 186.437 211.156C185.875 210.969 185.625 211.875 186.187 212.063Z" fill="black"/>
<path d="M192.625 213.719C204.375 229.875 219.594 242.937 235.375 255.031C239.906 258.5 244.5 261.937 249.094 265.344C249.594 265.719 250.031 264.875 249.562 264.531C233.75 252.812 217.844 240.937 204.406 226.5C200.5 222.312 196.844 217.875 193.469 213.25C193.094 212.781 192.281 213.25 192.625 213.719Z" fill="black"/>
<path d="M211.062 191.937C222.124 208.906 234.593 224.906 248.343 239.781C252.312 244.094 256.405 248.281 260.562 252.375C260.999 252.812 261.655 252.125 261.218 251.719C246.749 237.531 233.499 222.125 221.624 205.719C218.249 201.062 214.999 196.312 211.843 191.469C211.53 190.969 210.718 191.437 211.062 191.937Z" fill="black"/>
<path d="M260.031 251.781C258.218 257.156 254.718 262.156 249.437 264.531C248.874 264.781 249.374 265.593 249.906 265.343C255.406 262.875 259.031 257.625 260.906 252.031C261.124 251.468 260.218 251.218 260.031 251.781Z" fill="black"/>
<path opacity="0.09" d="M211.094 191.438C209.313 189.031 207.813 187.062 206.813 185.781C205.813 187.625 204.438 190.719 204.313 194.563C204.031 203.25 210.406 206.969 228.688 227.219C236.656 236.031 240.875 241.344 251.156 251.844C253.563 254.281 255.594 256.313 257.063 257.75C258.188 255.781 259.313 253.813 260.469 251.844C250.563 241.906 242.719 232.938 236.844 225.844C231.188 219 226.125 212.875 220.906 205.25C219.563 203.344 216.156 198.25 211.094 191.438Z" fill="#494949"/>
<path opacity="0.09" d="M216.625 200.219C217.062 202.375 217.969 206.031 219.75 210.281C224.906 222.406 232.531 227.531 246.25 242.688C248.875 245.594 252.938 250.188 257.688 256.125C258.781 254.563 259.875 253.031 260.969 251.469C259.969 250.531 258.375 249.062 256.438 247.187C252.875 243.75 243.219 234.156 224.781 210.75C222.781 208.25 219.969 204.625 216.625 200.219Z" fill="#494949"/>
<path d="M115.187 172.593C114.562 172.843 113.625 173.375 110.844 177.843C107.844 182.656 105.812 185.937 104.312 191.125C103 195.75 102.687 199.968 102.781 203.406C103 204.406 103.156 205.875 102.656 207.5C102 209.562 100.812 210.062 98.5625 212.875C97.6562 214 96.1562 215.906 94.9687 218.5C93.6562 221.406 94.3125 221.781 93.0625 224.625C91.5625 228.031 89.3437 230.375 88.9687 230.75C86.9062 232.906 85.9062 232.968 85 234.843C83.9687 236.968 84.2812 238.968 84.375 239.562C84.4375 240 85.0937 243.812 87.3125 244.281C87.9062 244.406 88.8437 244.343 89.2187 243.781C89.8125 242.906 88.4375 241.687 88.1875 239.562C87.9687 237.625 88.8125 236.062 89.3437 235.093C90.9375 232.125 92.7812 232.562 94.4687 230.093C96.0937 227.656 94.5625 226.906 96.125 222.312C97 219.75 97.875 217.187 100.219 215.281C101.281 214.406 102.312 213.937 103.281 212.468C104.125 211.187 104.437 209.906 104.562 209.031C106.281 211.781 108.094 213.562 109.406 214.656C111.156 216.093 113.156 217.781 114.844 217.156C115.75 216.812 116.562 215.781 116.406 215.062C116.312 214.656 115.937 214.531 114.969 213.656C114.969 213.656 114.594 213.312 113.75 212.406C113.187 211.812 112.375 210.718 111.656 208.656C111.937 208.343 112.656 207.656 113.625 207.593C114.687 207.562 115.5 208.312 116.312 209.125C117.844 210.625 117.781 211.531 118.75 212.437C119.5 213.156 120.875 213.906 123.594 213.718C123.469 213.375 123.25 212.812 122.969 212.187C122 210.093 121.5 209.875 121.437 209C121.406 208.312 121.687 208.125 122.969 205.937C124.062 204.062 124.594 203.125 124.625 202.625C124.781 200.781 123.187 200.156 122.844 198.031C122.531 196.25 123.312 194.812 123.875 193.687C127.125 187.093 129.187 182.906 128.594 179.75C127.687 174.812 119.812 170.656 115.187 172.593Z" fill="#161616"/>
<path d="M113.75 173.718C109.219 178.343 106.313 184.219 104.375 190.344C102.5 196.312 101.094 203.125 104.063 208.968C104.344 209.5 105.156 209.031 104.875 208.5C101.938 202.75 103.531 195.937 105.438 190.094C107.313 184.281 110.094 178.781 114.406 174.375C114.813 173.937 114.156 173.281 113.75 173.718Z" fill="#161616"/>
<path d="M109.062 200.718C109.437 200.531 109.812 200.374 110.187 200.187C110.468 200.343 110.75 200.531 111.031 200.687C111.375 200.999 111.687 201.406 111.906 201.812C112.343 202.562 112.562 203.468 112.5 204.343C112.375 206.031 111.156 207.343 110.843 208.968C110.656 209.968 111.312 210.687 111.875 211.437C112.843 212.718 113.968 213.906 115.187 214.968C115.625 215.374 116.312 214.718 115.843 214.312C115.062 213.593 114.281 212.874 113.593 212.062C112.468 210.781 111.468 209.687 112.25 207.906C112.937 206.343 113.656 204.874 113.343 203.093C113.093 201.718 112.312 200.312 111.093 199.562C110.062 198.937 108.812 199.062 108.25 200.218C107.968 200.781 108.781 201.249 109.062 200.718Z" fill="#161616"/>
<path d="M104.125 209.094C105.938 212 108.438 214.406 111.469 216C112.375 216.469 114.094 217.563 115.188 217.094C116.219 216.656 116.031 215.406 115.75 214.563C115.563 214 114.656 214.25 114.844 214.813C115.563 217.094 112.531 215.5 111.938 215.188C110.969 214.688 110.063 214.094 109.188 213.406C107.469 212.063 106.063 210.438 104.906 208.594C104.625 208.125 103.813 208.594 104.125 209.094Z" fill="#161616"/>
<path d="M125.656 180.406C123.813 186.593 122.656 192.968 122.125 199.406C122.094 199.593 122.281 199.812 122.469 199.843C124.438 200.375 124.156 202.812 123.438 204.187C122.719 205.5 121.594 206.593 121.031 208C120.031 210.531 123 211.343 122.938 213.562C123.094 213.406 123.25 213.25 123.406 213.093C120.594 212.937 118.219 211.437 116.812 209C115.812 207.25 114.656 206.875 112.656 207C112.062 207.031 112.062 207.968 112.656 207.937C113.406 207.906 114.312 207.812 115 208.187C115.594 208.531 115.781 209.125 116.094 209.656C116.625 210.562 117.312 211.375 118.125 212.031C119.656 213.281 121.437 213.906 123.375 214.031C123.625 214.031 123.844 213.812 123.844 213.562C123.875 212.25 123 211.468 122.281 210.468C120.781 208.375 123.25 206.437 124.219 204.656C125.281 202.718 125.25 199.593 122.688 198.937C122.813 199.093 122.906 199.25 123.031 199.375C123.531 193 124.719 186.75 126.531 180.625C126.719 180.093 125.813 179.843 125.656 180.406Z" fill="#161616"/>
<path d="M102.469 203.688C102.688 205.562 102.438 207.406 101.531 209.094C100.688 210.687 99.3125 211.844 97.9687 213.062C95.5937 215.281 94.5 217.719 93.75 220.844C92.9375 224.156 91.9687 226.812 89.5625 229.312C87.75 231.156 85.625 232.875 84.5 235.281C83.4062 237.625 83.5625 240.344 84.9688 242.531C85.7812 243.812 88.5625 246.375 89.625 243.937C90.0625 242.937 89.5625 241.688 89.2187 240.719C88.9062 239.875 88.5 239.031 88.5 238.094C88.5 236.781 89.25 235.656 90.125 234.75C92.25 232.531 94.9688 231.281 95.9062 228.125C96.4375 226.344 96.0625 224.562 96.1875 222.75C96.3437 220.5 97.4062 218.594 99.0312 217.062C101.5 214.719 104.781 212.781 104.781 208.969C104.781 208.375 103.844 208.375 103.844 208.969C103.812 212.625 100.25 214.437 98 216.75C96.25 218.531 95.25 220.781 95.2187 223.281C95.1875 224.937 95.4687 226.5 94.9062 228.094C94.2812 229.906 92.9688 231.125 91.5312 232.312C89.6875 233.781 87.5625 235.5 87.5625 238.094C87.5625 239.344 88.1875 240.469 88.5625 241.656C88.6562 241.969 89 242.812 88.8437 243.062C88.5312 243.094 88.1875 243.156 87.875 243.187C87.3125 243.531 86.875 243.469 86.5625 243C85.875 242.562 85.2812 241.25 85.0312 240.5C84.0312 237.562 85.4062 234.937 87.375 232.812C89.0312 231 90.9687 229.469 92.3437 227.406C93.8125 225.219 94.25 222.625 94.875 220.125C95.3437 218.312 95.9687 216.562 97.2187 215.125C98.3125 213.844 99.6875 212.875 100.812 211.625C102.812 209.437 103.719 206.594 103.375 203.688C103.344 203.094 102.406 203.094 102.469 203.688Z" fill="#161616"/>
<path d="M82.1877 165.625C81.5314 166 80.3127 166.656 80.0627 168.031C79.7502 169.562 80.8439 170.812 81.0002 170.969C80.8127 171.187 80.2502 171.844 80.1877 172.844C80.1252 174.5 81.5939 175.469 81.6564 175.531C81.5939 175.594 80.6877 176.531 81.0002 177.812C81.2502 178.906 82.2189 179.375 82.3439 179.406C82.2814 179.594 82.0627 180.406 82.4689 181.156C83.0939 182.281 84.5939 182.219 84.7502 182.219C85.8127 182.156 86.8127 181.437 87.2814 180.344C87.8752 180.687 89.4377 181.5 91.5627 181.281C93.0002 181.125 94.0627 180.562 94.6252 180.219C95.7502 182.187 97.5002 184.844 100.094 187.562C102.375 189.937 106.625 194.406 112.938 196.25C120.813 198.562 127.781 195.562 131.781 193.844C142.531 189.219 147.875 180.719 149.844 177.531C153.156 172.094 154.313 167.437 155.313 163.219C156.938 156.531 156.375 153.906 155.844 152.375C155.531 151.437 153.688 146.062 149.438 145.437C145.969 144.906 143.094 147.875 142.75 148.25C141.563 149.5 140.938 151.156 139.688 154.406C139.063 156.062 138.656 157.312 138.469 157.875C136.438 164.469 135.406 167.75 135.125 168.437C134.375 170.312 132.594 174.594 128.313 177.937C124.219 181.125 119.938 181.812 118.031 182.094C115.156 182.5 111.625 183 107.875 181.156C103.688 179.094 101.813 175.344 101.313 174.344C99.8127 171.25 99.5314 167.812 99.3127 165.375C99.0314 162.25 99.2502 159.812 97.4377 157.875C97.0939 157.531 96.2814 156.656 95.4377 156.812C94.2189 157.062 93.5314 159.406 92.9064 161.625C92.3752 163.5 92.5314 163.719 92.0939 164.156C91.1877 165.062 90.0314 164.594 86.0627 164.812C83.7502 164.969 82.9377 165.219 82.1877 165.625Z" fill="white"/>
<path d="M88.6561 164.281C85.2811 163.656 79.3436 164.531 79.8123 169.156C80.2186 173.312 85.1561 174.031 88.1248 172.219C88.6248 171.906 88.1561 171.094 87.6561 171.406C85.1873 172.906 80.7186 172.5 80.7186 168.75C80.7186 165.125 85.8123 164.719 88.4061 165.187C88.9998 165.312 89.2498 164.406 88.6561 164.281Z" fill="black"/>
<path d="M80.6243 170.687C77.2493 174.812 85.3744 180 87.7806 174.812C88.0306 174.281 87.2181 173.781 86.9681 174.344C85.0931 178.344 78.8431 174.344 81.3119 171.344C81.6869 170.906 81.0306 170.219 80.6243 170.687Z" fill="black"/>
<path d="M80.8127 174.874C80.0939 176.499 80.5939 178.562 82.2502 179.406C83.8752 180.249 85.9064 179.468 86.7502 177.906C87.0314 177.374 86.2189 176.906 85.9377 177.437C85.3127 178.531 83.9064 179.156 82.7189 178.593C81.5314 178.031 81.0939 176.499 81.6252 175.343C81.8752 174.812 81.0627 174.343 80.8127 174.874Z" fill="black"/>
<path d="M81.5625 179.062C81.4375 180.719 82.4063 182.219 84.0938 182.563C85.6563 182.875 87.0938 181.844 87.6251 180.438C87.8438 179.875 86.9375 179.625 86.7188 180.188C86.3125 181.25 85.1875 181.938 84.0625 181.594C82.9063 181.25 82.4375 180.188 82.5 179.062C82.5313 178.469 81.5938 178.469 81.5625 179.062Z" fill="black"/>
<path d="M84.5313 168.843C85.3438 168.75 86.1876 168.781 86.8751 169.25C87.5313 169.687 87.9063 170.562 87.5313 171.281C87.2501 171.812 88.0626 172.281 88.3438 171.75C88.8438 170.781 88.6251 169.656 87.8751 168.875C87.0313 167.968 85.6876 167.781 84.5001 167.906C83.9376 168 83.9376 168.937 84.5313 168.843Z" fill="black"/>
<path d="M87.4373 181.062C89.0623 180.469 90.6248 181.812 92.3123 181.625C93.5936 181.469 94.7186 180.781 95.7811 180.156C96.2811 179.844 95.8123 179.031 95.3123 179.344C93.7186 180.312 92.3436 181 90.4373 180.437C89.2811 180.094 88.3748 179.719 87.1873 180.156C86.6248 180.375 86.8436 181.281 87.4373 181.062Z" fill="black"/>
<path d="M88.4061 165.093C90.0311 165.656 92.2186 165.75 93.1249 163.968C93.6249 162.968 93.3124 161.75 93.5311 160.687C93.7811 159.25 94.5936 158.062 95.7186 157.156C96.1874 156.781 95.5311 156.125 95.0624 156.5C93.8436 157.5 92.9686 158.875 92.6561 160.437C92.4999 161.312 92.7186 162.343 92.4686 163.187C91.9061 164.875 90.0311 164.656 88.7186 164.187C88.0936 164 87.8436 164.906 88.4061 165.093Z" fill="black"/>
<path d="M95.0309 157.219C97.6872 157.562 98.0309 162.031 98.4684 164.062C98.9997 166.719 99.2809 169.406 99.7809 172.062C100.593 176.312 103.062 179.687 107 181.594C111.125 183.562 115.812 183.469 120.125 182.281C124.562 181.031 129.156 178.781 132.031 175.062C132.406 174.594 131.75 173.937 131.375 174.406C128.375 178.281 123.5 180.562 118.812 181.656C114.093 182.75 108.937 182.344 105 179.281C100.75 176 100.656 171.062 99.8122 166.156C99.4059 163.844 99.0622 161.344 98.2184 159.156C97.6872 157.781 96.8434 156.531 95.3122 156.312C94.6872 156.219 94.4372 157.125 95.0309 157.219Z" fill="black"/>
<path d="M94.3434 180.781C98.1247 185.406 101.781 190.688 106.781 194.094C111.687 197.406 117.75 197.75 123.437 196.813C135 194.875 144.812 187.031 150.437 176.906C153.656 171.156 155.562 164.781 156.406 158.25C156.468 157.656 155.531 157.656 155.468 158.25C154.031 169.406 149.156 180.344 140.468 187.719C136.187 191.344 131.093 194.062 125.625 195.375C119.968 196.75 113.437 196.937 108.281 193.906C102.781 190.687 98.9372 184.938 94.9997 180.094C94.6247 179.656 93.9684 180.312 94.3434 180.781Z" fill="black"/>
<path d="M149.875 145.312C147.281 144.281 144.531 145.625 142.719 147.531C140.594 149.718 139.531 152.625 138.75 155.5C137.844 158.843 137.031 162.156 135.75 165.375C134.375 168.843 132.625 172.125 130.625 175.25C130.281 175.75 131.094 176.218 131.438 175.718C134.656 170.75 137.125 165.343 138.656 159.625C139.469 156.625 140 153.5 141.5 150.781C143 148.031 146.188 144.843 149.625 146.218C150.188 146.437 150.438 145.531 149.875 145.312Z" fill="black"/>
<path d="M85.9375 178.562C86.8125 178.625 86.625 180.094 86.4688 180.625C86.2813 181.187 87.1875 181.437 87.375 180.875C87.7813 179.687 87.5 177.75 85.9375 177.625C85.3438 177.594 85.3438 178.531 85.9375 178.562Z" fill="black"/>
<path d="M86.4686 175.687C86.6561 176.437 86.3749 177.218 85.7811 177.656C85.2811 178 85.7499 178.812 86.2499 178.468C87.2186 177.781 87.6874 176.593 87.3749 175.437C87.2499 174.843 86.3436 175.093 86.4686 175.687Z" fill="black"/>
<path d="M86.9993 172.437C87.8431 172.843 87.2806 174.187 86.8743 174.718C86.4993 175.187 87.3118 175.656 87.6868 175.187C88.4056 174.249 88.7806 172.249 87.4681 171.624C86.9368 171.374 86.4681 172.187 86.9993 172.437Z" fill="black"/>
<path opacity="0.11" d="M80.5628 172.562C81.0628 172.281 81.8753 174.031 83.969 174.906C84.7502 175.219 85.719 175.437 90.1565 174.906C91.594 174.719 93.469 174.469 95.719 174.062C96.1565 175.844 97.0627 178.531 98.9065 181.312C99.6877 182.469 102.844 186.969 108.938 189.625C115.469 192.5 121.375 191.531 123.656 191.125C125.594 190.781 131 189.75 135.813 185.563C139.032 182.781 141.094 179.406 144.125 170.625C146.188 164.656 148.688 156.375 150.531 146.094C151.781 147.375 153.719 149.688 154.813 153.125C155.344 154.781 155.844 157.219 155.438 161.031C154.594 169.25 150.469 176.094 147.969 179.594C145.375 183.25 140.75 189.562 132.188 193.469C131.031 194 124.5 196.844 116.188 196.469C114.281 196.375 112.532 196.281 110.375 195.5C108.031 194.656 105.688 192.469 101.032 188.156C99.094 186.375 97.1878 184.5 95.2503 181.781C94.8753 181.25 94.5628 180.781 94.344 180.469C93.6878 180.906 92.719 181.406 91.6252 181.281C90.1565 181.156 89.6565 180.094 88.4377 180.281C87.3752 180.438 87.3752 181.312 86.094 181.781C85.094 182.125 83.6878 182.094 82.7503 181.375C82.0628 180.844 81.969 180.25 81.1878 176.875C80.4378 173.562 80.219 172.75 80.5628 172.562Z" fill="#494949"/>
<path d="M116.281 164.438C115.687 164.562 115.469 165.75 115.094 167.594C114.875 168.719 114.781 169.688 114.75 170.375C113.5 171.844 113.375 173.188 113.344 173.719C113.312 174.813 113.687 175.656 114.406 177.219C114.906 178.344 115.437 179.219 115.812 179.813C114.469 180.125 113.531 181 113.469 181.938C113.406 182.844 114.219 183.562 114.531 183.812C115.937 185.031 116.969 184.125 118.75 185.094C120.187 185.875 120.062 186.75 122.156 187.906C123.469 188.625 123.875 188.469 124.031 188.375C124.562 188.031 124.375 186.906 124.281 186.156C124.156 185.25 123.781 183.875 122.75 182.281C123.969 181.844 125.187 181.406 126.375 181C125.5 181.094 125.312 181.125 125.312 181.125C125.312 181.094 127.469 180.219 129.312 181C130.844 181.656 130.969 183.031 132.25 183.125C132.969 183.187 133.781 182.781 134.125 182.187C134.844 180.969 133.5 179.188 133.187 178.781C131.906 177.094 130.031 176.594 129.187 176.438C129.469 175.813 129.781 174.813 129.844 173.563C129.906 171.438 129.031 169.875 128.625 169.219C128.062 167.375 127.531 165.531 126.969 163.656C126.094 165.688 125.125 166.312 124.375 166.469C123.531 166.656 123.062 166.25 121.687 166.469C120.375 166.688 120.312 167.094 119.562 167.063C117.812 166.875 117.219 164.25 116.281 164.438Z" fill="#161616"/>
<path d="M117.062 174.313C117.594 174.938 118.437 175.344 119.281 175.125C120.031 174.938 120.531 174.312 120.625 173.562C120.656 173.25 120.187 173.25 120.156 173.562C120.094 174.219 119.531 174.688 118.875 174.719C118.281 174.75 117.781 174.406 117.406 173.969C117.187 173.75 116.875 174.094 117.062 174.313Z" fill="white"/>
<path d="M123.75 173.281C124.532 174.406 127.063 174.5 126.969 172.719C126.938 172.406 126.469 172.406 126.5 172.719C126.594 174 124.688 173.812 124.157 173.031C123.969 172.781 123.563 173.031 123.75 173.281Z" fill="white"/>
<path d="M122.531 176.75C122.531 176.781 122.562 176.812 122.562 176.844C122.656 176.875 122.781 176.906 122.875 176.937C122.812 176.812 122.719 176.75 122.562 176.75C122.687 176.719 122.781 176.656 122.906 176.625C122.875 176.594 122.844 176.531 122.812 176.5C122.656 176.562 122.531 176.625 122.375 176.687C122.594 177.031 122.5 177.656 122.375 178C122.219 178.469 121.562 179.094 121.156 178.469C121 178.219 120.594 178.437 120.75 178.719C121.156 179.344 122 179.312 122.469 178.781C122.937 178.25 123.187 177.094 122.781 176.469C122.656 176.25 122.281 176.375 122.344 176.656C122.406 176.844 122.5 176.969 122.656 177.062C122.781 177.156 122.969 177.062 123 176.937C123.062 176.656 122.969 176 122.531 176.187C122.125 176.344 122.281 176.969 122.469 177.219C122.531 177.312 122.687 177.375 122.781 177.312C123.125 177.062 123.125 176.594 122.75 176.406C122.5 176.219 122.281 176.625 122.531 176.75Z" fill="white"/>
<path d="M122.562 176.843C122.687 177.562 122.937 178.437 123.781 178.562C124.625 178.687 124.875 177.874 124.875 177.218C124.875 176.906 124.406 176.906 124.406 177.218C124.406 177.687 124.25 178.343 123.625 178.031C123.156 177.812 123.094 177.187 123.031 176.718C122.969 176.437 122.5 176.562 122.562 176.843Z" fill="white"/>
<path d="M113.937 174.469C114.531 171.219 116.875 168.438 120.062 167.5C123.25 166.563 126.937 167.844 128.406 170.906C128.656 171.438 129.469 170.969 129.219 170.438C127.625 167.156 123.719 165.688 120.25 166.5C116.562 167.375 113.719 170.531 113.031 174.219C112.937 174.813 113.844 175.063 113.937 174.469Z" fill="#161616"/>
<path d="M115.594 169.75C115.562 168.188 115.843 166.625 116.5 165.219C116.562 165.094 116.625 165 116.656 164.875C116.875 164.5 116.906 164.438 116.718 164.688C116.531 164.844 116.562 164.969 116.844 165.156C116.906 165.25 117 165.375 117.062 165.469C117.531 166.219 117.937 167 118.281 167.813C118.5 168.375 119.406 168.125 119.187 167.563C118.875 166.813 117.437 163 116.219 163.844C115.625 164.25 115.25 165.625 115.062 166.281C114.719 167.406 114.593 168.594 114.625 169.781C114.687 170.344 115.625 170.344 115.594 169.75Z" fill="#161616"/>
<path d="M125.125 167.218C125.437 166.687 125.75 166.156 126.094 165.625C126.25 165.406 126.469 165.187 126.562 164.937C126.781 164.812 126.812 164.687 126.687 164.531C126.562 164.312 126.594 164.375 126.75 164.718C127.281 166.062 127.656 167.375 127.812 168.843C127.875 169.437 128.812 169.437 128.75 168.843C128.656 167.812 128.469 166.812 128.187 165.812C128 165.25 127.719 163.968 127.187 163.625C126.781 163.375 126.437 163.562 126.156 163.906C125.437 164.75 124.875 165.781 124.312 166.75C124 167.25 124.812 167.718 125.125 167.218Z" fill="#161616"/>
<path d="M113.094 173.969C112.875 179.219 117.625 183.719 122.907 182.625C125.344 182.125 127.594 180.531 128.75 178.312C129.969 175.969 130.657 172.25 129.063 169.937C128.719 169.437 127.907 169.906 128.25 170.406C129.657 172.5 128.969 175.937 127.844 178.031C126.813 179.937 124.782 181.281 122.657 181.719C117.938 182.656 113.844 178.594 114.032 173.969C114.032 173.344 113.094 173.344 113.094 173.969Z" fill="#161616"/>
<path d="M113.75 182.218C114.5 179.437 118.25 179.593 120.219 180.812C122.313 182.062 123.375 184.499 123.594 186.843C123.656 187.499 123.906 188.155 122.813 187.749C122.406 187.593 121.875 186.999 121.563 186.687C121 186.124 120.5 185.53 119.875 185.062C119.188 184.53 118.469 184.218 117.625 184.062C116.313 183.812 113.938 183.968 113.813 182.093C113.781 181.499 112.844 181.499 112.875 182.093C112.969 183.312 113.75 184.124 114.875 184.53C115.75 184.843 116.719 184.78 117.625 184.999C118.75 185.28 119.5 185.874 120.281 186.687C121.063 187.468 122.406 189.218 123.75 188.968C124.875 188.749 124.625 187.468 124.531 186.624C124.188 183.624 122.594 180.655 119.656 179.499C117.188 178.53 113.625 179.093 112.875 181.999C112.688 182.562 113.594 182.812 113.75 182.218Z" fill="#161616"/>
<path d="M126.218 178.156C127.5 176.437 130.406 177.125 131.75 178.281C132.531 178.937 133.062 179.843 133.312 180.843C133.375 181.156 133.531 181.812 133.437 182.156C133.125 183.062 132.468 182.781 131.906 182.343C131.125 181.75 130.531 180.906 129.562 180.531C129.093 180.343 128.625 180.312 128.125 180.343C127.656 180.343 127.218 180.468 126.75 180.406C125.875 180.281 124.656 179.468 126.125 178.343C126.593 177.968 125.937 177.312 125.468 177.687C124.75 178.25 124.375 179.093 124.687 180C125.125 181.187 126.25 181.437 127.406 181.375C128.562 181.312 129.312 181.343 130.25 182.125C130.687 182.5 131.062 182.937 131.562 183.281C132.218 183.75 133.187 184.187 133.906 183.531C135.562 182 133.656 178.593 132.343 177.531C130.468 176 127.031 175.562 125.468 177.718C125.062 178.156 125.875 178.625 126.218 178.156Z" fill="#161616"/>
<path d="M115.562 179.624C117.593 178.968 120.687 180.249 121.937 181.906C122.031 182.031 122.218 181.905 122.125 181.78C120.812 179.999 117.687 178.687 115.5 179.406C115.343 179.437 115.406 179.656 115.562 179.624Z" fill="white"/>
<path d="M126.437 178.281C127.343 177.218 128.656 176.75 130.031 177.031C130.187 177.062 130.25 176.843 130.093 176.812C128.656 176.531 127.218 177 126.281 178.125C126.187 178.25 126.343 178.406 126.437 178.281Z" fill="white"/>
<path d="M116.719 164.968C117.031 165.78 117.25 166.593 117.344 167.437C117.406 167.405 117.469 167.374 117.531 167.343C117.375 167.187 117.219 167.093 117.031 166.999C116.937 166.968 116.844 166.999 116.844 167.093C116.844 167.374 116.812 167.624 116.812 167.905C116.875 167.874 116.937 167.843 117 167.812C116.562 167.312 116.219 168.437 116.094 168.655C116.031 168.78 116.219 168.905 116.281 168.78C116.312 168.718 116.719 167.843 116.812 167.968C116.875 168.062 117 167.968 117 167.874C117 167.593 117.031 167.343 117.031 167.062C116.969 167.093 116.906 167.124 116.844 167.155C117.031 167.218 117.156 167.312 117.281 167.468C117.344 167.53 117.5 167.499 117.469 167.374C117.344 166.499 117.156 165.655 116.812 164.843C116.875 164.78 116.656 164.843 116.719 164.968Z" fill="white"/>
<path d="M126.375 164.562C126.031 165.218 125.844 165.874 125.781 166.624C125.781 166.687 125.875 166.75 125.938 166.75C126.375 166.625 126.438 166.968 126.469 167.343C126.469 167.437 126.594 167.5 126.656 167.437C126.812 167.687 126.938 167.906 127.094 168.156C127.063 168.312 127.313 168.375 127.313 168.218C127.375 167.781 127.094 166.656 126.5 167.281C126.562 167.312 126.625 167.343 126.688 167.375C126.656 167.093 126.594 166.843 126.531 166.562C126.531 166.499 126.469 166.468 126.406 166.468C126.188 166.468 126.031 166.499 125.844 166.562C125.906 166.593 125.938 166.624 126 166.687C126.031 165.999 126.219 165.374 126.562 164.749C126.656 164.531 126.438 164.406 126.375 164.562Z" fill="white"/>
<path d="M145.969 146.032C146.406 149.032 147.25 153.782 149 159.407C152.687 171.157 157.031 176.188 162.781 189.813C164.219 193.219 166.25 198.344 168.25 204.813C171.969 206.032 178.875 207.688 187.312 206.219C201.187 203.813 209.344 194.625 211.625 191.844C206.875 183.094 202.094 173.625 197.437 163.469C192.812 153.407 188.781 143.719 185.281 134.5C182.344 133.407 174.656 130.969 165.219 133.282C153.937 136 147.719 143.719 145.969 146.032Z" fill="#03DAC5"/>
<path opacity="0.13" d="M173.406 132.219C174.594 134.719 176.094 138.125 177.688 142.25C182.688 155.375 184.5 166.156 185.156 170C186.562 177.937 187.781 190.25 185.781 206.062C190.125 205.938 193.344 204.938 195.375 204.156C201.187 201.844 205.406 197.812 209.469 193.906C210.406 193.031 211.125 192.25 211.594 191.781C210.25 189.469 208.219 185.844 205.844 181.312C198.969 168.25 194.469 157.406 190.687 148.219C189.344 145 187.5 140.375 185.344 134.781C183.625 134.062 181.469 133.344 178.938 132.875C176.875 132.469 175 132.281 173.406 132.219Z" fill="#494949"/>
<path opacity="0.1" d="M194.094 157C194.625 162.594 195.062 167.281 195.375 170.656C196.562 183.875 196.781 187.531 196.875 189.875C197.125 195.406 197.125 199.938 197.094 202.906C199.031 202.219 201.531 201.094 204.125 199.281C207.375 197 209.562 194.5 210.969 192.656C205.344 180.75 199.719 168.875 194.094 157Z" fill="#494949"/>
<path d="M171.906 126.719C170.406 127.156 169.594 129.313 169.094 131.531C168.094 136.063 168.625 139.938 168.812 141.281C169.719 147.25 171.344 151.719 171.875 153.188C173.25 156.813 175.125 161.656 179.219 166.813C181.562 169.75 183.562 172.281 187.25 174.156C189.406 175.281 193.875 177.563 198.469 175.75C198.687 175.656 203.187 173.813 204.344 169.875C204.594 169 204.656 168.125 204.75 166.406C204.812 165.375 204.844 163.563 204.625 161.313C204.312 158.344 203.656 156.031 203.156 154.375C200.937 147.031 199.844 143.375 197.531 140.188C195.625 137.563 193.469 134.563 189.906 134.156C189.594 134.125 186 133.781 183.875 136.281C182.406 138.031 182.5 140.188 182.531 141.625C182.625 144.375 183.687 146.344 185.344 149.375C187 152.375 187.656 152.75 189.625 156.313C192.312 161.188 192.031 161.656 191.906 161.781C191.375 162.25 189.25 160.781 188.781 160.438C188.344 160.125 187.719 159.688 186.937 158.844C184.5 156.125 183.062 152.031 183.062 152.031C181.781 149.5 180.094 145.906 178.375 141.344C178.906 139.313 179.719 137.875 180.375 136.938C181.437 135.438 182.625 134.406 182.906 132.531C183.031 131.813 182.969 131.188 182.906 130.781C183.437 130.281 183.594 129.531 183.312 128.906C182.969 128.188 182.125 127.844 181.312 128.094C181.312 128 181.219 127.188 180.5 126.75C179.906 126.375 179.094 126.438 178.5 126.875C177.562 126.156 176.781 125.969 176.219 125.938C175.562 125.906 175.25 126.063 173.687 126.344C172.375 126.688 172.281 126.625 171.906 126.719Z" fill="white"/>
<path d="M179.75 139.906C180.593 137.813 181.656 135.906 182.812 133.969C183.406 132.969 184.093 131.719 183.281 130.625C181.437 128.25 178.937 131.281 178.156 132.844C177.875 133.375 178.687 133.844 178.968 133.313C179.437 132.375 179.968 131.219 181.062 130.906C181.375 130.75 181.687 130.75 182.031 130.844C182.125 131.563 182.218 132.281 182.343 133C182.25 133.406 181.687 134.063 181.468 134.438C180.468 136.094 179.656 137.844 178.906 139.625C178.625 140.219 179.531 140.438 179.75 139.906Z" fill="black"/>
<path d="M169.531 143.938C169.063 140.594 169 137.188 169.375 133.844C169.719 130.782 170.375 126.125 174.625 127C175.219 127.125 175.469 126.219 174.875 126.094C171.531 125.407 169.438 127.782 168.875 130.813C168.031 135.219 168 139.719 168.625 144.188C168.719 144.782 169.625 144.532 169.531 143.938Z" fill="black"/>
<path d="M173.438 129.531C173.782 128.719 174.157 127.875 174.813 127.25C175.938 126.156 177.375 126.75 178.594 127.344C179.125 127.625 179.594 126.812 179.063 126.531C177.782 125.875 176.344 125.25 174.969 125.969C173.782 126.594 173.157 127.875 172.657 129.031C172.407 129.625 173.219 130.094 173.438 129.531Z" fill="black"/>
<path d="M176.219 129.812C177.376 128.312 178.907 126.75 180.907 127.937C181.438 128.25 181.907 127.437 181.376 127.125C179.001 125.719 177.001 127.25 175.563 129.125C175.188 129.625 175.844 130.281 176.219 129.812Z" fill="black"/>
<path d="M178.312 130.5C178.906 129.875 179.531 129.219 180.344 128.906C181.312 128.5 183.094 128.75 182.719 130.219C182.594 130.812 183.469 131.062 183.625 130.469C183.937 129.187 183.094 128 181.812 127.781C180.094 127.469 178.75 128.719 177.656 129.844C177.25 130.281 177.906 130.937 178.312 130.5Z" fill="black"/>
<path d="M178.687 139.437C177.594 141.781 178.937 144.156 179.875 146.312C181.187 149.343 182.562 152.374 184.25 155.187C186.437 158.874 191.187 165.499 196.156 161.718C196.625 161.343 196.156 160.531 195.687 160.906C190.906 164.562 186.469 157.187 184.531 153.781C183.406 151.781 182.406 149.718 181.469 147.624C180.531 145.531 178.437 142.249 179.531 139.906C179.75 139.374 178.937 138.874 178.687 139.437Z" fill="black"/>
<path d="M182.719 137.062C179.969 146.406 188.406 153.656 191.5 161.656C191.719 162.218 192.625 161.968 192.406 161.406C189.406 153.656 180.969 146.343 183.625 137.312C183.781 136.718 182.875 136.468 182.719 137.062Z" fill="black"/>
<path d="M168.594 143.687C170.187 152.437 173.906 160.718 179.375 167.75C182.031 171.125 185.062 174.406 189.25 175.781C192.812 176.937 197.719 177.531 201.031 175.375C204.656 173.062 205.125 168.343 205.281 164.437C205.312 163.843 204.375 163.843 204.344 164.437C204.156 169.468 203.031 175.031 197.062 175.75C191.562 176.406 186.437 174.218 182.719 170.25C175.812 162.906 171.281 153.312 169.469 143.437C169.406 142.843 168.5 143.093 168.594 143.687Z" fill="black"/>
<path d="M183.344 138.313C184.344 134.313 189.156 134.031 192.156 135.781C195.219 137.563 197.313 140.781 198.844 143.875C200.438 147.125 201.594 150.625 202.719 154.063C204 158 204.969 162.125 204.313 166.281C204.219 166.875 205.125 167.125 205.219 166.531C205.969 161.781 204.781 157.188 203.25 152.688C201.844 148.594 200.469 144.375 198.125 140.688C196.156 137.563 193.219 134.313 189.344 133.781C186.344 133.375 183.156 135 182.406 138.063C182.281 138.656 183.188 138.906 183.344 138.313Z" fill="black"/>
<path opacity="0.1" d="M173.062 126.313C175.562 125.313 178 126.406 178.593 126.688C176.843 129 173.125 134.594 172.812 142.5C172.343 153.75 179.062 161.219 181.437 163.875C184.5 167.281 188.5 171.719 193.656 171.094C196.562 170.75 199.312 168.813 200.718 166.344C202.125 163.875 202.031 161.188 200.343 154.25C197.75 143.75 194.906 137.594 195.312 137.406C195.718 137.219 199.093 142.5 201.625 149.125C201.875 149.813 203.968 155.375 204.718 163.031C205.187 167.75 204.781 169.688 203.812 171.406C202.312 174.063 199.875 175.25 198.937 175.656C195.156 177.25 191.531 176.125 189.812 175.531C183.656 173.469 180.375 168.469 177.062 163.438C171.968 155.656 170.562 149 169.218 142.594C168.281 138.156 167.656 133 170 129.219C170.406 128.438 171.312 127.031 173.062 126.313Z" fill="#494949"/>
<path d="M127.937 111.094C127.844 112.562 128.375 114.219 129.5 117.531C130.75 121.25 132.094 125.219 135.469 129.125C137.625 131.625 140.25 134.687 144.719 135.562C148.25 136.25 151.219 135.25 152.719 134.625C153.062 135.562 153.531 136.562 154.125 137.594C155.687 140.344 157.625 142.281 159.156 143.562C160.312 143.437 162.562 142.969 164.5 141.219C166 139.844 166.719 138.219 167.156 137.156C167.687 135.906 167.969 134.812 168.094 134.031C167.156 133.469 166.125 132.719 165.125 131.687C162 128.5 161.156 124.719 160.906 122.906C161.312 119.312 161.75 115.687 162.156 112.094C162.625 112.156 163.625 112.219 164.5 111.625C165.469 110.969 165.656 109.875 165.906 108.656C166.156 107.437 166.437 105.875 165.75 104.094C165.437 103.312 164.437 100.812 162.312 100.656C160.875 100.531 159.406 101.5 158.562 103C156.75 101.25 152.875 98.1562 147.437 97.6562C138.031 96.7812 128.469 104.125 127.937 111.094Z" fill="white"/>
<path d="M141.813 125.375C141.563 126.031 142.282 126.969 142.813 127.437C144.282 128.719 146.875 128.656 148.75 127.781C151.375 126.562 152.219 123.937 152.594 122.75C153.032 121.437 153.594 119.719 152.688 118.187C151.907 116.844 150.532 116.375 150 116.219C149.469 117.312 149.063 118.125 148.75 118.656C148.375 119.312 148.25 119.531 148.032 120.031C147.719 120.688 147.688 120.938 147.25 121.531C145.469 123.844 143.032 124.688 143.032 124.688C142.469 124.813 141.969 124.937 141.813 125.375Z" fill="black"/>
<path d="M128.438 114.844C130.906 122.562 134 131.562 141.969 135.188C145.219 136.656 149.094 136.938 152.406 135.5C156.125 133.906 158.313 130.219 159.813 126.656C161.781 122 162.625 116.938 162.313 111.906C162.281 111.312 161.344 111.312 161.375 111.906C161.688 117.156 160.75 122.438 158.531 127.219C156.375 131.875 152.969 135.594 147.5 135.531C136.5 135.406 132.031 123.281 129.281 114.625C129.156 114 128.281 114.25 128.438 114.844Z" fill="black"/>
<path d="M158.906 103.875C158.938 102 160.875 100.875 162.594 101.406C164.187 101.938 165.188 103.5 165.531 105.063C165.844 106.563 165.719 108.313 165.25 109.75C164.875 110.938 164.406 111.563 162.969 111.563C162.469 111.563 161.969 111.375 161.438 111.375C160.844 111.375 160.844 112.313 161.438 112.313C162.5 112.313 163.531 112.813 164.563 112.281C165.313 111.906 165.75 111.156 166.063 110.375C166.875 108.25 166.969 105.375 165.938 103.281C165.094 101.563 163.281 100.094 161.281 100.313C159.438 100.5 158 102 157.969 103.844C157.969 104.469 158.906 104.469 158.906 103.875Z" fill="black"/>
<path d="M160.75 121C160.656 126.156 162.937 131.094 167 134.313C167.469 134.688 168.125 134.031 167.656 133.656C163.781 130.594 161.594 125.969 161.687 121C161.687 120.406 160.75 120.406 160.75 121Z" fill="black"/>
<path d="M152.688 135C153.876 138.281 155.813 141.156 158.407 143.468C158.844 143.875 159.532 143.218 159.063 142.812C156.563 140.593 154.719 137.875 153.563 134.75C153.376 134.187 152.469 134.437 152.688 135Z" fill="black"/>
<path d="M158.626 143.781C161.313 144.75 164.001 142.468 165.657 140.562C167.407 138.562 168.938 135.968 168.188 133.25C168.032 132.656 167.126 132.906 167.282 133.5C167.907 135.875 166.501 138.187 164.969 139.906C163.532 141.531 161.188 143.718 158.844 142.875C158.313 142.656 158.063 143.562 158.626 143.781Z" fill="black"/>
<path d="M131.937 111.563C131.531 110.406 132.469 109.156 133.156 108.344C134.187 107.063 135.781 106.719 136.969 108.031C138.344 109.531 138.719 112.219 138.906 114.156C139.031 115.5 138.562 117.219 139.344 118.406C140.187 119.688 141.75 120.438 143.219 120.719C143.812 120.844 144.062 119.938 143.469 119.813C142.687 119.656 142 119.406 141.312 118.969C140.187 118.219 139.937 117.406 139.906 116.063C139.875 114.906 139.844 113.781 139.656 112.625C139.344 110.719 138.812 108.281 137.25 107C135.937 105.906 134.312 105.938 133.031 107.031C131.812 108.094 130.406 110.125 131 111.781C131.25 112.375 132.156 112.125 131.937 111.563Z" fill="black"/>
<path d="M140.594 104.812C140.812 101.031 145.531 99.6562 147.719 102.75C148.062 103.25 148.875 102.781 148.531 102.281C145.812 98.4062 139.937 100.062 139.656 104.812C139.625 105.406 140.562 105.406 140.594 104.812Z" fill="black"/>
<path d="M136.344 114.062C135.906 113.469 135.656 112.812 135.625 112.094C135.375 112.219 135.156 112.375 134.906 112.5C135.625 112.969 136 113.719 135.969 114.562C136.156 114.406 136.375 114.25 136.562 114.125C135.781 113.844 135.281 112.969 135.437 112.156C135.219 112.25 134.969 112.344 134.75 112.437C135.125 112.656 135.437 112.969 135.656 113.375C135.75 113.562 135.812 113.75 135.844 113.969C135.844 114.125 135.844 113.937 135.812 113.875C135.75 113.75 135.687 113.656 135.625 113.531C135.375 112.969 134.562 113.469 134.812 114C135 114.437 135.312 114.906 135.875 114.937C136.344 114.969 136.75 114.656 136.812 114.187C136.906 113.156 136.094 112.125 135.25 111.656C135 111.5 134.625 111.625 134.562 111.937C134.312 113.281 135.062 114.594 136.344 115.062C136.656 115.156 136.937 114.906 136.937 114.625C136.969 113.437 136.406 112.375 135.406 111.75C135.125 111.562 134.687 111.812 134.687 112.156C134.719 113.031 135 113.875 135.531 114.594C135.906 115.031 136.719 114.562 136.344 114.062Z" fill="black"/>
<path d="M145.094 108.031C144.938 107.843 144.813 107.625 144.75 107.375C144.75 107.312 144.688 106.937 144.75 106.906C144.813 106.875 144.969 107.375 145 107.406C145.063 107.656 145.032 107.937 144.907 108.156C145.125 108.093 145.344 108.031 145.563 108C144.782 107.562 144.407 106.75 144.532 105.875C144.282 106 144.063 106.156 143.813 106.281C144.688 106.656 145.188 107.562 144.969 108.5C145.157 108.406 145.344 108.281 145.532 108.187C145.063 108.031 144.688 107.625 144.594 107.125C144.594 107.093 144.594 106.812 144.563 106.812C144.5 106.843 144.438 106.875 144.344 106.906C144.375 106.968 144.438 107.062 144.469 107.125C144.594 107.468 144.594 107.812 144.563 108.187C144.844 108.062 145.094 107.968 145.375 107.843C145.094 107.625 144.875 107.375 144.719 107.031C144.438 106.5 143.625 106.968 143.907 107.5C144.094 107.875 144.375 108.218 144.719 108.5C145.063 108.781 145.469 108.593 145.532 108.156C145.594 107.531 145.532 106.687 145.063 106.218C144.688 105.843 144 105.812 143.75 106.375C143.25 107.468 144.313 108.75 145.282 109.093C145.532 109.187 145.813 109 145.844 108.781C146.188 107.468 145.532 106.031 144.25 105.5C143.907 105.343 143.594 105.531 143.532 105.906C143.375 107.093 144 108.25 145.032 108.843C145.219 108.968 145.563 108.906 145.688 108.687C145.938 108.093 146 107.5 145.782 106.906C145.594 106.437 145.188 105.937 144.657 106C143.282 106.156 143.875 108.125 144.438 108.75C144.844 109.156 145.5 108.468 145.094 108.031Z" fill="black"/>
<path d="M153.25 134.906C153.25 134.938 153.25 134.938 153.219 134.969C153.406 134.875 153.594 134.75 153.781 134.656C153.75 134.656 153.719 134.625 153.687 134.625C153.781 134.844 153.875 135.094 153.969 135.313C154.031 135.188 154.875 134.781 155.125 134.563C155.687 134.094 156.156 133.469 156.594 132.875C157.562 131.594 158.281 130.188 158.875 128.719C158.562 128.625 158.281 128.563 157.969 128.469C157.031 131.156 156.375 134.906 153.75 136.5C153.969 136.719 154.187 136.938 154.406 137.156C155.031 136.219 155.656 135.25 156.281 134.313C156.562 133.875 155.906 133.344 155.531 133.75C155.031 134.281 154.5 134.844 154 135.375C154.219 135.594 154.437 135.813 154.656 136.031C155.125 135.469 155.562 134.875 155.969 134.281C156.281 133.844 155.594 133.313 155.219 133.719C154.781 134.188 154.344 134.531 153.781 134.813C154.031 134.938 154.25 135.094 154.5 135.219C154.5 135.125 154.469 135.031 154.469 134.938C154.406 134.344 153.469 134.344 153.531 134.938C153.531 135.031 153.562 135.125 153.562 135.219C153.594 135.563 153.937 135.813 154.281 135.625C154.906 135.281 155.406 134.906 155.906 134.375C155.656 134.188 155.406 134 155.156 133.813C154.781 134.344 154.406 134.875 154 135.375C153.625 135.844 154.25 136.5 154.656 136.031C155.156 135.5 155.687 134.938 156.187 134.406C155.937 134.219 155.687 134.031 155.437 133.844C154.812 134.781 154.187 135.75 153.562 136.688C153.312 137.094 153.812 137.563 154.219 137.344C157.094 135.594 157.844 131.719 158.875 128.75C159.062 128.156 158.187 127.969 157.969 128.5C157.312 130.094 156.469 131.656 155.344 132.969C154.812 133.594 153.969 133.938 153.469 134.5C153.344 134.625 153.219 134.656 153.156 134.813C153 135.094 153.125 135.375 153.437 135.5C153.469 135.5 153.5 135.531 153.531 135.531C153.781 135.625 154.031 135.438 154.094 135.219C154.094 135.188 154.094 135.188 154.125 135.156C154.375 134.594 153.469 134.344 153.25 134.906Z" fill="black"/>
<path d="M156.719 133.969C157 133.656 157.187 133.344 157.281 132.969C157.437 132.406 156.719 132.219 156.437 132.594C155.781 133.469 155.125 134.344 154.469 135.219C154.094 135.687 154.906 136.156 155.281 135.687C155.937 134.812 156.594 133.937 157.25 133.062C156.969 132.937 156.687 132.812 156.406 132.687C156.344 132.906 156.25 133.094 156.094 133.281C155.656 133.781 156.344 134.437 156.719 133.969Z" fill="black"/>
<path d="M142.281 126.218C141.406 124.468 142.344 123.812 144.094 123.343C144.313 123.281 144.531 123.25 144.719 123.156C145.469 122.812 145.906 122.062 146.219 121.343C146.719 120.281 147 119.125 147.656 118.156C149.031 116.062 151.469 116.156 152.25 118.656C153.031 121.156 152.063 123.937 150.406 125.843C149.594 126.781 148.594 127.656 147.406 128.062C146.375 128.437 145.469 128.312 144.469 127.875C143.75 127.562 142.438 126.937 142.25 126.125C142.125 125.531 141.219 125.781 141.344 126.375C141.688 128 144.125 129 145.594 129.218C147.188 129.468 148.688 128.687 149.906 127.687C152.625 125.437 154.313 121.468 153 118.031C151.594 114.312 147.781 115.687 146.375 118.625C145.938 119.531 145.719 121.062 145 121.718C144.094 122.562 142.938 122.25 142 122.906C140.688 123.843 140.813 125.5 141.469 126.781C141.75 127.25 142.563 126.781 142.281 126.218Z" fill="black"/>
<path d="M141.656 125.25C146.5 125.125 148.844 120.625 149.906 116.5C150.063 115.906 149.156 115.656 149 116.25C148.062 119.937 146.031 124.187 141.656 124.312C141.062 124.343 141.062 125.281 141.656 125.25Z" fill="black"/>
<path d="M128.813 114.344C128.25 114.656 124.844 110.938 123.407 105.969C122.344 102.344 122.657 99.125 123.032 97.0937C123.563 95.4687 124.313 93.7187 125.344 91.9375C129.782 84.3125 136.781 80.7188 140.406 79.1875C139.656 79.9062 138.782 80.8438 137.969 82.0313C136.844 83.5938 136.125 85.0625 135.657 86.2813C136.719 85.375 137.938 84.4688 139.25 83.5938C142.188 81.625 145.032 80.2188 147.5 79.2188C147.125 80.8125 146.719 82.4062 146.344 83.9687C147.219 83.4687 148.438 82.75 149.938 82.0313C151.594 81.25 155 79.625 155.532 80.3438C155.688 80.5625 155.5 80.8125 155.219 81.7188C154.844 82.9063 154.719 83.9063 154.657 84.5625C155.625 84.4063 156.719 84.2813 157.906 84.25C159.219 84.1875 160.407 84.25 161.469 84.3438C161.094 85.7812 160.719 87.1875 160.344 88.625C161.094 88.9063 162.157 89.4375 163.25 90.3125C166.188 92.7188 167.032 95.9687 167.25 97.25C167.719 100.312 166.969 102.875 166.406 104.281C164.906 101.094 161.938 99.8438 160.25 100.625C159.219 101.094 158.032 102.594 158.157 104.125C158.188 104.469 158.281 104.781 158.375 105C157.281 104 155.625 102.656 153.469 101.406C151.313 100.156 148.906 98.75 145.719 98.3437C139.719 97.5625 135.032 100.844 133.782 101.75C131.844 103.125 128.688 105.344 128.125 108.875C127.563 111.844 129.25 114.125 128.813 114.344Z" fill="#5222D0"/>
<path opacity="0.11" d="M152.594 100.625C153.562 102.813 154.875 106.219 155.594 110.5C156.344 114.75 157.281 120.219 155 126.281C154.219 128.344 152.375 132.313 148 136.031C149.031 136 150.813 135.813 152.688 134.813C155.75 133.219 157.094 130.562 157.5 129.625C158.969 131.062 160.937 133.313 162.437 136.5C163.281 138.281 163.813 139.938 164.125 141.312C164.969 140.562 166.531 138.938 167.25 136.375C167.531 135.375 167.625 134.469 167.625 133.719C165.813 132.719 164.656 131.5 164 130.719C163.719 130.375 160.938 126.875 161.094 122.031C161.156 120.281 161.531 120.25 161.812 117.562C162.062 115.156 161.937 113.125 161.812 111.781C163.406 112.438 164.219 112.125 164.594 111.906C165.313 111.469 165.5 110.688 166.156 106.719C166.5 104.594 166.688 103.531 166.75 102.969C167.125 99.9375 167.312 98.4063 167.125 97.1875C166.594 93.7188 164.375 91.4062 163.625 90.6875C162.375 89.4688 161.094 88.7813 160.25 88.4063C160.625 87.0938 160.969 85.75 161.344 84.4375C159.562 86.5312 157.906 87.9688 156.781 88.9063C153.969 91.1563 152.344 91.6875 150.406 93.8438C148.875 95.5313 148 97.25 147.5 98.4063C149.219 99.1875 150.906 99.9063 152.594 100.625Z" fill="#494949"/>
<path opacity="0.17" d="M139.719 79.5312C138.656 80 136.156 81.3125 134.406 84.0938C133.969 84.7813 133 86.5 132.719 88.9062C132.406 91.5625 133.062 93.6562 133.437 94.6875C133.562 92.0938 134.187 87.9062 136.687 83.5938C137.656 81.9688 138.719 80.625 139.719 79.5312Z" fill="#494949"/>
<path opacity="0.08" d="M161.812 111.937C161.719 111.906 161.531 112.25 160.844 114.625C159.906 117.844 159.406 120.219 159.125 121.406C158.719 123.125 158.031 125.562 156.75 128.5C158.969 128.937 161.187 129.375 163.406 129.781C162.594 128 161.625 125.437 161.25 122.25C160.656 116.781 162.125 112 161.812 111.937Z" fill="#494949"/>
</svg>
