<svg width="1564" height="514" viewBox="0 0 1564 514" fill="none" xmlns="http://www.w3.org/2000/svg">
<g filter="url(#filter0_iiiii_44_2)">
<path fill-rule="evenodd" clip-rule="evenodd" d="M100.747 511.559C108.527 512.609 116.491 513.153 124.595 513.153C212.961 513.153 284.595 448.469 284.595 368.676C284.595 334.841 271.715 303.722 250.14 279.1C248.493 277.22 246.795 275.379 245.049 273.577C269.673 248.166 284.595 214.895 284.595 178.478C284.595 98.6848 212.961 34 124.595 34C116.491 34 108.527 34.5441 100.747 35.594V50.728C108.486 49.5922 116.45 49 124.595 49C206.153 49 269.595 108.372 269.595 178.478C269.595 210.651 256.441 240.266 234.277 263.138L224.161 273.577L228.86 278.425C224.174 282.372 219.207 286.057 213.989 289.456C188.911 305.786 158.044 315.455 124.595 315.455C116.171 315.455 108.078 317.123 100.747 320.146V336.811C107.496 332.819 115.649 330.455 124.595 330.455C149.155 330.455 167.728 348.269 167.728 368.676C167.728 389.083 149.155 406.897 124.595 406.897C115.649 406.897 107.496 404.533 100.747 400.541V417.205C108.078 420.228 116.171 421.897 124.595 421.897C155.963 421.897 182.728 398.77 182.728 368.676C182.728 351.479 173.989 336.558 160.645 326.927C168.465 325.371 176.083 323.318 183.457 320.808C196.426 333.538 204.184 350.358 204.184 368.676C204.184 407.263 169.289 439.815 124.595 439.815C116.25 439.815 108.246 438.68 100.747 436.583V452.04C108.389 453.853 116.385 454.815 124.595 454.815C176.097 454.815 219.184 416.951 219.184 368.676C219.184 348.242 211.38 329.566 198.504 314.902C204.813 312.084 210.9 308.915 216.734 305.423C231.787 323.022 240.639 344.959 240.639 368.676C240.639 425.444 189.423 472.734 124.595 472.734C116.403 472.734 108.428 471.979 100.747 470.545V485.758C108.493 487.057 116.465 487.734 124.595 487.734C196.231 487.734 255.639 435.132 255.639 368.676C255.639 341.735 245.794 316.954 229.332 297.096C232.722 294.629 236.006 292.044 239.174 289.347C258.365 311.405 269.595 338.948 269.595 368.676C269.595 438.781 206.153 498.153 124.595 498.153C116.45 498.153 108.486 497.561 100.747 496.425V511.559ZM100.747 251.593V266.806C108.428 265.372 116.403 264.617 124.595 264.617C176.097 264.617 219.184 226.753 219.184 178.478C219.184 130.202 176.097 92.3379 124.595 92.3379C116.385 92.3379 108.389 93.3001 100.747 95.1133V110.57C108.246 108.473 116.25 107.338 124.595 107.338C169.289 107.338 204.184 139.89 204.184 178.478C204.184 217.065 169.289 249.617 124.595 249.617C116.465 249.617 108.493 250.295 100.747 251.593ZM100.747 129.948C108.078 126.925 116.171 125.257 124.595 125.257C155.963 125.257 182.728 148.383 182.728 178.478C182.728 208.572 155.963 231.698 124.595 231.698C116.478 231.698 108.513 232.268 100.747 233.363V210.343C107.496 214.334 115.649 216.698 124.595 216.698C149.155 216.698 167.728 198.885 167.728 178.478C167.728 158.07 149.155 140.257 124.595 140.257C115.649 140.257 107.496 142.621 100.747 146.613V129.948ZM100.747 76.6081C108.428 75.1741 116.403 74.4189 124.595 74.4189C189.423 74.4189 240.639 121.709 240.639 178.478C240.639 235.246 189.423 282.536 124.595 282.536C116.385 282.536 108.389 283.498 100.747 285.312V300.768C108.246 298.671 116.25 297.536 124.595 297.536C196.231 297.536 255.639 244.933 255.639 178.478C255.639 112.022 196.231 59.4189 124.595 59.4189C116.465 59.4189 108.493 60.0964 100.747 61.3948V76.6081Z" fill="white"/>
<line y1="-7.5" x2="477.257" y2="-7.5" transform="matrix(0.00694196 0.999976 -0.999969 0.00790363 97.7014 34)" stroke="white" stroke-width="15"/>
<line y1="-7.5" x2="477.257" y2="-7.5" transform="matrix(0.00694196 0.999976 -0.999969 0.00790363 65.1343 34)" stroke="white" stroke-width="15"/>
<line y1="-7.5" x2="477.257" y2="-7.5" transform="matrix(0.00694196 0.999976 -0.999969 0.00790363 32.5671 34)" stroke="white" stroke-width="15"/>
<line x1="7.49979" y1="33.9444" x2="11.0349" y2="511.189" stroke="white" stroke-width="15"/>
<line x1="3.61865" y1="505.5" x2="135.696" y2="505.5" stroke="white" stroke-width="15"/>
<line y1="41.0641" x2="132.078" y2="41.0641" stroke="white" stroke-width="15"/>
</g>
<path d="M531.821 277.85C549.554 281.117 563.204 288.117 572.771 298.85C582.571 309.583 587.471 322.067 587.471 336.3C587.471 355.2 579.304 370.367 562.971 381.8C546.871 393.233 524.821 399.3 496.821 400H375.721L373.621 388.8C380.387 384.367 390.304 379.583 403.371 374.45V190.7L378.521 187.55L378.871 169.7C412.937 167.833 449.337 166.9 488.071 166.9C514.671 166.9 536.021 172.383 552.121 183.35C568.221 194.317 576.271 208.55 576.271 226.05C576.271 237.717 572.421 248.567 564.721 258.6C557.254 268.633 546.287 275.05 531.821 277.85ZM456.571 199.45V268.4H472.671C489.237 268.4 501.604 264.9 509.771 257.9C518.171 250.667 522.371 241.917 522.371 231.65C522.371 223.25 519.687 215.433 514.321 208.2C509.187 200.733 502.654 196.067 494.721 194.2L456.571 199.45ZM484.571 373.05L490.521 373.4C503.587 373.4 513.621 369.667 520.621 362.2C527.621 354.733 531.121 345.867 531.121 335.6C531.121 323.7 526.804 313.433 518.171 304.8C509.771 296.167 499.154 291.733 486.321 291.5H456.571V370.25L484.571 373.05ZM651.324 204.7C636.624 198.167 624.374 188.717 614.574 176.35C622.274 160.95 632.307 148.583 644.674 139.25C658.674 146.717 670.457 156.983 680.024 170.05C673.49 184.05 663.924 195.6 651.324 204.7ZM674.074 372.35C685.04 375.85 693.557 379.35 699.624 382.85L698.224 400H597.774L596.724 388.1C603.724 384.133 612.59 380.283 623.324 376.55V259.3L597.074 256.15L594.624 239.35C614.69 231.65 635.457 227.567 656.924 227.1L674.074 242.5V372.35ZM787.892 372.35C798.859 375.85 807.375 379.35 813.442 382.85L812.042 400H711.592L710.542 388.1C717.542 384.133 726.409 380.283 737.142 376.55V174.25L710.892 171.45L708.442 154.65C728.509 146.95 749.275 142.867 770.742 142.4L787.892 157.8V372.35ZM904.787 372.35C915.753 375.85 924.27 379.35 930.337 382.85L928.937 400H828.487L827.437 388.1C834.437 384.133 843.303 380.283 854.037 376.55V174.25L827.787 171.45L825.337 154.65C845.403 146.95 866.17 142.867 887.637 142.4L904.787 157.8V372.35ZM992.095 204.7C977.395 198.167 965.145 188.717 955.345 176.35C963.045 160.95 973.078 148.583 985.445 139.25C999.445 146.717 1011.23 156.983 1020.8 170.05C1014.26 184.05 1004.7 195.6 992.095 204.7ZM1014.85 372.35C1025.81 375.85 1034.33 379.35 1040.4 382.85L1039 400H938.545L937.495 388.1C944.495 384.133 953.362 380.283 964.095 376.55V259.3L937.845 256.15L935.395 239.35C955.462 231.65 976.228 227.567 997.695 227.1L1014.85 242.5V372.35ZM1235.06 372.7C1246.5 376.2 1254.78 379.583 1259.91 382.85L1258.51 400H1166.11L1165.06 388.1L1184.31 379.35V298.85C1184.31 275.983 1176.73 264.55 1161.56 264.55C1154.33 264.55 1143.36 268.633 1128.66 276.8V373.4C1136.83 375.967 1143.95 379.117 1150.01 382.85L1148.61 400H1053.41L1052.36 388.1C1058.66 384.6 1067.18 380.867 1077.91 376.9V259.3L1051.66 256.15L1049.21 239.35C1069.28 231.65 1090.05 227.567 1111.51 227.1L1128.66 243.9V260C1152.23 242.733 1171.95 232.117 1187.81 228.15C1198.55 228.85 1208.58 232.467 1217.91 239C1227.25 245.533 1232.61 253.933 1234.01 264.2L1235.06 284.15V372.7ZM1451.89 250.9L1444.19 250.55C1434.86 250.55 1426.34 252.067 1418.64 255.1C1425.18 264.2 1428.44 274.35 1428.44 285.55C1428.44 303.283 1420.74 317.75 1405.34 328.95C1390.18 340.15 1371.28 345.75 1348.64 345.75L1336.74 345.05L1318.54 360.8C1336.98 361.033 1357.39 363.25 1379.79 367.45C1402.19 371.417 1421.91 376.2 1438.94 381.8C1441.28 388.567 1442.44 395.45 1442.44 402.45C1442.44 424.617 1431.94 443.867 1410.94 460.2C1389.94 476.533 1365.33 484.7 1337.09 484.7C1317.49 484.7 1300.58 480.267 1286.34 471.4C1272.11 462.767 1264.76 449.7 1264.29 432.2L1302.79 397.55L1280.74 396.15L1273.74 373.75C1285.88 360.45 1298.94 349.25 1312.94 340.15C1299.64 335.483 1289.14 328.367 1281.44 318.8C1273.74 309 1269.89 298.033 1269.89 285.9C1269.89 268.4 1277.48 253.817 1292.64 242.15C1308.04 230.483 1327.06 224.65 1349.69 224.65C1368.59 224.65 1384.81 228.733 1398.34 236.9C1406.28 218 1421.21 207.617 1443.14 205.75L1451.89 250.9ZM1365.09 320.55C1373.96 314.017 1378.39 303.4 1378.39 288.7C1378.39 278.2 1375.24 268.983 1368.94 261.05C1362.64 253.117 1354.59 249.15 1344.79 249.15C1339.89 249.15 1334.76 250.317 1329.39 252.65C1322.86 259.183 1319.59 269.8 1319.59 284.5C1319.59 295.7 1322.39 304.917 1327.99 312.15C1333.59 319.383 1341.29 323 1351.09 323C1354.83 323 1359.49 322.183 1365.09 320.55ZM1344.09 445.5C1356.69 445.5 1369.06 443.167 1381.19 438.5C1393.33 433.833 1402.19 427.3 1407.79 418.9C1386.79 410.033 1358.79 403.617 1323.79 399.65C1311.19 409.217 1304.89 417.733 1304.89 425.2C1304.89 431.5 1308.51 436.4 1315.74 439.9C1323.21 443.633 1332.66 445.5 1344.09 445.5ZM1522.01 413.65C1516.64 411.55 1510.58 407.817 1503.81 402.45C1497.04 397.317 1491.91 392.417 1488.41 387.75C1496.58 371.417 1505.56 360.45 1515.36 354.85C1527.26 359.283 1537.99 367.917 1547.56 380.75C1542.19 394.75 1533.68 405.717 1522.01 413.65Z" fill="white"/>
<defs>
<filter id="filter0_iiiii_44_2" x="0" y="1.56409" width="284.595" height="531.589" filterUnits="userSpaceOnUse" color-interpolation-filters="sRGB">
<feFlood flood-opacity="0" result="BackgroundImageFix"/>
<feBlend mode="normal" in="SourceGraphic" in2="BackgroundImageFix" result="shape"/>
<feColorMatrix in="SourceAlpha" type="matrix" values="0 0 0 0 0 0 0 0 0 0 0 0 0 0 0 0 0 0 127 0" result="hardAlpha"/>
<feOffset dy="15"/>
<feGaussianBlur stdDeviation="22.5"/>
<feComposite in2="hardAlpha" operator="arithmetic" k2="-1" k3="1"/>
<feColorMatrix type="matrix" values="0 0 0 0 1 0 0 0 0 1 0 0 0 0 1 0 0 0 0.5 0"/>
<feBlend mode="overlay" in2="shape" result="effect1_innerShadow_44_2"/>
<feColorMatrix in="SourceAlpha" type="matrix" values="0 0 0 0 0 0 0 0 0 0 0 0 0 0 0 0 0 0 127 0" result="hardAlpha"/>
<feOffset dy="-32"/>
<feGaussianBlur stdDeviation="29"/>
<feComposite in2="hardAlpha" operator="arithmetic" k2="-1" k3="1"/>
<feColorMatrix type="matrix" values="0 0 0 0 0 0 0 0 0 0 0 0 0 0 0 0 0 0 0.5 0"/>
<feBlend mode="overlay" in2="effect1_innerShadow_44_2" result="effect2_innerShadow_44_2"/>
<feColorMatrix in="SourceAlpha" type="matrix" values="0 0 0 0 0 0 0 0 0 0 0 0 0 0 0 0 0 0 127 0" result="hardAlpha"/>
<feOffset dy="20"/>
<feGaussianBlur stdDeviation="10"/>
<feComposite in2="hardAlpha" operator="arithmetic" k2="-1" k3="1"/>
<feColorMatrix type="matrix" values="0 0 0 0 1 0 0 0 0 1 0 0 0 0 1 0 0 0 0.26 0"/>
<feBlend mode="overlay" in2="effect2_innerShadow_44_2" result="effect3_innerShadow_44_2"/>
<feColorMatrix in="SourceAlpha" type="matrix" values="0 0 0 0 0 0 0 0 0 0 0 0 0 0 0 0 0 0 127 0" result="hardAlpha"/>
<feOffset dy="-40"/>
<feGaussianBlur stdDeviation="11"/>
<feComposite in2="hardAlpha" operator="arithmetic" k2="-1" k3="1"/>
<feColorMatrix type="matrix" values="0 0 0 0 0 0 0 0 0 0 0 0 0 0 0 0 0 0 0.17 0"/>
<feBlend mode="overlay" in2="effect3_innerShadow_44_2" result="effect4_innerShadow_44_2"/>
<feColorMatrix in="SourceAlpha" type="matrix" values="0 0 0 0 0 0 0 0 0 0 0 0 0 0 0 0 0 0 127 0" result="hardAlpha"/>
<feOffset dy="5"/>
<feGaussianBlur stdDeviation="7.5"/>
<feComposite in2="hardAlpha" operator="arithmetic" k2="-1" k3="1"/>
<feColorMatrix type="matrix" values="0 0 0 0 1 0 0 0 0 1 0 0 0 0 1 0 0 0 0.7 0"/>
<feBlend mode="overlay" in2="effect4_innerShadow_44_2" result="effect5_innerShadow_44_2"/>
</filter>
</defs>
</svg>
