<svg
    xmlns="http://www.w3.org/2000/svg"
    viewBox="0 0 512 512"
    id="vector">
    <path
        id="path"
        d="M 461.173 27.352 C 397.416 -10.635 314.915 -8.526 252.3 30.393 C 217.12 52.259 189.926 83.796 159.088 110.945 C 132.066 134.734 100.643 151.703 72.735 174.149 C -28.475 255.552 -18.818 475.11 123.697 504.274 C 185.474 516.916 269.907 520.971 306.216 460.632 C 340.836 403.101 352.448 344.249 420.092 313.69 C 443.665 303.04 483.067 303.577 499.036 280.24 C 519.188 250.79 494.183 220.197 480.844 194.533 C 463.654 161.459 460.049 128.851 472.145 93.373 C 482.443 63.162 489.694 49.591 461.173 27.352 Z"
        fill="none"/>
    <path
        id="path_1"
        d="M 345.353 131.106 M 247.737 131.106 C 247.737 105.227 258.029 80.381 276.328 62.081 C 294.628 43.782 319.474 33.49 345.353 33.49 C 371.232 33.49 396.078 43.782 414.378 62.081 C 432.677 80.381 442.969 105.227 442.969 131.106 C 442.969 151.717 436.441 171.808 424.326 188.483 C 412.211 205.158 395.12 217.575 375.518 223.944 C 355.916 230.314 334.79 230.314 315.188 223.944 C 295.586 217.575 278.495 205.158 266.38 188.483 C 254.265 171.808 247.737 151.717 247.737 131.106"
        fill="#6583fe"/>
    <path
        id="path_2"
        d="M 409.126 121.38 L 409.126 205.01 C 392.026 219.78 369.736 228.72 345.356 228.72 C 339.556 228.72 333.876 228.21 328.356 227.24 L 328.356 191.91 L 301.486 191.91 C 297.496 191.91 294.456 188.33 295.106 184.39 L 296.016 178.86 L 297.666 168.84 L 299.476 157.85 L 288.046 157.85 C 284.476 157.85 281.586 154.95 281.586 151.38 L 281.586 121.38 C 281.586 86.16 310.136 57.61 345.356 57.61 C 380.576 57.61 409.126 86.16 409.126 121.38 Z"
        fill="#ffffff"/>
    <path
        id="path_3"
        d="M 337.746 172.28 C 337.246 172.55 325.196 178.81 296.016 178.86 L 297.666 168.84 C 322.706 168.59 332.956 163.49 333.066 163.44 C 335.506 162.19 338.526 163.13 339.796 165.56 C 341.066 167.99 340.166 170.98 337.746 172.28 Z"
        fill="#6583fe"/>
    <path
        id="path_4"
        d="M 330.645 132.775 C 327.883 132.775 325.645 130.536 325.645 127.775 L 325.645 125.512 C 325.645 122.751 327.883 120.512 330.645 120.512 C 333.407 120.512 335.645 122.751 335.645 125.512 L 335.645 127.775 C 335.645 130.536 333.406 132.775 330.645 132.775 Z"
        fill="#6583fe"/>
    <path
        id="path_5"
        d="M 371.99 160.173 C 366.072 160.173 360.155 157.92 355.65 153.416 C 353.697 151.464 353.697 148.298 355.649 146.345 C 357.602 144.392 360.767 144.391 362.72 146.344 C 367.831 151.454 376.147 151.454 381.258 146.344 C 386.368 141.233 386.368 132.918 381.258 127.807 C 376.146 122.696 367.83 122.696 362.72 127.807 C 360.767 129.759 357.602 129.76 355.649 127.806 C 353.697 125.853 353.697 122.687 355.65 120.735 C 364.662 111.727 379.321 111.726 388.329 120.735 C 397.339 129.744 397.339 144.404 388.33 153.414 C 383.825 157.921 377.907 160.173 371.99 160.173 Z"
        fill="#6583fe"/>
    <path
        id="path_6"
        d="M 136.791 298.118 M 39.175 298.118 C 39.175 277.507 45.703 257.416 57.818 240.741 C 69.933 224.066 87.024 211.649 106.626 205.28 C 126.228 198.91 147.354 198.91 166.956 205.28 C 186.558 211.649 203.649 224.066 215.764 240.741 C 227.879 257.416 234.407 277.507 234.407 298.118 C 234.407 323.997 224.115 348.843 205.816 367.143 C 187.516 385.442 162.67 395.734 136.791 395.734 C 110.912 395.734 86.066 385.442 67.766 367.143 C 49.467 348.843 39.175 323.997 39.175 298.118"
        fill="#02ffb3"/>
    <path
        id="path_7"
        d="M 200.564 288.392 L 200.564 372.022 C 183.464 386.792 161.174 395.732 136.794 395.732 C 130.994 395.732 125.314 395.222 119.794 394.252 L 119.794 358.922 L 92.924 358.922 C 88.934 358.922 85.894 355.342 86.544 351.402 L 87.454 345.872 L 89.104 335.852 L 90.914 324.862 L 79.484 324.862 C 75.914 324.862 73.024 321.962 73.024 318.392 L 73.024 288.392 C 73.024 253.172 101.574 224.622 136.794 224.622 C 172.014 224.622 200.564 253.172 200.564 288.392 Z"
        fill="#ffffff"/>
    <path
        id="path_8"
        d="M 129.184 339.292 C 128.684 339.562 116.634 345.822 87.454 345.872 L 89.104 335.852 C 114.144 335.602 124.394 330.502 124.504 330.452 C 126.944 329.202 129.964 330.142 131.234 332.572 C 132.504 335.002 131.604 337.992 129.184 339.292 Z"
        fill="#02ffb3"/>
    <path
        id="path_9"
        d="M 122.083 299.788 C 119.321 299.788 117.083 297.549 117.083 294.788 L 117.083 292.525 C 117.083 289.764 119.321 287.525 122.083 287.525 C 124.845 287.525 127.083 289.764 127.083 292.525 L 127.083 294.788 C 127.083 297.549 124.844 299.788 122.083 299.788 Z"
        fill="#02ffb3"/>
    <path
        id="path_10"
        d="M 163.428 327.186 C 157.51 327.186 151.593 324.933 147.088 320.429 C 145.135 318.477 145.135 315.311 147.087 313.358 C 149.04 311.405 152.205 311.404 154.158 313.358 C 159.269 318.468 167.585 318.468 172.696 313.358 C 177.806 308.247 177.806 299.932 172.696 294.821 C 167.584 289.71 159.268 289.71 154.158 294.821 C 152.205 296.773 149.04 296.774 147.087 294.821 C 145.135 292.868 145.135 289.702 147.088 287.75 C 156.1 278.742 170.759 278.741 179.767 287.75 C 188.777 296.759 188.777 311.419 179.768 320.429 C 175.263 324.934 169.345 327.186 163.428 327.186 Z"
        fill="#02ffb3"/>
    <path
        id="path_11"
        d="M 375.209 380.894 M 277.593 380.894 C 277.528 360.241 284.019 340.09 296.127 323.358 C 308.235 306.626 325.346 294.16 344.985 287.766 C 364.624 281.371 385.794 281.371 405.433 287.766 C 425.072 294.16 442.183 306.626 454.291 323.358 C 466.399 340.09 472.89 360.241 472.825 380.894 C 472.825 406.773 462.533 431.619 444.234 449.919 C 425.934 468.218 401.088 478.51 375.209 478.51 C 349.33 478.51 324.484 468.218 306.184 449.919 C 287.885 431.619 277.593 406.773 277.593 380.894"
        fill="#bb86fc"/>
    <path
        id="path_12"
        d="M 438.982 371.168 L 438.982 454.798 C 421.882 469.568 399.592 478.508 375.212 478.508 C 369.412 478.508 363.732 477.998 358.212 477.028 L 358.212 441.698 L 331.342 441.698 C 327.352 441.698 324.312 438.118 324.962 434.178 L 325.872 428.648 L 327.522 418.628 L 329.332 407.638 L 317.902 407.638 C 314.332 407.638 311.442 404.738 311.442 401.168 L 311.442 371.168 C 311.442 335.948 339.992 307.398 375.212 307.398 C 410.432 307.398 438.982 335.948 438.982 371.168 Z"
        fill="#ffffff"/>
    <path
        id="path_13"
        d="M 367.602 422.068 C 367.102 422.338 355.052 428.598 325.872 428.648 L 327.522 418.628 C 352.562 418.378 362.812 413.278 362.922 413.228 C 365.362 411.978 368.382 412.918 369.652 415.348 C 370.922 417.778 370.022 420.768 367.602 422.068 Z"
        fill="#bb86fc"/>
    <path
        id="path_14"
        d="M 360.5 382.563 C 357.738 382.563 355.5 380.324 355.5 377.563 L 355.5 375.3 C 355.5 372.539 357.738 370.3 360.5 370.3 C 363.262 370.3 365.5 372.539 365.5 375.3 L 365.5 377.563 C 365.5 380.325 363.262 382.563 360.5 382.563 Z"
        fill="#bb86fc"/>
    <path
        id="path_15"
        d="M 401.846 409.962 C 395.928 409.962 390.011 407.709 385.506 403.205 C 383.553 401.253 383.553 398.087 385.505 396.134 C 387.458 394.181 390.623 394.18 392.576 396.134 C 397.687 401.244 406.003 401.244 411.114 396.134 C 416.224 391.023 416.224 382.708 411.114 377.597 C 406.002 372.486 397.686 372.486 392.576 377.597 C 390.623 379.549 387.458 379.55 385.505 377.596 C 383.553 375.643 383.553 372.477 385.506 370.525 C 394.518 361.517 409.177 361.516 418.185 370.525 C 427.195 379.534 427.195 394.194 418.186 403.204 C 413.681 407.709 407.763 409.962 401.846 409.962 Z"
        fill="#bb86fc"/>
    <path
        id="path_16"
        d="M 155.083 141.604 C 152.321 141.604 150.083 139.365 150.083 136.604 C 150.083 133.295 147.391 130.604 144.082 130.604 C 141.32 130.604 139.082 128.365 139.082 125.604 C 139.082 122.843 141.32 120.604 144.082 120.604 C 147.391 120.604 150.083 117.913 150.083 114.604 C 150.083 111.843 152.321 109.604 155.083 109.604 C 157.845 109.604 160.083 111.843 160.083 114.604 C 160.083 117.913 162.774 120.604 166.082 120.604 C 168.844 120.604 171.082 122.843 171.082 125.604 C 171.082 128.365 168.844 130.604 166.082 130.604 C 162.774 130.604 160.083 133.295 160.083 136.604 C 160.083 139.365 157.845 141.604 155.083 141.604 Z"
        fill="#01eca5"/>
    <path
        id="path_17"
        d="M 453.751 244.938 C 450.989 244.938 448.751 242.699 448.751 239.938 C 448.751 236.629 446.06 233.938 442.751 233.938 C 439.989 233.938 437.751 231.699 437.751 228.938 C 437.751 226.177 439.989 223.938 442.751 223.938 C 446.06 223.938 448.751 221.247 448.751 217.938 C 448.751 215.177 450.989 212.938 453.751 212.938 C 456.513 212.938 458.751 215.177 458.751 217.938 C 458.751 221.247 461.442 223.938 464.751 223.938 C 467.513 223.938 469.751 226.177 469.751 228.938 C 469.751 231.699 467.513 233.938 464.751 233.938 C 461.442 233.938 458.751 236.629 458.751 239.938 C 458.751 242.699 456.513 244.938 453.751 244.938 Z"
        fill="#bb86fc"/>
    <path
        id="path_18"
        d="M 188 450.648 C 185.238 450.648 183 448.409 183 445.648 C 183 442.339 180.309 439.648 177 439.648 C 174.238 439.648 172 437.409 172 434.648 C 172 431.887 174.238 429.648 177 429.648 C 180.309 429.648 183 426.957 183 423.648 C 183 420.887 185.238 418.648 188 418.648 C 190.762 418.648 193 420.887 193 423.648 C 193 426.957 195.691 429.648 199 429.648 C 201.762 429.648 204 431.887 204 434.648 C 204 437.409 201.762 439.648 199 439.648 C 195.691 439.648 193 442.339 193 445.648 C 193 448.409 190.762 450.648 188 450.648 Z"
        fill="#01eca5"/>
    <path
        id="path_19"
        d="M 192.074 170.604 C 190.795 170.604 189.514 170.116 188.539 169.14 L 177.539 158.14 C 175.586 156.187 175.586 153.021 177.539 151.069 L 188.539 140.069 C 190.49 138.117 193.658 138.117 195.609 140.069 L 206.609 151.069 C 208.562 153.022 208.562 156.188 206.609 158.14 L 195.609 169.14 C 194.634 170.115 193.354 170.604 192.074 170.604 Z M 188.145 154.604 L 192.074 158.533 L 196.003 154.604 L 192.074 150.675 Z"
        fill="#bb86fc"/>
    <path
        id="path_20"
        d="M 245.396 463.92 C 244.117 463.92 242.836 463.432 241.861 462.456 L 230.861 451.456 C 228.908 449.503 228.908 446.337 230.861 444.385 L 241.861 433.385 C 243.812 431.433 246.98 431.433 248.931 433.385 L 259.931 444.385 C 261.884 446.338 261.884 449.504 259.931 451.456 L 248.931 462.456 C 247.956 463.432 246.676 463.92 245.396 463.92 Z M 241.468 447.92 L 245.397 451.849 L 249.326 447.92 L 245.397 443.991 Z"
        fill="#6583fe"/>
    <path
        id="path_21"
        d="M 345.353 131.106 M 247.737 131.106 C 247.737 105.227 258.029 80.381 276.328 62.081 C 294.628 43.782 319.474 33.49 345.353 33.49 C 371.232 33.49 396.078 43.782 414.378 62.081 C 432.677 80.381 442.969 105.227 442.969 131.106 C 442.969 151.717 436.441 171.808 424.326 188.483 C 412.211 205.158 395.12 217.575 375.518 223.944 C 355.916 230.314 334.79 230.314 315.188 223.944 C 295.586 217.575 278.495 205.158 266.38 188.483 C 254.265 171.808 247.737 151.717 247.737 131.106"
        fill="none"/>
    <path
        id="path_22"
        d="M 208.688 233.529 L 270.811 190.484 L 263.613 183.286 L 201.491 226.331 Z"
        fill="#2d58e0"/>
    <path
        id="path_23"
        d="M 284.772 345.872 L 228.314 328.418 C 227.198 331.564 226.112 334.719 225.061 337.886 L 281.586 355.36 C 282.58 352.174 283.633 349.008 284.772 345.872 Z"
        fill="#9296f0"/>
    <path
        id="path_24"
        d="M 136.791 298.118 M 39.175 298.118 C 39.175 277.507 45.703 257.416 57.818 240.741 C 69.933 224.066 87.024 211.649 106.626 205.28 C 126.228 198.91 147.354 198.91 166.956 205.28 C 186.558 211.649 203.649 224.066 215.764 240.741 C 227.879 257.416 234.407 277.507 234.407 298.118 C 234.407 323.997 224.115 348.843 205.816 367.143 C 187.516 385.442 162.67 395.734 136.791 395.734 C 110.912 395.734 86.066 385.442 67.766 367.143 C 49.467 348.843 39.175 323.997 39.175 298.118"
        fill="none"/>
</svg>
