<svg xmlns="http://www.w3.org/2000/svg" xmlns:xlink="http://www.w3.org/1999/xlink" width="31.25" height="40" viewBox="0 0 31.25 40">
  <defs>
    <linearGradient id="linear-gradient" x1="0.5" y1="-0.5" x2="0.5" y2="-0.46" gradientUnits="objectBoundingBox">
      <stop offset="0" stop-color="#f3f7ff"/>
      <stop offset="0.99" stop-color="#b5d1ff"/>
    </linearGradient>
    <linearGradient id="linear-gradient-2" x1="0.5" y1="-0.17" x2="0.5" y2="20.658" gradientUnits="objectBoundingBox">
      <stop offset="0" stop-color="#048ac4"/>
      <stop offset="1" stop-color="#35489b"/>
    </linearGradient>
    <linearGradient id="linear-gradient-3" y1="-0.085" y2="2.406" xlink:href="#linear-gradient"/>
    <linearGradient id="linear-gradient-4" y1="-2.145" y2="-0.366" xlink:href="#linear-gradient"/>
    <linearGradient id="linear-gradient-5" y1="-0.123" y2="2.825" xlink:href="#linear-gradient-2"/>
    <linearGradient id="linear-gradient-6" y1="-4.203" y2="3.531" xlink:href="#linear-gradient-2"/>
  </defs>
  <g id="Document" transform="translate(-4.375)">
    <path id="Path_36877" data-name="Path 36877" d="M35,40H8.125a.625.625,0,0,1-.625-.625V.625A.625.625,0,0,1,8.125,0H28.539a.625.625,0,0,1,.442.183l6.461,6.461a.625.625,0,0,1,.183.442V39.375A.625.625,0,0,1,35,40Z" fill="url(#linear-gradient)"/>
    <path id="Path_36878" data-name="Path 36878" d="M4.375,20.591l2.5-1.1L8.62,22.165H4.375Z" fill="url(#linear-gradient-2)"/>
    <path id="Path_36879" data-name="Path 36879" d="M34.375,40H7.5a.625.625,0,0,1-.625-.625V.625A.625.625,0,0,1,7.5,0H28.173L35,6.827V39.375A.625.625,0,0,1,34.375,40Z" fill="url(#linear-gradient-3)"/>
    <path id="Path_36880" data-name="Path 36880" d="M28.173,0V6.2a.625.625,0,0,0,.625.625H35L31.938,3.14Z" fill="url(#linear-gradient-4)"/>
    <path id="Path_36881" data-name="Path 36881" d="M28.764,32.813H5.481a1.106,1.106,0,0,1-1.106-1.106V21.7H28.764A1.107,1.107,0,0,1,29.87,22.8v8.9a1.106,1.106,0,0,1-1.106,1.106Z" fill="url(#linear-gradient-5)"/>
    <path id="Path_36882" data-name="Path 36882" d="M6.875,19.487H5.48a1.1,1.1,0,1,0,0,2.209h1.4Z" fill="url(#linear-gradient-6)"/>
    <g id="Group_45132" data-name="Group 45132">
      <path id="Path_36883" data-name="Path 36883" d="M9.005,25.112a.543.543,0,0,1,.543-.543,12.179,12.179,0,0,1,2.461.1,2.025,2.025,0,0,1,1.322,1.364,3.952,3.952,0,0,1,.176,1.269,3.54,3.54,0,0,1-.164,1.142A1.957,1.957,0,0,1,12,29.823a13.062,13.062,0,0,1-2.457.114A.542.542,0,0,1,9,29.394Zm1.084.7v2.875c0,.484.639.307.809.339a2.977,2.977,0,0,0,.655-.051.927.927,0,0,0,.722-.742,3.509,3.509,0,0,0,.109-.983,3.211,3.211,0,0,0-.109-.956,1.041,1.041,0,0,0-.809-.773,7.218,7.218,0,0,0-1.038-.051.339.339,0,0,0-.339.342Z" fill="#fff"/>
      <path id="Path_36884" data-name="Path 36884" d="M14.206,27.288a2.821,2.821,0,0,1,.745-2.113,2.4,2.4,0,0,1,1.851-.7,2.521,2.521,0,0,1,1.9.736,2.822,2.822,0,0,1,.712,2.048,2.813,2.813,0,0,1-.707,2.034,2.5,2.5,0,0,1-1.89.734,2.528,2.528,0,0,1-1.9-.731,2.773,2.773,0,0,1-.706-2.013Zm1.117-.037a2.012,2.012,0,0,0,.421,1.383,1.449,1.449,0,0,0,2.134,0,2.052,2.052,0,0,0,.416-1.4,2.016,2.016,0,0,0-.405-1.375,1.5,1.5,0,0,0-2.155.006,2.026,2.026,0,0,0-.41,1.383Z" fill="#fff"/>
      <path id="Path_36885" data-name="Path 36885" d="M24.2,28.125a.544.544,0,0,1,.324.761,2.034,2.034,0,0,1-.581.718,2.529,2.529,0,0,1-3.184-.3,2.8,2.8,0,0,1-.687-2,2.938,2.938,0,0,1,.693-2.082,2.375,2.375,0,0,1,1.82-.741,2.232,2.232,0,0,1,1.6.582,1.637,1.637,0,0,1,.264.324.543.543,0,0,1-.336.812.535.535,0,0,1-.588-.25,1.068,1.068,0,0,0-.26-.3,1.138,1.138,0,0,0-.734-.242,1.222,1.222,0,0,0-.969.429,2.1,2.1,0,0,0-.372,1.388,2.256,2.256,0,0,0,.366,1.451,1.187,1.187,0,0,0,.952.432,1.084,1.084,0,0,0,.743-.274,1.234,1.234,0,0,0,.295-.41.546.546,0,0,1,.656-.29Z" fill="#fff"/>
    </g>
  </g>
</svg>
