<svg xmlns="http://www.w3.org/2000/svg" xmlns:xlink="http://www.w3.org/1999/xlink" width="31.25" height="40" viewBox="0 0 31.25 40">
  <defs>
    <linearGradient id="linear-gradient" x1="0.5" y1="-0.5" x2="0.5" y2="-0.46" gradientUnits="objectBoundingBox">
      <stop offset="0" stop-color="#f3f7ff"/>
      <stop offset="0.99" stop-color="#b5d1ff"/>
    </linearGradient>
    <linearGradient id="linear-gradient-2" y1="-0.085" y2="2.406" xlink:href="#linear-gradient"/>
    <linearGradient id="linear-gradient-3" y1="-2.145" y2="-0.366" xlink:href="#linear-gradient"/>
  </defs>
  <g id="Document" transform="translate(-4.375)">
    <path id="Path_36886" data-name="Path 36886" d="M35,40H8.125a.625.625,0,0,1-.625-.625V.625A.625.625,0,0,1,8.125,0H28.539a.625.625,0,0,1,.442.183l6.461,6.461a.625.625,0,0,1,.183.442V39.375A.625.625,0,0,1,35,40Z" fill="url(#linear-gradient)"/>
    <path id="Path_36887" data-name="Path 36887" d="M4.375,20.591l2.5-1.1L8.62,22.165H4.375Z" fill="#d88307"/>
    <path id="Path_36888" data-name="Path 36888" d="M34.375,40H7.5a.625.625,0,0,1-.625-.625V.625A.625.625,0,0,1,7.5,0H28.173L35,6.827V39.375A.625.625,0,0,1,34.375,40Z" fill="url(#linear-gradient-2)"/>
    <path id="Path_36889" data-name="Path 36889" d="M28.173,0V6.2a.625.625,0,0,0,.625.625H35L31.938,3.14Z" fill="url(#linear-gradient-3)"/>
    <path id="Path_36890" data-name="Path 36890" d="M28.764,32.813H5.481a1.106,1.106,0,0,1-1.106-1.106V21.7H28.764A1.107,1.107,0,0,1,29.87,22.8v8.9a1.106,1.106,0,0,1-1.106,1.106Z" fill="#fca30a"/>
    <path id="Path_36891" data-name="Path 36891" d="M6.875,19.487H5.48a1.1,1.1,0,1,0,0,2.209h1.4Z" fill="#924d03"/>
    <path id="Path_36893" data-name="Path 36893" d="M.64,0V-5.92H2.56a2.851,2.851,0,0,1,1.24.252,2.557,2.557,0,0,1,.88.676,2.925,2.925,0,0,1,.528.952,3.394,3.394,0,0,1,.176,1.08,3.394,3.394,0,0,1-.176,1.08,2.925,2.925,0,0,1-.528.952,2.557,2.557,0,0,1-.88.676A2.851,2.851,0,0,1,2.56,0ZM2.528-5.232h-1.1V-.688h1.1A2.024,2.024,0,0,0,3.436-.88,1.9,1.9,0,0,0,4.084-1.4a2.22,2.22,0,0,0,.388-.732A2.764,2.764,0,0,0,4.6-2.96a2.764,2.764,0,0,0-.128-.832,2.22,2.22,0,0,0-.388-.732,1.9,1.9,0,0,0-.648-.516A2.024,2.024,0,0,0,2.528-5.232ZM8.392.08A1.985,1.985,0,0,1,7.248-.236a2.034,2.034,0,0,1-.7-.82A2.445,2.445,0,0,1,6.3-2.12a2.436,2.436,0,0,1,.24-1.068A2.04,2.04,0,0,1,7.248-4,1.985,1.985,0,0,1,8.392-4.32,1.985,1.985,0,0,1,9.536-4a2.04,2.04,0,0,1,.7.816,2.436,2.436,0,0,1,.24,1.068,2.445,2.445,0,0,1-.24,1.064,2.034,2.034,0,0,1-.7.82A1.985,1.985,0,0,1,8.392.08Zm0-.664A1.169,1.169,0,0,0,9.116-.8a1.362,1.362,0,0,0,.44-.572A1.9,1.9,0,0,0,9.7-2.12a1.891,1.891,0,0,0-.148-.748,1.367,1.367,0,0,0-.44-.568,1.169,1.169,0,0,0-.724-.22,1.173,1.173,0,0,0-.72.22,1.354,1.354,0,0,0-.444.568,1.891,1.891,0,0,0-.148.748,1.9,1.9,0,0,0,.148.744A1.35,1.35,0,0,0,7.672-.8,1.173,1.173,0,0,0,8.392-.584Zm5.1.664a2.087,2.087,0,0,1-.912-.188,1.888,1.888,0,0,1-.652-.5,2.219,2.219,0,0,1-.392-.708,2.491,2.491,0,0,1-.132-.8,2.525,2.525,0,0,1,.128-.8,2.214,2.214,0,0,1,.388-.708,1.867,1.867,0,0,1,.652-.508,2.106,2.106,0,0,1,.92-.188,2.062,2.062,0,0,1,.848.152,1.592,1.592,0,0,1,.54.38,1.742,1.742,0,0,1,.3.456,2.036,2.036,0,0,1,.132.38l.032.152h-.736l-.04-.132a1.174,1.174,0,0,0-.152-.3,1.008,1.008,0,0,0-.336-.3,1.159,1.159,0,0,0-.592-.132,1.217,1.217,0,0,0-.74.22,1.338,1.338,0,0,0-.448.572,1.92,1.92,0,0,0-.148.752,1.92,1.92,0,0,0,.148.752,1.338,1.338,0,0,0,.448.572,1.217,1.217,0,0,0,.74.22,1.159,1.159,0,0,0,.592-.132,1.008,1.008,0,0,0,.336-.3,1.174,1.174,0,0,0,.152-.3l.04-.132h.736l-.032.152a2.036,2.036,0,0,1-.132.38,1.742,1.742,0,0,1-.3.456,1.592,1.592,0,0,1-.54.38A2.062,2.062,0,0,1,13.488.08ZM16.264,0l1.9-2.96-1.9-2.96H17.2l1.5,2.376,1.5-2.376h.936l-1.92,2.96L21.144,0h-.936L18.7-2.376,17.2,0Z" transform="translate(7 30.174)" fill="#fff"/>
  </g>
</svg>
