<svg xmlns="http://www.w3.org/2000/svg" xmlns:xlink="http://www.w3.org/1999/xlink" width="31.25" height="40" viewBox="0 0 31.25 40">
  <defs>
    <linearGradient id="linear-gradient" x1="0.5" y1="-0.5" x2="0.5" y2="-0.46" gradientUnits="objectBoundingBox">
      <stop offset="0" stop-color="#f3f7ff"/>
      <stop offset="0.99" stop-color="#b5d1ff"/>
    </linearGradient>
    <linearGradient id="linear-gradient-2" y1="-0.085" y2="2.406" xlink:href="#linear-gradient"/>
    <linearGradient id="linear-gradient-3" y1="-2.145" y2="-0.366" xlink:href="#linear-gradient"/>
  </defs>
  <g id="Document" transform="translate(-4.375)">
    <path id="Path_36886" data-name="Path 36886" d="M35,40H8.125a.625.625,0,0,1-.625-.625V.625A.625.625,0,0,1,8.125,0H28.539a.625.625,0,0,1,.442.183l6.461,6.461a.625.625,0,0,1,.183.442V39.375A.625.625,0,0,1,35,40Z" fill="url(#linear-gradient)"/>
    <path id="Path_36887" data-name="Path 36887" d="M4.375,20.591l2.5-1.1L8.62,22.165H4.375Z" fill="#2f9924"/>
    <path id="Path_36888" data-name="Path 36888" d="M34.375,40H7.5a.625.625,0,0,1-.625-.625V.625A.625.625,0,0,1,7.5,0H28.173L35,6.827V39.375A.625.625,0,0,1,34.375,40Z" fill="url(#linear-gradient-2)"/>
    <path id="Path_36889" data-name="Path 36889" d="M28.173,0V6.2a.625.625,0,0,0,.625.625H35L31.938,3.14Z" fill="url(#linear-gradient-3)"/>
    <path id="Path_36890" data-name="Path 36890" d="M28.764,32.813H5.481a1.106,1.106,0,0,1-1.106-1.106V21.7H28.764A1.107,1.107,0,0,1,29.87,22.8v8.9a1.106,1.106,0,0,1-1.106,1.106Z" fill="#48b232"/>
    <path id="Path_36891" data-name="Path 36891" d="M6.875,19.487H5.48a1.1,1.1,0,1,0,0,2.209h1.4Z" fill="#1b8019"/>
    <path id="Path_36892" data-name="Path 36892" d="M.64,0V-5.92h3.9v.688H1.424V-3.28H4.176v.688H1.424V0ZM5.7,0V-5.92h.784V0ZM7.768,0V-5.92h.784V-.688H11.6V0ZM12.76,0V-5.92h3.76v.688H13.544V-3.36h2.608v.688H13.544V-.688H16.56V0Z" transform="translate(9 30)" fill="#fff"/>
  </g>
</svg>
