<svg
    xmlns="http://www.w3.org/2000/svg"
    viewBox="0 0 490 490"
    id="vector">
    <path
        id="path"
        d="M 439.976 100 C 439.975 97.398 438.983 94.841 437.071 92.929 L 347.071 2.929 C 345.158 1.017 342.601 0.025 340 0.024 L 340 0 L 60 0 C 54.477 0 50 4.477 50 10 L 50 480 C 50 485.523 54.477 490 60 490 L 430 490 C 435.523 490 440 485.523 440 480 L 440 100 L 439.976 100 Z M 350 34.142 L 405.858 90 L 350 90 L 350 34.142 Z M 420 470 L 70 470 L 70 20 L 330 20 L 330 100 C 330 105.523 334.477 110 340 110 L 420 110 L 420 470 Z"
        fill="#000000"/>
    <path
        id="path_1"
        d="M 100 165 L 100 435 C 100 440.523 104.477 445 110 445 L 380 445 C 385.523 445 390 440.523 390 435 L 390 165 C 390 159.477 385.523 155 380 155 L 110 155 C 104.477 155 100 159.477 100 165 Z M 370 370 L 325 370 L 325 230 L 370 230 L 370 370 Z M 185 175 L 370 175 L 370 210 L 185 210 L 185 175 Z M 305 230 L 305 370 L 255 370 L 255 230 L 305 230 Z M 185 230 L 235 230 L 235 370 L 185 370 L 185 230 Z M 185 390 L 370 390 L 370 425 L 185 425 L 185 390 Z M 120 175 L 165 175 L 165 210 L 120 210 L 120 175 Z M 120 230 L 165 230 L 165 425 L 120 425 L 120 230 Z"
        fill="#000000"/>
    <path
        id="path_2"
        d="M 100 40 L 160 40 L 160 60 L 100 60 Z"
        fill="#000000"/>
    <path
        id="path_3"
        d="M 100 75 L 210 75 L 210 95 L 100 95 Z"
        fill="#000000"/>
    <path
        id="path_4"
        d="M 100 110 L 130 110 L 130 130 L 100 130 Z"
        fill="#000000"/>
    <path
        id="path_5"
        d="M 140 110 L 170 110 L 170 130 L 140 130 Z"
        fill="#000000"/>
</svg>
