<svg
    xmlns="http://www.w3.org/2000/svg"
    viewBox="0 0 482 482"
    id="vector">
    <path
        id="path"
        d="M 239.7 260.2 C 240.2 260.2 240.7 260.2 241.3 260.2 C 241.5 260.2 241.7 260.2 241.9 260.2 C 242.2 260.2 242.6 260.2 242.9 260.2 C 272.2 259.7 295.9 249.4 313.4 229.7 C 351.9 186.3 345.5 111.9 344.8 104.8 C 342.3 51.5 317.1 26 296.3 14.1 C 280.8 5.2 262.7 0.4 242.5 0 L 241.8 0 C 241.7 0 241.5 0 241.4 0 L 240.8 0 C 229.7 0 207.9 1.8 187 13.7 C 166 25.6 140.4 51.1 137.9 104.8 C 137.2 111.9 130.8 186.3 169.3 229.7 C 186.7 249.4 210.4 259.7 239.7 260.2 Z M 164.6 107.3 C 164.6 107 164.7 106.7 164.7 106.5 C 168 34.8 218.9 27.1 240.7 27.1 L 241.1 27.1 C 241.3 27.1 241.6 27.1 241.9 27.1 C 268.9 27.7 314.8 38.7 317.9 106.5 C 317.9 106.8 317.9 107.1 318 107.3 C 318.1 108 325.1 176 293.3 211.8 C 280.7 226 263.9 233 241.8 233.2 C 241.6 233.2 241.5 233.2 241.3 233.2 L 241.3 233.2 C 241.1 233.2 241 233.2 240.8 233.2 C 218.8 233 201.9 226 189.4 211.8 C 157.7 176.2 164.5 107.9 164.6 107.3 Z"
        fill="#ffffff"/>
    <path
        id="path_1"
        d="M 446.8 383.6 C 446.8 383.5 446.8 383.4 446.8 383.3 C 446.8 382.5 446.7 381.7 446.7 380.8 C 446.1 361 444.8 314.7 401.4 299.9 C 401.1 299.8 400.7 299.7 400.4 299.6 C 355.3 288.1 317.8 262.1 317.4 261.8 C 311.3 257.5 302.9 259 298.6 265.1 C 294.3 271.2 295.8 279.6 301.9 283.9 C 303.6 285.1 343.4 312.8 393.2 325.6 C 416.5 333.9 419.1 358.8 419.8 381.6 C 419.8 382.5 419.8 383.3 419.9 384.1 C 420 393.1 419.4 407 417.8 415 C 401.6 424.2 338.1 456 241.5 456 C 145.3 456 81.4 424.1 65.1 414.9 C 63.5 406.9 62.8 393 63 384 C 63 383.2 63.1 382.4 63.1 381.5 C 63.8 358.7 66.4 333.8 89.7 325.5 C 139.5 312.7 179.3 284.9 181 283.8 C 187.1 279.5 188.6 271.1 184.3 265 C 180 258.9 171.6 257.4 165.5 261.7 C 165.1 262 127.8 288 82.5 299.5 C 82.1 299.6 81.8 299.7 81.5 299.8 C 38.1 314.7 36.8 361 36.2 380.7 C 36.2 381.6 36.2 382.4 36.1 383.2 C 36.1 383.3 36.1 383.4 36.1 383.5 C 36 388.7 35.9 415.4 41.2 428.8 C 42.2 431.4 44 433.6 46.4 435.1 C 49.4 437.1 121.3 482.9 241.6 482.9 C 361.9 482.9 433.8 437 436.8 435.1 C 439.1 433.6 441 431.4 442 428.8 C 447 415.5 446.9 388.8 446.8 383.6 Z"
        fill="#ffffff"/>
</svg>
