<svg
    xmlns="http://www.w3.org/2000/svg"
    viewBox="0 0 512 512"
    id="vector">
    <path
        id="path"
        d="M 4.896 324.259 C 22.344 497.13 297.313 491.401 425.7 460.524 C 508.17 440.69 513.296 401.052 511.806 316.523 C 510.846 262.037 515.249 117.798 479.802 72.4 C 425.354 2.667 376.574 46.402 309.146 69.165 C 222.658 98.362 188.957 46.233 106.67 47.785 C -13.971 50.063 -4.109 235.037 4.896 324.259 Z"
        fill="none"/>
    <path
        id="path_1"
        d="M 416.337 78.705 C 414.379 78.055 412.3 77.708 410.139 77.677 C 410.219 77.676 410.296 77.665 410.377 77.665 L 409.837 77.665 L 129.817 77.665 C 118.307 77.665 108.977 86.995 108.977 98.495 L 108.977 406.415 L 78.527 406.415 C 73.004 406.415 68.527 410.892 68.527 416.415 L 68.527 433.495 C 68.527 445.005 77.857 454.335 89.357 454.335 L 368.707 454.335 L 369.917 454.335 C 369.713 454.335 369.515 454.31 369.312 454.304 C 380.53 453.981 389.537 444.8 389.537 433.505 L 389.537 146.165 L 420.677 146.165 C 426.2 146.165 430.677 141.688 430.677 136.165 L 430.677 98.495 C 430.678 89.265 424.667 81.425 416.337 78.705 Z"
        fill="#6583fe"
        fill-opacity="0.2"
        stroke-opacity="0.2"/>
    <path
        id="path_2"
        d="M 375.117 78.495 L 375.117 126.165 L 420.677 126.165 C 426.2 126.165 430.677 121.688 430.677 116.165 L 430.677 78.495 C 430.677 69.265 424.667 61.425 416.337 58.705 C 414.287 58.025 412.107 57.665 409.837 57.665 L 354.287 57.665 C 365.787 57.665 375.117 66.995 375.117 78.495 Z"
        fill="#637fff"/>
    <path
        id="path_3"
        d="M 410.377 57.665 C 398.867 57.665 389.537 66.995 389.537 78.495 L 389.537 413.505 C 389.537 425.005 380.207 434.335 368.707 434.335 L 108.977 434.335 L 108.977 78.495 C 108.977 66.995 118.307 57.665 129.817 57.665 Z"
        fill="#ffffff"/>
    <path
        id="path_4"
        d="M 389.537 158 L 389.537 78.495 C 389.537 66.995 398.867 57.665 410.377 57.665 L 129.817 57.665 C 118.307 57.665 108.977 66.995 108.977 78.495 L 108.977 158 Z"
        fill="#d2deff"/>
    <path
        id="path_5"
        d="M 369.917 434.335 L 89.357 434.335 C 77.857 434.335 68.527 425.005 68.527 413.495 L 68.527 396.415 C 68.527 390.892 73.004 386.415 78.527 386.415 L 339.087 386.415 C 344.61 386.415 349.087 390.892 349.087 396.415 L 349.087 413.495 C 349.087 425.005 358.417 434.335 369.917 434.335 Z"
        fill="#637fff"/>
    <path
        id="path_6"
        d="M 417.91 53.959 C 415.599 53.193 413.184 52.783 410.724 52.7 C 410.607 52.692 410.495 52.665 410.376 52.665 L 409.836 52.665 L 129.816 52.665 C 115.568 52.665 103.976 64.252 103.976 78.495 L 103.976 352.49 C 103.976 355.252 106.214 357.49 108.976 357.49 C 111.738 357.49 113.976 355.252 113.976 352.49 L 113.976 78.495 C 113.976 69.766 121.081 62.665 129.816 62.665 L 389.97 62.665 C 386.565 67.041 384.535 72.535 384.535 78.495 L 384.535 413.505 C 384.535 422.029 377.758 428.982 369.312 429.304 C 360.864 428.981 354.085 422.026 354.085 413.501 L 354.085 396.418 C 354.085 388.147 347.356 381.418 339.085 381.418 L 303 381.418 C 300.238 381.418 298 383.656 298 386.418 C 298 389.18 300.238 391.418 303 391.418 L 339.087 391.418 C 341.844 391.418 344.087 393.661 344.087 396.418 L 344.087 413.501 C 344.087 419.463 346.116 424.958 349.522 429.335 L 89.362 429.335 C 80.632 429.335 73.528 422.231 73.528 413.501 L 73.528 396.418 C 73.528 393.661 75.771 391.418 78.528 391.418 L 269 391.418 C 271.762 391.418 274 389.18 274 386.418 C 274 383.656 271.762 381.418 269 381.418 L 78.528 381.418 C 70.257 381.418 63.528 388.147 63.528 396.418 L 63.528 413.501 C 63.528 427.746 75.117 439.335 89.362 439.335 L 368.707 439.335 L 369.921 439.335 C 370.267 439.335 370.604 439.3 370.93 439.233 C 384.135 438.101 394.537 426.999 394.537 413.505 L 394.537 131.165 L 420.678 131.165 C 428.949 131.165 435.678 124.436 435.678 116.165 L 435.678 78.495 C 435.678 67.289 428.529 57.426 417.91 53.959 Z M 425.678 116.165 C 425.678 118.922 423.435 121.165 420.678 121.165 L 394.537 121.165 L 394.537 78.495 C 394.537 69.846 401.516 62.805 410.141 62.677 C 411.731 62.707 413.286 62.961 414.785 63.458 C 421.301 65.585 425.678 71.628 425.678 78.495 Z"
        fill="#2626bc"/>
    <path
        id="path_7"
        d="M 148.102 109.894 M 140.123 109.894 C 140.123 108.209 140.657 106.567 141.647 105.204 C 142.637 103.841 144.034 102.826 145.636 102.306 C 147.239 101.785 148.965 101.785 150.568 102.306 C 152.17 102.826 153.567 103.841 154.557 105.204 C 155.547 106.567 156.081 108.209 156.081 109.894 C 156.081 111.579 155.547 113.221 154.557 114.584 C 153.567 115.947 152.17 116.962 150.568 117.482 C 148.965 118.003 147.239 118.003 145.636 117.482 C 144.034 116.962 142.637 115.947 141.647 114.584 C 140.657 113.221 140.123 111.579 140.123 109.894"
        fill="#bb86fc"/>
    <path
        id="path_8"
        d="M 251.389 359.667 L 161.081 359.667 C 158.32 359.667 156.081 357.428 156.081 354.667 L 156.081 248 C 156.081 245.239 158.32 243 161.081 243 L 251.389 243 Z"
        fill="#d2deff"/>
    <path
        id="path_9"
        d="M 251.389 243 L 299.043 243 L 299.043 359.667 L 251.389 359.667 Z"
        fill="#b7c5ff"/>
    <path
        id="path_10"
        d="M 341.697 359.667 L 299.043 359.667 L 299.043 243 L 341.697 243 C 344.458 243 346.697 245.239 346.697 248 L 346.697 354.667 C 346.697 357.428 344.458 359.667 341.697 359.667 Z"
        fill="#02ffb3"/>
    <path
        id="path_11"
        d="M 322.87 335.5 M 316.691 335.5 C 316.691 333.862 317.342 332.289 318.501 331.131 C 319.659 329.972 321.232 329.321 322.87 329.321 C 324.508 329.321 326.081 329.972 327.239 331.131 C 328.398 332.289 329.049 333.862 329.049 335.5 C 329.049 337.138 328.398 338.711 327.239 339.869 C 326.081 341.028 324.508 341.679 322.87 341.679 C 321.232 341.679 319.659 341.028 318.501 339.869 C 317.342 338.711 316.691 337.138 316.691 335.5"
        fill="#bb86fc"/>
    <path
        id="path_12"
        d="M 275.216 314.5 M 269.037 314.5 C 269.037 312.862 269.688 311.289 270.847 310.131 C 272.005 308.972 273.578 308.321 275.216 308.321 C 276.854 308.321 278.427 308.972 279.585 310.131 C 280.744 311.289 281.395 312.862 281.395 314.5 C 281.395 316.138 280.744 317.711 279.585 318.869 C 278.427 320.028 276.854 320.679 275.216 320.679 C 273.578 320.679 272.005 320.028 270.847 318.869 C 269.688 317.711 269.037 316.138 269.037 314.5"
        fill="#bb86fc"/>
    <path
        id="path_13"
        d="M 275.216 293.5 M 269.037 293.5 C 269.037 291.862 269.688 290.289 270.847 289.131 C 272.005 287.972 273.578 287.321 275.216 287.321 C 276.854 287.321 278.427 287.972 279.585 289.131 C 280.744 290.289 281.395 291.862 281.395 293.5 C 281.395 295.138 280.744 296.711 279.585 297.869 C 278.427 299.028 276.854 299.679 275.216 299.679 C 273.578 299.679 272.005 299.028 270.847 297.869 C 269.688 296.711 269.037 295.138 269.037 293.5"
        fill="#bb86fc"/>
    <path
        id="path_14"
        d="M 322.87 272.5 M 316.691 272.5 C 316.691 270.862 317.342 269.289 318.501 268.131 C 319.659 266.972 321.232 266.321 322.87 266.321 C 324.508 266.321 326.081 266.972 327.239 268.131 C 328.398 269.289 329.049 270.862 329.049 272.5 C 329.049 274.138 328.398 275.711 327.239 276.869 C 326.081 278.028 324.508 278.679 322.87 278.679 C 321.232 278.679 319.659 278.028 318.501 276.869 C 317.342 275.711 316.691 274.138 316.691 272.5"
        fill="#bb86fc"/>
    <path
        id="path_15"
        d="M 221.995 340.5 L 170.475 340.5 C 167.713 340.5 165.475 338.261 165.475 335.5 C 165.475 332.739 167.713 330.5 170.475 330.5 L 221.995 330.5 C 224.757 330.5 226.995 332.739 226.995 335.5 C 226.995 338.261 224.757 340.5 221.995 340.5 Z"
        fill="#b7c5ff"/>
    <path
        id="path_16"
        d="M 231.995 319.5 L 170.475 319.5 C 167.713 319.5 165.475 317.261 165.475 314.5 C 165.475 311.739 167.713 309.5 170.475 309.5 L 231.995 309.5 C 234.757 309.5 236.995 311.739 236.995 314.5 C 236.995 317.261 234.757 319.5 231.995 319.5 Z"
        fill="#b7c5ff"/>
    <path
        id="path_17"
        d="M 221.995 298.5 L 170.475 298.5 C 167.713 298.5 165.475 296.261 165.475 293.5 C 165.475 290.739 167.713 288.5 170.475 288.5 L 221.995 288.5 C 224.757 288.5 226.995 290.739 226.995 293.5 C 226.995 296.261 224.757 298.5 221.995 298.5 Z"
        fill="#b7c5ff"/>
    <path
        id="path_18"
        d="M 196.995 277.5 L 170.475 277.5 C 167.713 277.5 165.475 275.261 165.475 272.5 C 165.475 269.739 167.713 267.5 170.475 267.5 L 196.995 267.5 C 199.757 267.5 201.995 269.739 201.995 272.5 C 201.995 275.261 199.757 277.5 196.995 277.5 Z"
        fill="#b7c5ff"/>
    <path
        id="path_19"
        d="M 236.543 140.293 L 142.623 140.293 C 139.861 140.293 137.623 138.054 137.623 135.293 C 137.623 132.532 139.861 130.293 142.623 130.293 L 236.543 130.293 C 239.305 130.293 241.543 132.532 241.543 135.293 C 241.543 138.054 239.305 140.293 236.543 140.293 Z"
        fill="#b7c5ff"/>
    <path
        id="path_20"
        d="M 277.655 221.507 L 208.735 221.507 C 205.973 221.507 203.735 219.268 203.735 216.507 C 203.735 213.746 205.973 211.507 208.735 211.507 L 277.655 211.507 C 280.417 211.507 282.655 213.746 282.655 216.507 C 282.655 219.268 280.417 221.507 277.655 221.507 Z"
        fill="#b7c5ff"/>
    <path
        id="path_21"
        d="M 227.655 204.087 L 208.735 204.087 C 205.973 204.087 203.735 201.848 203.735 199.087 C 203.735 196.326 205.973 194.087 208.735 194.087 L 227.655 194.087 C 230.417 194.087 232.655 196.326 232.655 199.087 C 232.655 201.848 230.417 204.087 227.655 204.087 Z"
        fill="#b7c5ff"/>
    <path
        id="path_22"
        d="M 189.963 193.28 C 189.963 184.119 182.51 176.667 173.35 176.667 C 164.19 176.667 156.737 184.12 156.737 193.28 C 156.737 197.798 158.555 201.895 161.492 204.893 C 158.556 207.891 156.737 211.988 156.737 216.506 C 156.737 219.267 158.975 221.506 161.737 221.506 C 164.499 221.506 166.737 219.267 166.737 216.506 C 166.737 212.86 169.704 209.893 173.35 209.893 C 176.996 209.893 179.963 212.86 179.963 216.506 C 179.963 219.267 182.201 221.506 184.963 221.506 C 187.725 221.506 189.963 219.267 189.963 216.506 C 189.963 211.988 188.145 207.891 185.208 204.893 C 188.145 201.895 189.963 197.798 189.963 193.28 Z M 173.35 186.667 C 176.996 186.667 179.963 189.634 179.963 193.28 C 179.963 196.926 176.996 199.893 173.35 199.893 C 169.704 199.893 166.737 196.926 166.737 193.28 C 166.737 189.634 169.703 186.667 173.35 186.667 Z"
        fill="#bb86fc"/>
    <path
        id="path_23"
        d="M 316.691 158 M 270.691 158 C 270.691 145.805 275.541 134.096 284.164 125.473 C 292.787 116.85 304.496 112 316.691 112 C 328.886 112 340.595 116.85 349.218 125.473 C 357.841 134.096 362.691 145.805 362.691 158 C 362.691 170.195 357.841 181.904 349.218 190.527 C 340.595 199.15 328.886 204 316.691 204 C 304.496 204 292.787 199.15 284.164 190.527 C 275.541 181.904 270.691 170.195 270.691 158"
        fill="#02ffb3"/>
    <path
        id="path_24"
        d="M 323.206 153 L 321.69 153 L 321.69 142.82 L 331.143 142.82 C 333.905 142.82 336.143 140.582 336.143 137.82 C 336.143 135.058 333.905 132.82 331.143 132.82 L 321.69 132.82 L 321.69 130.306 C 321.69 127.544 319.452 125.306 316.69 125.306 C 313.928 125.306 311.69 127.544 311.69 130.306 L 311.69 132.82 L 310.174 132.82 C 301.854 132.82 295.084 139.59 295.084 147.91 C 295.084 156.23 301.854 163 310.174 163 L 311.69 163 L 311.69 173.18 L 302.237 173.18 C 299.475 173.18 297.237 175.418 297.237 178.18 C 297.237 180.942 299.475 183.18 302.237 183.18 L 311.69 183.18 L 311.69 185.694 C 311.69 188.456 313.928 190.694 316.69 190.694 C 319.452 190.694 321.69 188.456 321.69 185.694 L 321.69 183.18 L 323.206 183.18 C 331.526 183.18 338.296 176.41 338.296 168.09 C 338.296 159.77 331.527 153 323.206 153 Z M 310.175 153 C 307.368 153 305.085 150.717 305.085 147.91 C 305.085 145.103 307.368 142.82 310.175 142.82 L 311.691 142.82 L 311.691 153 Z M 323.206 173.18 L 321.69 173.18 L 321.69 163 L 323.206 163 C 326.013 163 328.296 165.283 328.296 168.09 C 328.296 170.897 326.013 173.18 323.206 173.18 Z"
        fill="#ffffff"/>
    <path
        id="path_25"
        d="M 430.678 183.18 C 429.399 183.18 428.118 182.692 427.143 181.715 C 425.19 179.763 425.19 176.597 427.143 174.645 L 437.143 164.645 C 439.094 162.692 442.262 162.692 444.213 164.645 C 446.166 166.597 446.166 169.763 444.213 171.715 L 434.213 181.715 C 433.237 182.691 431.957 183.18 430.678 183.18 Z"
        fill="#6583fe"/>
    <path
        id="path_26"
        d="M 430.678 401.415 C 429.399 401.415 428.118 400.927 427.143 399.95 C 425.19 397.998 425.19 394.832 427.143 392.88 L 437.143 382.88 C 439.094 380.927 442.262 380.927 444.213 382.88 C 446.166 384.832 446.166 387.998 444.213 389.95 L 434.213 399.95 C 433.237 400.927 431.957 401.415 430.678 401.415 Z"
        fill="#6583fe"/>
    <path
        id="path_27"
        d="M 51.075 195.09 C 48.313 195.09 46.075 192.852 46.075 190.09 C 46.075 186.781 43.384 184.09 40.075 184.09 C 37.313 184.09 35.075 181.852 35.075 179.09 C 35.075 176.328 37.313 174.09 40.075 174.09 C 43.384 174.09 46.075 171.399 46.075 168.09 C 46.075 165.328 48.313 163.09 51.075 163.09 C 53.837 163.09 56.075 165.328 56.075 168.09 C 56.075 171.399 58.766 174.09 62.075 174.09 C 64.837 174.09 67.075 176.328 67.075 179.09 C 67.075 181.852 64.837 184.09 62.075 184.09 C 58.766 184.09 56.075 186.781 56.075 190.09 C 56.075 192.852 53.837 195.09 51.075 195.09 Z"
        fill="#bb86fc"/>
    <path
        id="path_28"
        d="M 74.527 246.307 C 71.765 246.307 69.527 244.069 69.527 241.307 C 69.527 237.998 66.836 235.307 63.527 235.307 C 60.765 235.307 58.527 233.069 58.527 230.307 C 58.527 227.545 60.765 225.307 63.527 225.307 C 66.836 225.307 69.527 222.616 69.527 219.307 C 69.527 216.545 71.765 214.307 74.527 214.307 C 77.289 214.307 79.527 216.545 79.527 219.307 C 79.527 222.616 82.218 225.307 85.527 225.307 C 88.289 225.307 90.527 227.545 90.527 230.307 C 90.527 233.069 88.289 235.307 85.527 235.307 C 82.218 235.307 79.527 237.998 79.527 241.307 C 79.527 244.068 77.289 246.307 74.527 246.307 Z"
        fill="#01eca5"/>
    <path
        id="path_29"
        d="M 460.925 235.307 C 458.163 235.307 455.925 233.069 455.925 230.307 C 455.925 226.998 453.234 224.307 449.925 224.307 C 447.163 224.307 444.925 222.069 444.925 219.307 C 444.925 216.545 447.163 214.307 449.925 214.307 C 453.234 214.307 455.925 211.615 455.925 208.306 C 455.925 205.544 458.163 203.306 460.925 203.306 C 463.687 203.306 465.925 205.544 465.925 208.306 C 465.925 211.615 468.616 214.307 471.925 214.307 C 474.687 214.307 476.925 216.545 476.925 219.307 C 476.925 222.069 474.687 224.307 471.925 224.307 C 468.616 224.307 465.925 226.998 465.925 230.307 C 465.925 233.068 463.687 235.307 460.925 235.307 Z"
        fill="#bb86fc"/>
</svg>
