<svg xmlns="http://www.w3.org/2000/svg" width="31.724" height="40" viewBox="0 0 31.724 40">
  <g id="mp3" transform="translate(-72 -24)">
    <path id="Path_36894" data-name="Path 36894" d="M99.586,64H76.138A4.138,4.138,0,0,1,72,59.862V28.138A4.138,4.138,0,0,1,76.138,24h19.31l8.276,8.276V59.862A4.138,4.138,0,0,1,99.586,64Z" transform="translate(0 0)" fill="#cfd2fc"/>
    <path id="Path_36895" data-name="Path 36895" d="M72,360h31.724v6.9a4.138,4.138,0,0,1-4.138,4.138H76.138A4.138,4.138,0,0,1,72,366.9Z" transform="translate(0 -307.035)" fill="#5153ff"/>
    <path id="Path_36896" data-name="Path 36896" d="M352.276,32.276h-4.138A4.138,4.138,0,0,1,344,28.138V24Z" transform="translate(-248.552 0)" fill="#8690fa"/>
    <g id="Group_45133" data-name="Group 45133" transform="translate(79.586 32.966)">
      <path id="Path_36897" data-name="Path 36897" d="M164.828,384a.688.688,0,0,0-.488.2l-1.581,1.581-1.581-1.581a.69.69,0,0,0-1.177.488v5.517a.69.69,0,1,0,1.379,0v-3.852l.892.892a.69.69,0,0,0,.975,0l.892-.892v3.852a.69.69,0,1,0,1.379,0v-5.517A.69.69,0,0,0,164.828,384Z" transform="translate(-160 -361.931)" fill="#fff"/>
      <path id="Path_36898" data-name="Path 36898" d="M242.069,384H240.69a.69.69,0,0,0-.69.69v5.517a.69.69,0,0,0,1.379,0v-2.069h.69a2.069,2.069,0,1,0,0-4.138Zm0,2.759h-.69v-1.379h.69a.69.69,0,1,1,0,1.379Z" transform="translate(-233.103 -361.931)" fill="#fff"/>
      <path id="Path_36899" data-name="Path 36899" d="M306.069,384H304.69a.69.69,0,0,0,0,1.379h1.379a.69.69,0,0,1,0,1.379H304.69a.69.69,0,0,0,0,1.379h1.379a.69.69,0,0,1,0,1.379H304.69a.69.69,0,0,0,0,1.379h1.379a3.562,3.562,0,0,0,0-6.9Z" transform="translate(-291.586 -361.931)" fill="#fff"/>
      <path id="Path_36900" data-name="Path 36900" d="M208,129.379v2.759l9.655-1.379V128Z" transform="translate(-203.862 -128)" fill="#fff"/>
    </g>
    <path id="Path_36901" data-name="Path 36901" d="M166.934,120.17a.691.691,0,0,0-.55-.162l-9.655,1.379a.69.69,0,0,0-.592.683v7.956a2.759,2.759,0,1,0,1.379,2.389v-6.988l8.276-1.182v4.4a2.759,2.759,0,1,0,1.379,2.389V120.691a.69.69,0,0,0-.238-.521Zm-9.417,3.864v-1.365l8.276-1.182v1.366Z" transform="translate(-73.103 -87.726)" fill="#8690fa"/>
  </g>
</svg>
