<svg xmlns="http://www.w3.org/2000/svg" xmlns:xlink="http://www.w3.org/1999/xlink" width="31.25" height="40" viewBox="0 0 31.25 40">
  <defs>
    <linearGradient id="linear-gradient" x1="0.5" y1="-0.5" x2="0.5" y2="-0.46" gradientUnits="objectBoundingBox">
      <stop offset="0" stop-color="#f3f7ff"/>
      <stop offset="0.99" stop-color="#b5d1ff"/>
    </linearGradient>
    <linearGradient id="linear-gradient-2" x1="0.5" y1="-0.17" x2="0.5" y2="20.658" gradientUnits="objectBoundingBox">
      <stop offset="0" stop-color="#ff5252"/>
      <stop offset="1" stop-color="#d50000"/>
    </linearGradient>
    <linearGradient id="linear-gradient-3" y1="-0.085" y2="2.406" xlink:href="#linear-gradient"/>
    <linearGradient id="linear-gradient-4" y1="-2.145" y2="-0.366" xlink:href="#linear-gradient"/>
    <linearGradient id="linear-gradient-5" y1="-0.123" y2="2.825" xlink:href="#linear-gradient-2"/>
    <linearGradient id="linear-gradient-6" y1="-4.203" y2="3.531" xlink:href="#linear-gradient-2"/>
  </defs>
  <g id="PDF" transform="translate(-4.375)">
    <path id="Path_36868" data-name="Path 36868" d="M35,40H8.125a.625.625,0,0,1-.625-.625V.625A.625.625,0,0,1,8.125,0H28.539a.625.625,0,0,1,.442.183l6.461,6.461a.625.625,0,0,1,.183.442V39.375A.625.625,0,0,1,35,40Z" fill="url(#linear-gradient)"/>
    <path id="Path_36869" data-name="Path 36869" d="M4.375,20.591l2.5-1.1L8.62,22.165H4.375Z" fill="url(#linear-gradient-2)"/>
    <path id="Path_36870" data-name="Path 36870" d="M34.375,40H7.5a.625.625,0,0,1-.625-.625V.625A.625.625,0,0,1,7.5,0H28.173L35,6.827V39.375A.625.625,0,0,1,34.375,40Z" fill="url(#linear-gradient-3)"/>
    <path id="Path_36871" data-name="Path 36871" d="M28.173,0V6.2a.625.625,0,0,0,.625.625H35L31.938,3.14Z" fill="url(#linear-gradient-4)"/>
    <path id="Path_36872" data-name="Path 36872" d="M28.764,32.813H5.481a1.106,1.106,0,0,1-1.106-1.106V21.7H28.764A1.107,1.107,0,0,1,29.87,22.8v8.9a1.106,1.106,0,0,1-1.106,1.106Z" fill="url(#linear-gradient-5)"/>
    <path id="Path_36873" data-name="Path 36873" d="M6.875,19.487H5.48a1.1,1.1,0,1,0,0,2.209h1.4Z" fill="url(#linear-gradient-6)"/>
    <g id="Group_45131" data-name="Group 45131">
      <path id="Path_36874" data-name="Path 36874" d="M9.375,29.4V25.113a.543.543,0,0,1,.542-.543,17.574,17.574,0,0,1,2.486.081,1.51,1.51,0,0,1,1.084,1.571,1.551,1.551,0,0,1-1.2,1.615,11.4,11.4,0,0,1-1.657.077.174.174,0,0,0-.174.174V29.4a.542.542,0,1,1-1.084,0Zm1.084-3.744v1.174a.174.174,0,0,0,.174.174,4.753,4.753,0,0,0,1.276-.084.732.732,0,0,0-.146-1.4,10.6,10.6,0,0,0-1.129-.037.174.174,0,0,0-.174.175Z" fill="#fff"/>
      <path id="Path_36875" data-name="Path 36875" d="M14.375,25.113a.543.543,0,0,1,.542-.543,12.176,12.176,0,0,1,2.46.1A2.026,2.026,0,0,1,18.7,26.037a3.969,3.969,0,0,1,.176,1.269,3.522,3.522,0,0,1-.165,1.142,1.957,1.957,0,0,1-1.337,1.375,13.052,13.052,0,0,1-2.456.114.542.542,0,0,1-.542-.541Zm1.084.54V28.86a.174.174,0,0,0,.174.174,6.823,6.823,0,0,0,1.291-.051.927.927,0,0,0,.721-.742,3.506,3.506,0,0,0,.11-.983,3.208,3.208,0,0,0-.11-.956,1.04,1.04,0,0,0-.812-.773,8.987,8.987,0,0,0-1.2-.051.174.174,0,0,0-.172.175Z" fill="#fff"/>
      <path id="Path_36876" data-name="Path 36876" d="M19.8,29.4V25.113a.543.543,0,0,1,.543-.543h2.683a.454.454,0,1,1,0,.908H21.062a.174.174,0,0,0-.174.175v.921a.174.174,0,0,0,.174.175h1.613a.454.454,0,1,1,0,.908H21.062a.174.174,0,0,0-.174.174v1.563a.543.543,0,0,1-1.087,0Z" fill="#fff"/>
    </g>
  </g>
</svg>
