<svg
    xmlns="http://www.w3.org/2000/svg"
    viewBox="0 0 512 512"
    id="vector">
    <path
        id="path"
        d="M 373.553 146.774 C 373.552 146.774 373.551 146.774 373.55 146.774 L 373.55 68.34 C 373.55 62.82 369.08 58.34 363.55 58.34 L 148.45 58.34 C 142.92 58.34 138.45 62.82 138.45 68.34 L 138.45 476.11 C 138.45 479.84 142.39 482.26 145.72 480.56 L 159.69 473.43 C 161.12 472.7 162.81 472.7 164.24 473.43 L 183.2 483.11 C 184.63 483.84 186.32 483.84 187.75 483.11 L 206.72 473.43 C 208.14 472.7 209.84 472.7 211.26 473.43 L 230.23 483.11 C 231.66 483.84 233.35 483.84 234.77 483.11 L 253.74 473.43 C 255.17 472.7 256.86 472.7 258.29 473.43 L 277.25 483.11 C 278.68 483.84 280.37 483.84 281.8 483.11 L 300.76 473.43 C 302.19 472.7 303.88 472.7 305.3 473.43 L 324.27 483.11 C 325.69 483.84 327.38 483.84 328.81 483.11 L 347.77 473.43 C 349.2 472.7 350.89 472.7 352.32 473.43 L 366.28 480.56 C 369.61 482.26 373.55 479.84 373.55 476.1 L 373.55 253.312 L 373.553 253.312 C 402.973 253.312 426.822 229.462 426.822 200.043 C 426.822 170.623 402.973 146.774 373.553 146.774 Z"
        fill="#2626bc"
        fill-opacity="0.1"
        stroke-opacity="0.1"/>
    <path
        id="path_1"
        d="M 471.476 133.315 C 406.059 83.022 342.609 124.009 271.836 109.518 C 200.551 94.921 172.151 46.317 90.96 68.752 C 19.038 88.626 -24.602 168.304 14.936 235.011 C 26.203 254.02 45.397 268.361 53.241 289.63 C 65.894 323.941 46.634 350.283 50.391 384.002 C 66.003 524.104 279.965 469.836 358.694 426.247 C 482.164 357.887 565.692 205.75 471.476 133.315 Z"
        fill="none"/>
    <path
        id="path_2"
        d="M 373.55 43.34 L 373.55 451.1 C 373.55 454.84 369.61 457.26 366.28 455.56 L 352.32 448.43 C 350.89 447.7 349.2 447.7 347.77 448.43 L 328.81 458.11 C 327.38 458.84 325.69 458.84 324.27 458.11 L 305.3 448.43 C 303.88 447.7 302.19 447.7 300.76 448.43 L 281.8 458.11 C 280.37 458.84 278.68 458.84 277.25 458.11 L 258.29 448.43 C 256.86 447.7 255.17 447.7 253.74 448.43 L 234.77 458.11 C 233.35 458.84 231.66 458.84 230.23 458.11 L 211.26 448.43 C 209.84 447.7 208.14 447.7 206.72 448.43 L 187.75 458.11 C 186.32 458.84 184.63 458.84 183.2 458.11 L 164.24 448.43 C 162.81 447.7 161.12 447.7 159.69 448.43 L 145.72 455.56 C 142.39 457.26 138.45 454.84 138.45 451.11 L 138.45 43.34 C 138.45 37.82 142.92 33.34 148.45 33.34 L 363.55 33.34 C 369.08 33.34 373.55 37.82 373.55 43.34 Z"
        fill="#ffffff"/>
    <path
        id="path_3"
        d="M 373.55 144.6 L 373.55 251.14 C 344.13 251.14 320.28 227.29 320.28 197.87 C 320.28 168.45 344.13 144.6 373.55 144.6 Z"
        fill="#dcfdee"/>
    <path
        id="path_4"
        d="M 279.523 463.653 C 277.961 463.653 276.401 463.29 274.978 462.564 L 256.013 452.884 L 237.048 462.564 C 234.2 464.016 230.801 464.015 227.957 462.564 L 208.991 452.884 L 190.025 462.564 C 187.178 464.016 183.78 464.016 180.934 462.564 L 161.964 452.884 L 147.994 460.013 C 144.869 461.608 141.218 461.466 138.226 459.634 C 135.234 457.802 133.448 454.614 133.448 451.106 L 133.448 43.343 C 133.448 35.072 140.177 28.343 148.448 28.343 L 197.421 28.343 C 200.182 28.343 202.421 30.582 202.421 33.343 C 202.421 36.104 200.182 38.343 197.421 38.343 L 148.448 38.343 C 145.691 38.343 143.448 40.586 143.448 43.343 L 143.448 451.105 L 157.417 443.976 C 160.264 442.524 163.663 442.524 166.508 443.976 L 185.478 453.656 L 204.444 443.976 C 207.29 442.523 210.689 442.522 213.537 443.976 L 232.501 453.655 L 251.466 443.975 C 254.312 442.522 257.711 442.521 260.559 443.975 L 279.523 453.654 L 298.484 443.975 C 301.333 442.522 304.731 442.522 307.577 443.975 L 326.539 453.655 L 345.497 443.976 C 348.345 442.523 351.743 442.523 354.589 443.975 L 368.552 451.102 L 368.552 257.906 C 368.552 255.145 370.791 252.906 373.552 252.906 C 376.313 252.906 378.552 255.145 378.552 257.906 L 378.552 451.104 C 378.552 454.612 376.766 457.8 373.774 459.632 C 370.783 461.464 367.13 461.606 364.006 460.01 L 350.044 452.883 L 331.085 462.562 C 328.239 464.016 324.839 464.017 321.991 462.562 L 303.031 452.883 L 284.07 462.562 C 282.646 463.29 281.084 463.653 279.523 463.653 Z"
        fill="#2626bc"/>
    <path
        id="path_5"
        d="M 261 217.904 L 174.48 217.904 C 171.718 217.904 169.48 215.665 169.48 212.904 C 169.48 210.143 171.718 207.904 174.48 207.904 L 261 207.904 C 263.762 207.904 266 210.143 266 212.904 C 266 215.665 263.762 217.904 261 217.904 Z"
        fill="#8399fe"/>
    <path
        id="path_6"
        d="M 186 197.873 L 174.48 197.873 C 171.718 197.873 169.48 195.634 169.48 192.873 C 169.48 190.112 171.718 187.873 174.48 187.873 L 186 187.873 C 188.762 187.873 191 190.112 191 192.873 C 191 195.634 188.762 197.873 186 197.873 Z"
        fill="#01eca5"/>
    <path
        id="path_7"
        d="M 281 263.312 L 174.48 263.312 C 171.718 263.312 169.48 261.073 169.48 258.312 C 169.48 255.551 171.718 253.312 174.48 253.312 L 281 253.312 C 283.762 253.312 286 255.551 286 258.312 C 286 261.073 283.762 263.312 281 263.312 Z"
        fill="#8399fe"/>
    <path
        id="path_8"
        d="M 186 243.28 L 174.48 243.28 C 171.718 243.28 169.48 241.041 169.48 238.28 C 169.48 235.519 171.718 233.28 174.48 233.28 L 186 233.28 C 188.762 233.28 191 235.519 191 238.28 C 191 241.041 188.762 243.28 186 243.28 Z"
        fill="#01eca5"/>
    <path
        id="path_9"
        d="M 271 308.719 L 174.48 308.719 C 171.718 308.719 169.48 306.48 169.48 303.719 C 169.48 300.958 171.718 298.719 174.48 298.719 L 271 298.719 C 273.762 298.719 276 300.958 276 303.719 C 276 306.48 273.762 308.719 271 308.719 Z"
        fill="#8399fe"/>
    <path
        id="path_10"
        d="M 186 288.687 L 174.48 288.687 C 171.718 288.687 169.48 286.448 169.48 283.687 C 169.48 280.926 171.718 278.687 174.48 278.687 L 186 278.687 C 188.762 278.687 191 280.926 191 283.687 C 191 286.448 188.762 288.687 186 288.687 Z"
        fill="#01eca5"/>
    <path
        id="path_11"
        d="M 231 354.127 L 174.48 354.127 C 171.718 354.127 169.48 351.888 169.48 349.127 C 169.48 346.366 171.718 344.127 174.48 344.127 L 231 344.127 C 233.762 344.127 236 346.366 236 349.127 C 236 351.888 233.762 354.127 231 354.127 Z"
        fill="#8399fe"/>
    <path
        id="path_12"
        d="M 276.76 354.127 L 255.24 354.127 C 252.478 354.127 250.24 351.888 250.24 349.127 C 250.24 346.366 252.478 344.127 255.24 344.127 L 276.76 344.127 C 279.522 344.127 281.76 346.366 281.76 349.127 C 281.76 351.888 279.521 354.127 276.76 354.127 Z"
        fill="#8399fe"/>
    <path
        id="path_13"
        d="M 186 334.095 L 174.48 334.095 C 171.718 334.095 169.48 331.856 169.48 329.095 C 169.48 326.334 171.718 324.095 174.48 324.095 L 186 324.095 C 188.762 324.095 191 326.334 191 329.095 C 191 331.856 188.762 334.095 186 334.095 Z"
        fill="#01eca5"/>
    <path
        id="path_14"
        d="M 334.616 217.904 L 318.096 217.904 C 315.334 217.904 313.096 215.665 313.096 212.904 C 313.096 210.143 315.334 207.904 318.096 207.904 L 334.616 207.904 C 337.378 207.904 339.616 210.143 339.616 212.904 C 339.616 215.665 337.377 217.904 334.616 217.904 Z"
        fill="#8399fe"/>
    <path
        id="path_15"
        d="M 339.62 212.9 C 339.62 215.67 337.38 217.9 334.62 217.9 L 324.17 217.9 C 322.88 214.71 321.88 211.36 321.22 207.9 L 334.62 207.9 C 337.38 207.9 339.62 210.14 339.62 212.9 Z"
        fill="#6583fe"/>
    <path
        id="path_16"
        d="M 334.616 263.312 L 318.096 263.312 C 315.334 263.312 313.096 261.073 313.096 258.312 C 313.096 255.551 315.334 253.312 318.096 253.312 L 334.616 253.312 C 337.378 253.312 339.616 255.551 339.616 258.312 C 339.616 261.073 337.377 263.312 334.616 263.312 Z"
        fill="#8399fe"/>
    <path
        id="path_17"
        d="M 334.616 308.719 L 318.096 308.719 C 315.334 308.719 313.096 306.48 313.096 303.719 C 313.096 300.958 315.334 298.719 318.096 298.719 L 334.616 298.719 C 337.378 298.719 339.616 300.958 339.616 303.719 C 339.616 306.48 337.377 308.719 334.616 308.719 Z"
        fill="#8399fe"/>
    <path
        id="path_18"
        d="M 334.616 354.127 L 318.096 354.127 C 315.334 354.127 313.096 351.888 313.096 349.127 C 313.096 346.366 315.334 344.127 318.096 344.127 L 334.616 344.127 C 337.378 344.127 339.616 346.366 339.616 349.127 C 339.616 351.888 337.377 354.127 334.616 354.127 Z"
        fill="#8399fe"/>
    <path
        id="path_19"
        d="M 332.961 334.152 C 330.2 334.152 327.961 331.913 327.961 329.152 L 327.961 329.037 C 327.961 326.276 330.2 324.037 332.961 324.037 C 335.722 324.037 337.961 326.276 337.961 329.037 L 337.961 329.152 C 337.961 331.914 335.723 334.152 332.961 334.152 Z"
        fill="#01eca5"/>
    <path
        id="path_20"
        d="M 334.616 412 L 310.476 412 C 307.714 412 305.476 409.761 305.476 407 C 305.476 404.239 307.714 402 310.476 402 L 334.616 402 C 337.378 402 339.616 404.239 339.616 407 C 339.616 409.761 337.377 412 334.616 412 Z"
        fill="#8399fe"/>
    <path
        id="path_21"
        d="M 208.621 412 L 174.481 412 C 171.719 412 169.481 409.761 169.481 407 C 169.481 404.239 171.719 402 174.481 402 L 208.621 402 C 211.383 402 213.621 404.239 213.621 407 C 213.621 409.761 211.382 412 208.621 412 Z"
        fill="#8399fe"/>
    <path
        id="path_22"
        d="M 332.961 288.745 C 330.2 288.745 327.961 286.506 327.961 283.745 L 327.961 283.63 C 327.961 280.869 330.2 278.63 332.961 278.63 C 335.722 278.63 337.961 280.869 337.961 283.63 L 337.961 283.745 C 337.961 286.506 335.723 288.745 332.961 288.745 Z"
        fill="#01eca5"/>
    <path
        id="path_23"
        d="M 332.961 243.338 C 330.2 243.338 327.961 241.099 327.961 238.338 L 327.961 238.223 C 327.961 235.462 330.2 233.223 332.961 233.223 C 335.722 233.223 337.961 235.462 337.961 238.223 L 337.961 238.338 C 337.961 241.099 335.723 243.338 332.961 243.338 Z"
        fill="#01eca5"/>
    <path
        id="path_24"
        d="M 332.961 197.93 C 330.2 197.93 327.961 195.691 327.961 192.93 L 327.961 192.815 C 327.961 190.054 330.2 187.815 332.961 187.815 C 335.722 187.815 337.961 190.054 337.961 192.815 L 337.961 192.93 C 337.961 195.691 335.723 197.93 332.961 197.93 Z"
        fill="#01eca5"/>
    <path
        id="path_25"
        d="M 373.553 175.043 M 320.284 175.043 C 320.284 160.921 325.9 147.362 335.886 137.376 C 345.872 127.39 359.431 121.774 373.553 121.774 C 387.675 121.774 401.234 127.39 411.22 137.376 C 421.206 147.362 426.822 160.921 426.822 175.043 C 426.822 189.165 421.206 202.724 411.22 212.71 C 401.234 222.696 387.675 228.312 373.553 228.312 C 359.431 228.312 345.872 222.696 335.886 212.71 C 325.9 202.724 320.284 189.165 320.284 175.043"
        fill="#01eca5"/>
    <path
        id="path_26"
        d="M 378.553 117.003 L 378.553 43.343 C 378.553 35.072 371.824 28.343 363.553 28.343 L 226.673 28.343 C 223.912 28.343 221.673 30.582 221.673 33.343 C 221.673 36.104 223.912 38.343 226.673 38.343 L 363.553 38.343 C 366.31 38.343 368.553 40.586 368.553 43.343 L 368.553 117.003 C 338.757 119.55 315.284 144.599 315.284 175.044 C 315.284 207.174 341.424 233.313 373.554 233.313 C 405.684 233.313 431.823 207.174 431.823 175.044 C 431.822 144.599 408.349 119.548 378.553 117.003 Z M 373.553 223.312 C 346.937 223.312 325.283 201.659 325.283 175.043 C 325.283 148.427 346.937 126.773 373.553 126.773 C 400.169 126.773 421.822 148.427 421.822 175.043 C 421.822 201.659 400.169 223.312 373.553 223.312 Z"
        fill="#2626bc"/>
    <path
        id="path_27"
        d="M 380.069 170.043 L 378.553 170.043 L 378.553 159.863 L 388.007 159.863 C 390.768 159.863 393.007 157.624 393.007 154.863 C 393.007 152.102 390.768 149.863 388.007 149.863 L 378.553 149.863 L 378.553 147.349 C 378.553 144.588 376.314 142.349 373.553 142.349 C 370.792 142.349 368.553 144.588 368.553 147.349 L 368.553 149.863 L 367.037 149.863 C 358.716 149.863 351.947 156.632 351.947 164.953 C 351.947 173.274 358.716 180.043 367.037 180.043 L 368.553 180.043 L 368.553 190.223 L 359.1 190.223 C 356.339 190.223 354.1 192.462 354.1 195.223 C 354.1 197.984 356.339 200.223 359.1 200.223 L 368.553 200.223 L 368.553 202.737 C 368.553 205.498 370.792 207.737 373.553 207.737 C 376.314 207.737 378.553 205.498 378.553 202.737 L 378.553 200.223 L 380.069 200.223 C 388.389 200.223 395.158 193.454 395.158 185.133 C 395.158 176.812 388.389 170.043 380.069 170.043 Z M 367.037 170.043 C 364.23 170.043 361.947 167.76 361.947 164.953 C 361.947 162.146 364.23 159.863 367.037 159.863 L 368.553 159.863 L 368.553 170.043 Z M 380.069 190.223 L 378.553 190.223 L 378.553 180.043 L 380.069 180.043 C 382.875 180.043 385.158 182.326 385.158 185.133 C 385.158 187.94 382.875 190.223 380.069 190.223 Z"
        fill="#ffffff"/>
    <path
        id="path_28"
        d="M 276.76 158.719 L 235.24 158.719 C 232.478 158.719 230.24 156.48 230.24 153.719 C 230.24 150.958 232.478 148.719 235.24 148.719 L 276.76 148.719 C 279.522 148.719 281.76 150.958 281.76 153.719 C 281.76 156.48 279.521 158.719 276.76 158.719 Z"
        fill="#8399fe"/>
    <path
        id="path_29"
        d="M 304.26 121.774 L 207.74 121.774 C 204.978 121.774 202.74 119.535 202.74 116.774 C 202.74 114.013 204.978 111.774 207.74 111.774 L 304.26 111.774 C 307.022 111.774 309.26 114.013 309.26 116.774 C 309.26 119.535 307.021 121.774 304.26 121.774 Z"
        fill="#4369fd"/>
    <path
        id="path_30"
        d="M 329.26 99.828 L 182.74 99.828 C 179.978 99.828 177.74 97.589 177.74 94.828 C 177.74 92.067 179.978 89.828 182.74 89.828 L 329.26 89.828 C 332.022 89.828 334.26 92.067 334.26 94.828 C 334.26 97.589 332.021 99.828 329.26 99.828 Z"
        fill="#4369fd"/>
    <path
        id="path_31"
        d="M 186 77.883 L 174.48 77.883 C 171.718 77.883 169.48 75.644 169.48 72.883 C 169.48 70.122 171.718 67.883 174.48 67.883 L 186 67.883 C 188.762 67.883 191 70.122 191 72.883 C 191 75.644 188.762 77.883 186 77.883 Z"
        fill="#01eca5"/>
    <path
        id="path_32"
        d="M 411.18 82.376 C 407.467 82.376 403.754 80.962 400.927 78.136 C 395.274 72.483 395.274 63.284 400.927 57.63 C 406.58 51.976 415.78 51.976 421.433 57.63 C 427.086 63.284 427.086 72.483 421.433 78.136 C 418.607 80.962 414.894 82.376 411.18 82.376 Z M 411.181 63.385 C 410.028 63.385 408.876 63.823 407.999 64.701 C 406.245 66.455 406.245 69.31 407.999 71.065 C 409.752 72.819 412.608 72.82 414.363 71.065 C 416.117 69.311 416.117 66.456 414.363 64.701 C 413.485 63.823 412.333 63.385 411.181 63.385 Z"
        fill="#00eca2"/>
    <path
        id="path_33"
        d="M 436.322 131.267 C 432.609 131.267 428.896 129.854 426.069 127.027 C 423.33 124.288 421.822 120.647 421.822 116.774 C 421.822 112.901 423.33 109.26 426.07 106.521 C 431.722 100.868 440.921 100.867 446.575 106.521 C 449.314 109.26 450.822 112.901 450.822 116.774 C 450.822 120.648 449.314 124.289 446.574 127.027 C 443.749 129.853 440.035 131.267 436.322 131.267 Z M 436.322 112.276 C 435.17 112.276 434.017 112.714 433.14 113.592 C 432.289 114.442 431.822 115.572 431.822 116.774 C 431.822 117.976 432.29 119.106 433.14 119.956 C 434.895 121.711 437.75 121.711 439.504 119.956 C 440.355 119.106 440.822 117.976 440.822 116.774 C 440.822 115.572 440.354 114.442 439.504 113.592 C 438.627 112.714 437.475 112.276 436.322 112.276 Z"
        fill="#bb86fc"/>
    <path
        id="path_34"
        d="M 105.379 236.759 C 101.666 236.759 97.952 235.345 95.126 232.519 C 89.473 226.865 89.473 217.666 95.126 212.013 C 100.779 206.361 109.979 206.36 115.632 212.013 C 121.285 217.667 121.285 226.866 115.632 232.519 C 112.806 235.345 109.092 236.759 105.379 236.759 Z M 105.379 217.768 C 104.227 217.768 103.074 218.206 102.197 219.084 C 100.442 220.838 100.442 223.693 102.197 225.448 C 103.951 227.203 106.807 227.202 108.561 225.448 C 110.316 223.694 110.316 220.839 108.561 219.084 C 107.684 218.206 106.532 217.768 105.379 217.768 Z"
        fill="#bb86fc"/>
    <path
        id="path_35"
        d="M 98.933 281.7 C 97.653 281.7 96.374 281.212 95.397 280.236 L 89.433 274.272 L 83.469 280.236 C 81.516 282.188 78.351 282.188 76.398 280.236 C 74.445 278.283 74.445 275.117 76.398 273.165 L 85.898 263.665 C 87.851 261.713 91.016 261.713 92.969 263.665 L 102.469 273.165 C 104.422 275.118 104.422 278.284 102.469 280.236 C 101.492 281.212 100.213 281.7 98.933 281.7 Z"
        fill="#6583fe"/>
    <path
        id="path_36"
        d="M 426.822 426.5 C 425.542 426.5 424.263 426.012 423.286 425.036 L 417.322 419.072 L 411.358 425.036 C 409.405 426.988 406.24 426.988 404.287 425.036 C 402.334 423.083 402.334 419.917 404.287 417.965 L 413.787 408.465 C 415.74 406.513 418.905 406.513 420.858 408.465 L 430.358 417.965 C 432.311 419.918 432.311 423.084 430.358 425.036 C 429.381 426.011 428.102 426.5 426.822 426.5 Z"
        fill="#00eca2"/>
</svg>
